<?xml version="1.0" encoding="utf-8"?>
<!-- Generator: Adobe Illustrator 19.0.0, SVG Export Plug-In . SVG Version: 6.00 Build 0)  -->
<svg version="1.1" id="Layer_1" xmlns="http://www.w3.org/2000/svg" xmlns:xlink="http://www.w3.org/1999/xlink" x="0px" y="0px"
	 viewBox="2802.3 -1144 2725.1 3029.9" style="enable-background:new 2802.3 -1144 2725.1 3029.9;" xml:space="preserve">
<style type="text/css">
	.st0{fill:#000035;}
	.st1{fill:url(#SVGID_1_);}
	.st2{fill:#FFFFFF;}
	.st3{opacity:0.21;clip-path:url(#SVGID_3_);fill:#FFFFFF;enable-background:new    ;}
	.st4{opacity:0.21;clip-path:url(#SVGID_5_);fill:#FFFFFF;enable-background:new    ;}
	.st5{opacity:0.21;clip-path:url(#SVGID_7_);fill:#FFFFFF;enable-background:new    ;}
	.st6{opacity:0.21;clip-path:url(#SVGID_9_);fill:#FFFFFF;enable-background:new    ;}
	.st7{fill:#91B3FA;}
	.st8{fill:#7D97F4;}
	.st9{fill:url(#SVGID_10_);}
	.st10{fill:url(#SVGID_11_);}
	.st11{fill:url(#SVGID_12_);}
	.st12{fill:url(#SVGID_13_);}
	.st13{fill:url(#SVGID_14_);}
	.st14{fill:url(#SVGID_15_);}
	.st15{fill:url(#SVGID_16_);}
	.st16{fill:url(#SVGID_17_);}
	.st17{fill:#FBFF09;}
	.st18{fill:#FFFC5B;}
	.st19{fill:#F3FF03;}
	.st20{fill:url(#SVGID_18_);}
	.st21{fill:url(#SVGID_19_);}
	.st22{fill:#C9C90A;}
	.st23{fill:url(#SVGID_20_);}
	.st24{fill:url(#SVGID_21_);}
	.st25{fill:url(#SVGID_22_);}
	.st26{fill:#BDD0FB;}
	.st27{fill:url(#SVGID_23_);}
	.st28{fill:url(#SVGID_24_);}
	.st29{fill:url(#SVGID_25_);}
	.st30{fill:url(#SVGID_26_);}
	.st31{fill:url(#SVGID_27_);}
	.st32{fill:url(#SVGID_28_);}
	.st33{fill:url(#SVGID_29_);}
	.st34{fill:url(#SVGID_30_);}
	.st35{fill:url(#SVGID_31_);}
	.st36{fill:url(#SVGID_32_);}
	.st37{opacity:0.34;fill:url(#SVGID_33_);enable-background:new    ;}
</style>
<g>
	<g>
		<path class="st0" d="M5054.8,1885.9H3402.5c-19.9,0-36-16.1-36-36v-2906.5c0-19.9,16.1-36,36-36h1652.3c19.9,0,36,16.1,36,36
			v2906.5C5090.7,1869.7,5074.6,1885.9,5054.8,1885.9z"/>
		
			<linearGradient id="SVGID_1_" gradientUnits="userSpaceOnUse" x1="2955.8726" y1="1574.59" x2="5002.6001" y2="-323.0771" gradientTransform="matrix(1 0 0 -1 0 792)">
			<stop  offset="0" style="stop-color:#4F52FF"/>
			<stop  offset="1" style="stop-color:#4042E2"/>
		</linearGradient>
		<path class="st1" d="M4975.8,1794.8H3481.3c-19.9,0-36-16.1-36-36V-964c0-19.9,16.1-36,36-36h1494.5c19.9,0,36,16.1,36,36v2722.8
			C5011.8,1778.7,4995.7,1794.8,4975.8,1794.8z"/>
		<path class="st0" d="M4691.3-913.7H3776c-9.3,0-16.9-7.6-16.9-16.9v-67c0-3.5,2.9-6.4,6.4-6.4h936.4c3.5,0,6.4,2.9,6.4,6.4v67
			C4708.3-921.4,4700.6-913.7,4691.3-913.7z"/>
		<path class="st2" d="M4517.5-958.9h-545.6c-9.1,0-16.5-7.4-16.5-16.5l0,0c0-9.1,7.4-16.5,16.5-16.5h545.6
			c9.1,0,16.5,7.4,16.5,16.5l0,0C4534-966.3,4526.6-958.9,4517.5-958.9z"/>
	</g>
	<g>
		<g>
			<defs>
				<path id="SVGID_2_" d="M4957.4,1732.6H3497.8c-19.9,0-36-16.1-36-36V-886.7c0-19.9,16.1-36,36-36h1459.6c19.9,0,36,16.1,36,36
					v2583.3C4993.4,1716.5,4977.3,1732.6,4957.4,1732.6z"/>
			</defs>
			<clipPath id="SVGID_3_">
				<use xlink:href="#SVGID_2_"  style="overflow:visible;"/>
			</clipPath>
			<polygon class="st3" points="5400.9,-146 3262.7,-662 3306.3,-832.6 5444.5,-316.6 			"/>
		</g>
		<g>
			<defs>
				<path id="SVGID_4_" d="M4957.4,1732.6H3497.8c-19.9,0-36-16.1-36-36V-886.7c0-19.9,16.1-36,36-36h1459.6c19.9,0,36,16.1,36,36
					v2583.3C4993.4,1716.5,4977.3,1732.6,4957.4,1732.6z"/>
			</defs>
			<clipPath id="SVGID_5_">
				<use xlink:href="#SVGID_4_"  style="overflow:visible;"/>
			</clipPath>
			<polygon class="st4" points="5221.3,1453.8 3083.1,937.8 3218.3,408.6 5356.5,924.6 			"/>
		</g>
		<g>
			<defs>
				<path id="SVGID_6_" d="M4957.4,1732.6H3497.8c-19.9,0-36-16.1-36-36V-886.7c0-19.9,16.1-36,36-36h1459.6c19.9,0,36,16.1,36,36
					v2583.3C4993.4,1716.5,4977.3,1732.6,4957.4,1732.6z"/>
			</defs>
			<clipPath id="SVGID_7_">
				<use xlink:href="#SVGID_6_"  style="overflow:visible;"/>
			</clipPath>
			<polygon class="st5" points="5337.9,838.5 3199.7,322.5 3234.9,185.1 5373,701.1 			"/>
		</g>
		<g>
			<defs>
				<path id="SVGID_8_" d="M4957.4,1732.6H3497.8c-19.9,0-36-16.1-36-36V-886.7c0-19.9,16.1-36,36-36h1459.6c19.9,0,36,16.1,36,36
					v2583.3C4993.4,1716.5,4977.3,1732.6,4957.4,1732.6z"/>
			</defs>
			<clipPath id="SVGID_9_">
				<use xlink:href="#SVGID_8_"  style="overflow:visible;"/>
			</clipPath>
			<polygon class="st6" points="5346,144.6 3207.8,-371.3 3228.2,-451.3 5366.4,64.6 			"/>
		</g>
	</g>
</g>
<circle class="st0" cx="3395.7" cy="-550.6" r="593.4"/>
<circle class="st2" cx="3398.8" cy="-547.8" r="534.1"/>
<g>
	<path class="st7" d="M3176.4-879.6l-66.5-32.6c-6.1-3-13.3-2-18.3,2.6l-7.2,6.5l-11.7,10.5l-7.5,6.7c-5,4.5-6.8,11.6-4.5,17.9
		l25.5,69.5c3.9,10.6,12.6,18.6,23.6,20.9l44.9,9.8l291.9,324.1l16.8-15.1l11.7-10.5l15.9-14.3l-291.9-324.1l-4.7-46
		C3193.2-864.8,3186.5-874.7,3176.4-879.6z"/>
	<path class="st8" d="M3171.9-875.7l-60.3-29.7c-5.5-2.7-12.4-2.2-16.9,1.9l-6.5,5.9l-10.5,9.5l-6.7,6.1c-4.5,4.1-5.7,10.9-3.6,16.6
		l23.1,62.8c3.5,9.5,11.6,16.7,21.5,18.9l40.7,8.9l263.2,292.3l14.9-13.5l10.5-9.5l16.4-14.8l-263.2-292.3l-5.3-40.5
		C3188.1-863.3,3181-871.2,3171.9-875.7z"/>
	<g>
		
			<linearGradient id="SVGID_10_" gradientUnits="userSpaceOnUse" x1="3543.2632" y1="1204.1669" x2="3654.0452" y2="772.499" gradientTransform="matrix(1 0 0 -1 0 792)">
			<stop  offset="0" style="stop-color:#4F52FF"/>
			<stop  offset="1" style="stop-color:#4042E2"/>
		</linearGradient>
		<path class="st9" d="M3685.2-374l-207.5-185.2l-104.8,94.7l159.7,220.6c15.1,20.8,35.6,37.1,59.3,47l63.7,27.1
			c10.8,4.5,23.9,3.2,32.6-4.6l43.6-39.2c7.9-7.1,10.7-18.6,8.7-29l-10.7-53.4C3723.8-326,3708-353.6,3685.2-374z"/>
		
			<linearGradient id="SVGID_11_" gradientUnits="userSpaceOnUse" x1="5825.9932" y1="1753.6401" x2="5849.0591" y2="2247.9114" gradientTransform="matrix(0.7431 -0.6692 -0.6692 -0.7431 486.0249 4957.0952)">
			<stop  offset="0" style="stop-color:#4F52FF"/>
			<stop  offset="1" style="stop-color:#4042E2"/>
		</linearGradient>
		<path class="st10" d="M3488-571.1c6.4,7.1,5.8,18-1.3,24.4l-105,94.5c-7.1,6.4-18,5.8-24.4-1.3l-1.3-1.4c-6.4-7.1-5.8-18,1.3-24.4
			l105-94.5c7.1-6.4,18-5.8,24.4,1.3L3488-571.1z"/>
		<g>
			
				<linearGradient id="SVGID_12_" gradientUnits="userSpaceOnUse" x1="7106.8682" y1="8493.292" x2="7083.9478" y2="8376.7793" gradientTransform="matrix(0.7431 -0.6692 -0.6692 -0.7431 486.0249 4957.0952)">
				<stop  offset="0" style="stop-color:#4F52FF"/>
				<stop  offset="1" style="stop-color:#4042E2"/>
			</linearGradient>
			<path class="st11" d="M3644-239.3c5.5,6.1,5,15.4-1.1,20.9l-0.2,0.2c-6.1,5.5-15.4,5-20.9-1.1L3424-438.9
				c-5.5-6.1-5-15.4,1.1-20.9l0.2-0.2c6.1-5.5,15.4-5,20.9,1.1L3644-239.3z"/>
			
				<linearGradient id="SVGID_13_" gradientUnits="userSpaceOnUse" x1="7173.8691" y1="8480.1045" x2="7150.9487" y2="8363.5918" gradientTransform="matrix(0.7431 -0.6692 -0.6692 -0.7431 486.0249 4957.0952)">
				<stop  offset="0" style="stop-color:#4F52FF"/>
				<stop  offset="1" style="stop-color:#4042E2"/>
			</linearGradient>
			<path class="st12" d="M3695.7-285.9c5.5,6.1,5,15.4-1.1,20.9l-0.2,0.2c-6.1,5.5-15.4,5-20.9-1.1l-197.8-219.6
				c-5.5-6.1-5-15.4,1.1-20.9l0.2-0.2c6.1-5.5,15.4-5,20.9,1.1L3695.7-285.9z"/>
		</g>
	</g>
</g>
<g>
	
		<linearGradient id="SVGID_14_" gradientUnits="userSpaceOnUse" x1="3299.3142" y1="1156.6122" x2="3398.636" y2="833.1797" gradientTransform="matrix(1 0 0 -1 0 792)">
		<stop  offset="0" style="stop-color:#09005D"/>
		<stop  offset="1" style="stop-color:#1A0F91"/>
	</linearGradient>
	<path class="st13" d="M3035.1-384.7l-14,13c-24,22.4-31.3,53.7-16.2,69.9l17.9,19.3c15.1,16.2,46.8,11.2,70.8-11.2l14-13
		c0.9-0.9,1.8-1.7,2.7-2.7l398.3-404.8l-39.1-42l-431.8,368.9C3037-386.4,3036-385.5,3035.1-384.7z M3054.4-366.2
		c18.1-16.9,40.9-21.8,50.9-11.1c10,10.7,3.5,33.1-14.6,50s-40.9,21.8-50.9,11.1C3029.7-326.9,3036.3-349.3,3054.4-366.2z"/>
	
		<linearGradient id="SVGID_15_" gradientUnits="userSpaceOnUse" x1="3555.4824" y1="1374.0779" x2="3550.3889" y2="1226.3685" gradientTransform="matrix(1 0 0 -1 0 792)">
		<stop  offset="0" style="stop-color:#09005D"/>
		<stop  offset="1" style="stop-color:#1A0F91"/>
	</linearGradient>
	<path class="st14" d="M3591.8-909.5l-81.2,75.7c-5.8,5.4-8.7,13.2-8,21l3.8,40.4c1.1,11.5,9.8,20.9,21.2,22.8l40,6.6
		c7.8,1.3,15.8-1.1,21.5-6.5l81.2-75.7c12.3-11.4,32.5-3.2,33,13.5c1.1,40.1-14.8,81-47.1,111.1c-58.4,54.5-141.1,46.4-193.4-9.8
		c-52.4-56.2-54.6-139.2,3.8-193.7c32.3-30.1,74.2-43.1,114.1-39.2C3597.3-941.7,3604.1-920.9,3591.8-909.5z"/>
	
		<linearGradient id="SVGID_16_" gradientUnits="userSpaceOnUse" x1="14446.6836" y1="1626.5743" x2="14370.2822" y2="1476.3185" gradientTransform="matrix(-0.6818 -0.7315 0.7315 -0.6818 14154.1211 5610.3027)">
		<stop  offset="0" style="stop-color:#09005D"/>
		<stop  offset="1" style="stop-color:#1A0F91"/>
	</linearGradient>
	<path class="st15" d="M3598.9-901.8l-81.2,75.7c-5.8,5.4-8.7,13.2-8,21l3.8,40.4c1.1,11.5,9.8,20.9,21.2,22.8l40,6.6
		c7.8,1.3,15.8-1.1,21.5-6.5l81.2-75.7c12.3-11.4,32.5-3.2,33,13.5c1.1,40.1-14.8,81-47.1,111.1c-58.4,54.5-141.1,46.4-193.4-9.8
		c-52.4-56.2-54.6-139.2,3.8-193.7c32.3-30.1,74.2-43.1,114.1-39.2C3604.4-934,3611.2-913.2,3598.9-901.8z"/>
	
		<linearGradient id="SVGID_17_" gradientUnits="userSpaceOnUse" x1="14015.1553" y1="949.4626" x2="13938.7539" y2="799.2065" gradientTransform="matrix(-0.6818 -0.7315 0.9067 -0.8451 14269.1299 5503.1279)">
		<stop  offset="0" style="stop-color:#09005D"/>
		<stop  offset="1" style="stop-color:#1A0F91"/>
	</linearGradient>
	<path class="st16" d="M3040.8-378.6l-14,13c-24,22.4-31.3,53.7-16.2,69.9l17.9,19.3c15.1,16.2,46.8,11.2,70.8-11.2l14-13
		c0.9-0.9,1.8-1.7,2.7-2.7l398.3-404.8l-39.1-42l-431.8,368.9C3042.6-380.3,3041.7-379.4,3040.8-378.6z M3060-360.1
		c18.1-16.9,40.9-21.8,50.9-11.1c10,10.7,3.5,33.1-14.6,50c-18.1,16.9-40.9,21.8-50.9,11.1S3042-343.2,3060-360.1z"/>
</g>
<g>
	<path class="st17" d="M4348.1-450.2c157.2,27.6,319.6,34.8,476.7,2.5c71.1-14.6,140.5-37.3,206.5-67.6
		c102.2-46.9,222.9-100.6,238.3-227.2c8.6-70.8-42.2-105.4-104.4-117.6c-21-4.1-42.3-6.8-63.2-0.8c-19.6,5.7-16.2,13.3-14.7,32
		c1.5,19.4,3,38.8,4.5,58.2c2.6,33.9-48,50-72.3,64.1c-57.4,33.3-118.1,60.8-181.5,80.6c-151.5,47.3-312.7,49.1-469.2,31
		c-51.7-6-92.8,42.6-78.6,92.6C4297.9-475.2,4320.4-455,4348.1-450.2z"/>
	<path class="st17" d="M4476-294.6l-323.3-227.3c-9.8-6.9-8.7-21.8,2-27.2l339.8-170.6c12.6-6.3,27.4,3.3,26.7,17.4
		c-40.9,141.6-45.5,272.9-20.2,395.5C4500.4-294.3,4486.3-287.4,4476-294.6z"/>
</g>
<g>
	<path class="st18" d="M4171.7,1552.3c-147.2,61.5-304.1,104.4-464.4,107.5c-72.6,1.4-145.3-5.4-216.3-20.4
		c-110-23.2-239.6-49-282.5-169.1c-24-67.2,18-112.1,76-137.7c27.2-12,57-22.5,86.1-16.3c-9.1,27.1-18.6,80.6,2.9,103.1
		c15.3,16,65.6,24.2,86.9,30.9c63.3,19.9,128.6,33.3,194.8,38.7c158.2,12.8,315.8-21,464.5-73.1c49.1-17.2,99.9,21.1,97,73
		C4215.1,1516.8,4197.6,1541.5,4171.7,1552.3z"/>
	<path class="st18" d="M4071,1731.7l265.3-292.9c8.1-8.9,3.7-23.2-8-26.1l-369-91.6c-13.7-3.4-26,9.3-22.2,22.9
		c71.1,129.2,104.5,256.1,106.9,381.3C4047.4,1737.3,4062.6,1740.9,4071,1731.7z"/>
</g>
<g>
	<path class="st2" d="M4406.7,436.5c-1,0-2-0.4-2.7-1.2c-3.1-3.5-6.3-7-9.5-10.4c-1.3-1.4-1.3-3.7,0.2-5c1.4-1.3,3.7-1.3,5,0.2
		c3.2,3.5,6.5,7,9.6,10.6c1.3,1.5,1.2,3.7-0.3,5C4408.4,436.2,4407.6,436.5,4406.7,436.5z"/>
	<path class="st2" d="M4015.1,1307.2c-4.1,0-8.1,0-12.2-0.1c-2,0-3.5-1.7-3.5-3.6c0-1.9,1.6-3.5,3.5-3.5h0.1
		c9.5,0.2,19.1,0.2,28.7-0.1c1.8-0.2,3.6,1.5,3.7,3.4c0.1,2-1.5,3.6-3.4,3.7C4026.4,1307.1,4020.7,1307.2,4015.1,1307.2z
		 M4078.7,1303.3c-1.8,0-3.3-1.3-3.5-3.1c-0.2-1.9,1.1-3.7,3.1-4c9.4-1.2,19-2.6,28.4-4.3c1.9-0.3,3.8,0.9,4.1,2.9
		c0.3,1.9-0.9,3.8-2.9,4.1c-9.5,1.7-19.2,3.2-28.8,4.4C4079,1303.3,4078.9,1303.3,4078.7,1303.3z M4153.1,1288.5c-1.6,0-3-1-3.4-2.6
		c-0.5-1.9,0.6-3.8,2.5-4.4c9.2-2.5,18.4-5.3,27.5-8.4c1.9-0.6,3.9,0.4,4.5,2.2c0.6,1.9-0.4,3.9-2.2,4.5c-9.2,3.1-18.6,5.9-27.8,8.5
		C4153.7,1288.5,4153.4,1288.5,4153.1,1288.5z M4224.5,1263.2c-1.4,0-2.7-0.8-3.2-2.1c-0.8-1.8,0-3.9,1.8-4.7
		c8.8-3.8,17.5-7.9,26-12.2c1.8-0.9,3.9-0.2,4.8,1.6c0.9,1.7,0.2,3.9-1.6,4.8c-8.6,4.3-17.4,8.5-26.3,12.4
		C4225.5,1263.1,4225,1263.2,4224.5,1263.2z M4291.6,1228c-1.2,0-2.3-0.6-3-1.7c-1-1.7-0.5-3.9,1.1-4.9c8.1-5,16.2-10.3,23.9-15.8
		c1.6-1.1,3.8-0.7,4.9,0.9c1.1,1.6,0.7,3.8-0.9,4.9c-7.9,5.5-16.1,10.9-24.3,16C4292.9,1227.8,4292.3,1228,4291.6,1228z
		 M4352.9,1183.4c-1,0-2-0.4-2.7-1.3c-1.3-1.5-1.1-3.7,0.4-5c7.3-6.2,14.5-12.6,21.4-19.1c1.4-1.3,3.7-1.3,5,0.1
		c1.3,1.4,1.3,3.7-0.1,5c-7,6.6-14.3,13.1-21.7,19.4C4354.5,1183.2,4353.7,1183.4,4352.9,1183.4z M4407,1130.5
		c-0.8,0-1.7-0.3-2.3-0.9c-1.5-1.3-1.6-3.5-0.3-5c6.3-7.1,12.5-14.5,18.4-22c1.2-1.5,3.4-1.8,5-0.6c1.5,1.2,1.8,3.4,0.6,5
		c-6,7.6-12.2,15.1-18.6,22.3C4409,1130.1,4408,1130.5,4407,1130.5z M4452.9,1070.2c-0.7,0-1.3-0.2-1.9-0.6c-1.6-1.1-2.1-3.3-1-4.9
		c5.2-8,10.3-16.2,15-24.4c1-1.7,3.2-2.3,4.8-1.3c1.7,1,2.3,3.1,1.3,4.8c-4.8,8.4-10,16.7-15.2,24.8
		C4455.2,1069.6,4454.1,1070.2,4452.9,1070.2z M4489.7,1003.9c-0.5,0-1-0.1-1.5-0.3c-1.8-0.8-2.6-2.9-1.7-4.7
		c4-8.7,7.8-17.5,11.4-26.4c0.7-1.8,2.8-2.7,4.6-2c1.8,0.7,2.7,2.8,2,4.6c-3.6,8.9-7.4,17.9-11.5,26.7
		C4492.3,1003.2,4491,1003.9,4489.7,1003.9z M4516.5,933.1c-0.3,0-0.7,0-1-0.1c-1.9-0.6-2.9-2.5-2.4-4.4c2.7-9.1,5.2-18.5,7.4-27.7
		c0.5-1.9,2.4-3.1,4.3-2.6s3.1,2.4,2.6,4.3c-2.2,9.4-4.8,18.8-7.6,28.1C4519.4,932.1,4518,933.1,4516.5,933.1z M4532.9,859.1
		c-0.2,0-0.3,0-0.5,0c-1.9-0.3-3.3-2.1-3-4c1.4-9.4,2.5-19,3.4-28.5c0.2-2,1.9-3.4,3.9-3.2s3.4,1.9,3.2,3.9
		c-0.9,9.6-2,19.3-3.4,28.9C4536.1,857.8,4534.6,859.1,4532.9,859.1z M4538.4,783.4c-2,0-3.5-1.6-3.5-3.5c0-9.6-0.3-19.2-0.8-28.7
		c-0.1-2,1.4-3.6,3.3-3.7c1.9-0.1,3.6,1.4,3.7,3.3c0.5,9.6,0.8,19.4,0.8,29.1C4541.9,781.9,4540.4,783.4,4538.4,783.4z
		 M4532.9,707.9c-1.7,0-3.2-1.3-3.5-3c-1.4-9.4-3.1-19-5-28.3c-0.4-1.9,0.8-3.8,2.8-4.2c1.9-0.4,3.8,0.8,4.2,2.8
		c1.9,9.4,3.6,19.1,5,28.7c0.3,1.9-1.1,3.7-3,4C4533.2,707.8,4533,707.9,4532.9,707.9z M4516.4,633.9c-1.5,0-2.9-1-3.4-2.5
		c-2.7-9.2-5.8-18.3-9-27.3c-0.7-1.8,0.3-3.9,2.1-4.5c1.8-0.7,3.9,0.3,4.5,2.1c3.3,9.1,6.3,18.3,9.1,27.6c0.6,1.9-0.5,3.9-2.4,4.4
		C4517.1,633.8,4516.7,633.9,4516.4,633.9z M4489.5,563c-1.3,0-2.6-0.8-3.2-2.1c-4-8.6-8.3-17.3-12.8-25.7c-0.9-1.7-0.3-3.9,1.5-4.8
		c1.7-0.9,3.9-0.3,4.8,1.5c4.5,8.5,8.9,17.3,13,26c0.8,1.8,0.1,3.9-1.7,4.7C4490.5,562.9,4490,563,4489.5,563z M4452.7,496.7
		c-1.2,0-2.3-0.6-3-1.6c-5.2-7.9-10.7-15.9-16.4-23.6c-1.2-1.6-0.8-3.8,0.8-5s3.8-0.8,5,0.8c5.7,7.8,11.3,15.8,16.6,23.9
		c1.1,1.6,0.6,3.8-1,4.9C4454,496.6,4453.4,496.7,4452.7,496.7z"/>
	<path class="st2" d="M3955.9,1303.8c-0.1,0-0.3,0-0.4,0c-4.7-0.5-9.5-1.1-14.2-1.8c-1.9-0.3-3.3-2.1-3-4c0.3-1.9,2-3.3,4-3
		c4.6,0.7,9.3,1.3,14,1.8c1.9,0.2,3.3,2,3.1,3.9C3959.2,1302.5,3957.7,1303.8,3955.9,1303.8z"/>
</g>
<g>
	<path class="st2" d="M3603.8,1107.7c-1.1,0-2.1-0.5-2.8-1.4c-2.9-3.7-5.8-7.5-8.7-11.3c-1.2-1.6-0.8-3.8,0.7-5
		c1.6-1.2,3.8-0.8,5,0.7c2.8,3.8,5.7,7.5,8.6,11.2c1.2,1.5,0.9,3.8-0.6,5C3605.3,1107.5,3604.5,1107.7,3603.8,1107.7z"/>
	<path class="st2" d="M3569.2,1058.2c-1.2,0-2.4-0.6-3-1.7c-5-8.1-9.8-16.4-14.3-24.8c-0.9-1.7-0.3-3.9,1.4-4.8
		c1.7-0.9,3.9-0.3,4.8,1.4c4.5,8.3,9.2,16.5,14.1,24.5c1,1.7,0.5,3.9-1.2,4.9C3570.5,1058.1,3569.9,1058.2,3569.2,1058.2z
		 M3534.8,992.1c-1.4,0-2.7-0.8-3.3-2.1c-0.8-1.9-1.6-3.8-2.5-5.8c-2.9-6.8-5.6-13.8-8.2-20.8c-0.7-1.8,0.2-3.9,2.1-4.6
		c1.9-0.7,3.9,0.3,4.6,2.1c2.6,6.9,5.3,13.8,8.1,20.5c0.8,1.9,1.6,3.8,2.4,5.7c0.8,1.8,0,3.9-1.8,4.7
		C3535.8,992,3535.3,992.1,3534.8,992.1z M3510,921.7c-1.6,0-3-1-3.4-2.6c-2.5-9.2-4.8-18.5-6.8-27.8c-0.4-1.9,0.8-3.8,2.7-4.2
		c1.9-0.4,3.8,0.8,4.2,2.7c2,9.1,4.3,18.4,6.7,27.4c0.5,1.9-0.6,3.8-2.5,4.4C3510.6,921.7,3510.3,921.7,3510,921.7z M3495.4,848.5
		c-1.8,0-3.3-1.3-3.5-3.1c-1.2-9.4-2.1-19-2.8-28.5c-0.1-2,1.3-3.6,3.3-3.8c1.9-0.1,3.6,1.3,3.8,3.3c0.7,9.3,1.6,18.8,2.7,28.1
		c0.2,1.9-1.1,3.7-3.1,4C3495.7,848.5,3495.6,848.5,3495.4,848.5z M3491.5,774C3491.5,774,3491.4,774,3491.5,774
		c-2,0-3.6-1.7-3.5-3.6c0.2-9.5,0.6-19.1,1.3-28.6c0.1-2,1.8-3.4,3.8-3.3c2,0.1,3.4,1.8,3.3,3.8c-0.7,9.4-1.1,18.9-1.3,28.2
		C3495,772.5,3493.4,774,3491.5,774z M3498.2,699.7c-0.2,0-0.4,0-0.6,0c-1.9-0.3-3.2-2.1-2.9-4.1c1.5-9.4,3.3-18.8,5.4-28.1
		c0.4-1.9,2.3-3.1,4.2-2.7c1.9,0.4,3.1,2.3,2.7,4.2c-2,9.2-3.8,18.5-5.3,27.7C3501.4,698.5,3499.9,699.7,3498.2,699.7z
		 M3515.5,627.2c-0.4,0-0.7-0.1-1.1-0.2c-1.9-0.6-2.9-2.6-2.3-4.4c2.8-9.1,6-18.2,9.3-27.1c0.7-1.8,2.7-2.8,4.6-2.1
		c1.8,0.7,2.8,2.7,2.1,4.6c-3.3,8.8-6.4,17.8-9.2,26.7C3518.4,626.2,3517,627.2,3515.5,627.2z M3542.8,557.8c-0.5,0-1-0.1-1.5-0.3
		c-1.8-0.8-2.5-3-1.7-4.7c4.1-8.6,8.5-17.2,13-25.5c0.9-1.7,3.1-2.4,4.8-1.4c1.7,0.9,2.4,3.1,1.4,4.8c-4.5,8.2-8.8,16.6-12.9,25.1
		C3545.4,557,3544.1,557.8,3542.8,557.8z M3579.6,492.9c-0.7,0-1.4-0.2-2-0.6c-1.6-1.1-2.1-3.3-1-4.9c5.3-7.9,10.8-15.8,16.5-23.4
		c1.2-1.6,3.4-1.9,5-0.7s1.9,3.4,0.7,5c-5.6,7.5-11.1,15.3-16.3,23C3581.9,492.4,3580.8,492.9,3579.6,492.9z M3625.3,434
		c-0.8,0-1.7-0.3-2.4-0.9c-1.5-1.3-1.6-3.5-0.3-5c6.3-7.1,12.9-14,19.7-20.8c1.4-1.4,3.6-1.4,5,0s1.4,3.6,0,5
		c-6.6,6.6-13.2,13.5-19.4,20.5C3627.2,433.6,3626.3,434,3625.3,434z M3678.9,382.2c-1,0-2-0.4-2.7-1.3c-1.3-1.5-1.1-3.7,0.4-5
		c7.3-6.1,14.8-12.1,22.4-17.7c1.6-1.2,3.8-0.9,5,0.7c1.2,1.6,0.9,3.8-0.7,5c-7.5,5.6-14.9,11.5-22.1,17.5
		C3680.5,381.9,3679.7,382.2,3678.9,382.2z M3739.4,338.6c-1.2,0-2.4-0.6-3-1.7c-1-1.7-0.5-3.8,1.2-4.9c8.1-5,16.4-9.8,24.8-14.4
		c1.7-0.9,3.9-0.3,4.8,1.4s0.3,3.9-1.4,4.8c-8.2,4.5-16.5,9.3-24.4,14.2C3740.6,338.4,3740,338.6,3739.4,338.6z M3805.4,304.1
		c-1.4,0-2.7-0.8-3.3-2.1c-0.8-1.8,0-3.9,1.8-4.7c2.3-1,4.6-2,6.8-2.9c6.5-2.7,13.1-5.4,19.7-7.8c1.8-0.7,3.9,0.2,4.6,2.1
		c0.7,1.8-0.2,3.9-2.1,4.6c-6.5,2.4-13,5-19.4,7.7c-2.3,1-4.5,1.9-6.8,2.9C3806.4,304,3805.9,304.1,3805.4,304.1z M3875.7,279.1
		c-1.6,0-3-1-3.4-2.6c-0.5-1.9,0.6-3.8,2.5-4.4c9.2-2.5,18.5-4.9,27.8-6.9c1.9-0.4,3.8,0.8,4.2,2.7s-0.8,3.8-2.7,4.2
		c-9.1,2-18.4,4.3-27.4,6.8C3876.3,279,3876,279.1,3875.7,279.1z M3948.8,264.3c-1.8,0-3.3-1.3-3.5-3.1c-0.2-1.9,1.1-3.7,3.1-4
		c9.4-1.2,19-2.2,28.5-2.8c2-0.2,3.7,1.3,3.8,3.3c0.1,2-1.3,3.7-3.3,3.8c-9.4,0.7-18.8,1.6-28.1,2.8
		C3949.1,264.3,3949,264.3,3948.8,264.3z M4051.7,261.5c-0.1,0-0.2,0-0.3,0c-9.4-0.7-18.8-1.1-28.2-1.2c-2,0-3.5-1.6-3.5-3.6
		c0-1.9,1.6-3.5,3.5-3.5c0,0,0,0,0.1,0c9.5,0.2,19.1,0.6,28.6,1.3c2,0.1,3.4,1.8,3.3,3.8C4055.1,260.1,4053.6,261.5,4051.7,261.5z"
		/>
	<path class="st2" d="M4111.9,269.3c-0.2,0-0.4,0-0.7-0.1c-4.6-0.9-9.2-1.7-13.9-2.4c-1.9-0.3-3.2-2.1-2.9-4.1
		c0.3-1.9,2.1-3.2,4.1-2.9c4.7,0.8,9.4,1.6,14.1,2.5c1.9,0.4,3.2,2.2,2.8,4.1C4115.1,268.1,4113.6,269.3,4111.9,269.3z"/>
</g>
<path class="st19" d="M4408.9,682.8l-32.8-85.6c-1-2.5-3.4-4.1-6.1-4l-76.4,2.6c-20.6-30.4-45.8-56.7-74.2-78.3l6.7-76.2
	c0.2-2.7-1.2-5.2-3.7-6.3l-83.7-37.4c-2.4-1.1-5.3-0.5-7.1,1.4l-52.2,55.9c-35.1-6.7-71.5-7.9-107.9-2.9l-49.1-58.5
	c-1.7-2.1-4.6-2.8-7.1-1.8l-85.6,32.8c-2.5,1-4.1,3.4-4,6.1l2.6,76.4c-30.4,20.6-56.7,45.8-78.3,74.2l-76.2-6.7
	c-2.7-0.2-5.2,1.3-6.3,3.7l-37.4,83.7c-1.1,2.4-0.5,5.3,1.4,7.1l55.9,52.2c-6.7,35.1-7.9,71.5-2.9,107.9l-58.5,49.1
	c-2.1,1.7-2.8,4.6-1.8,7.1l32.8,85.6c1,2.5,3.4,4.1,6.1,4l76.4-2.6c20.6,30.4,45.8,56.7,74.2,78.3l-6.7,76.2
	c-0.2,2.7,1.3,5.2,3.7,6.3l83.7,37.4c2.4,1.1,5.3,0.5,7.1-1.4l52.2-55.9c35.1,6.7,71.5,7.9,107.9,2.9l49.1,58.5
	c1.7,2.1,4.6,2.8,7.1,1.8l85.6-32.8c2.5-1,4.1-3.4,4-6.1l-2.6-76.4c30.4-20.6,56.7-45.8,78.3-74.2l76.2,6.7c2.7,0.2,5.2-1.3,6.3-3.7
	l37.4-83.7c1.1-2.4,0.5-5.3-1.4-7.1l-55.9-52.2c6.7-35.1,7.9-71.5,2.9-107.9l58.5-49.1C4409.1,688.1,4409.8,685.3,4408.9,682.8z
	 M4087.4,734c13.3,19,18.5,42,14.5,64.8s-16.6,42.7-35.6,56.1c-14.8,10.4-32,15.8-49.7,15.8c-5,0-10-0.4-15.1-1.3
	c-22.8-4-42.7-16.6-56.1-35.6c-13.3-19-18.5-42-14.5-64.8s16.6-42.7,35.6-56.1C4005.7,685.5,4059.9,694.9,4087.4,734z M4222.7,878.1
	c-24.7,55.3-69.4,97.6-125.9,119.3c-26.6,10.2-53.9,15-80.8,15c-91.2,0-177.4-55.5-211.9-145.6c-10.2-26.6-15-53.9-15-80.8
	c0-91.2,55.5-177.3,145.6-211.8c3.1-1.2,6.3-2.3,9.4-3.4c10.8-3.6,21.7-6.4,32.8-8.3c1.5-0.3,2.9-0.5,4.4-0.7l1.6,10.5
	c-15.1,2.3-30,6.3-44.4,11.8c-111.2,42.6-167,167.7-124.4,278.9s167.7,167,278.9,124.4c53.9-20.6,96.5-61,120-113.7
	c12.6-28.1,18.9-58,18.9-87.9c0-26.1-4.8-52.2-14.4-77.3c-14-36.6-37.6-68.6-68.2-92.6l6.6-8.4c32.2,25.2,56.9,58.8,71.6,97.2
	c10.1,26.3,15.1,53.8,15.1,81.1C4242.5,817.3,4235.9,848.6,4222.7,878.1z"/>
<path class="st19" d="M4515.6,44.1l-8.3-21.7c-0.2-0.6-0.9-1-1.5-1l-19.3,0.7c-5.2-7.7-11.6-14.4-18.8-19.8l1.7-19.3
	c0.1-0.7-0.3-1.3-0.9-1.6l-21.2-9.5c-0.6-0.3-1.3-0.1-1.8,0.4l-13.2,14.1c-8.9-1.7-18.1-2-27.3-0.7l-12.4-14.8
	c-0.4-0.5-1.2-0.7-1.8-0.5l-21.7,8.3c-0.6,0.2-1,0.9-1,1.5l0.7,19.3c-7.7,5.2-14.4,11.6-19.8,18.8l-19.3-1.7
	c-0.7-0.1-1.3,0.3-1.6,0.9l-9.5,21.2c-0.3,0.6-0.1,1.3,0.4,1.8l14.1,13.2c-1.7,8.9-2,18.1-0.7,27.3l-14.8,12.4
	c-0.5,0.4-0.7,1.2-0.5,1.8l8.3,21.7c0.2,0.6,0.9,1,1.5,1l19.3-0.7c5.2,7.7,11.6,14.4,18.8,19.8l-1.7,19.3c-0.1,0.7,0.3,1.3,0.9,1.6
	l21.2,9.5c0.6,0.3,1.3,0.1,1.8-0.4l13.2-14.1c8.9,1.7,18.1,2,27.3,0.7l12.4,14.8c0.4,0.5,1.2,0.7,1.8,0.5l21.7-8.3
	c0.6-0.2,1-0.9,1-1.5l-0.7-19.3c7.7-5.2,14.4-11.6,19.8-18.8l19.3,1.7c0.7,0.1,1.3-0.3,1.6-0.9l9.5-21.2c0.3-0.6,0.1-1.3-0.4-1.8
	l-14.1-13.2c1.7-8.9,2-18.1,0.7-27.3l14.8-12.4C4515.7,45.4,4515.9,44.7,4515.6,44.1z M4434.2,57c3.4,4.8,4.7,10.6,3.7,16.4
	s-4.2,10.8-9,14.2c-3.7,2.6-8.1,4-12.6,4c-1.3,0-2.5-0.1-3.8-0.3c-5.8-1-10.8-4.2-14.2-9s-4.7-10.6-3.7-16.4s4.2-10.8,9-14.2
	C4413.6,44.8,4427.3,47.1,4434.2,57z M4468.5,93.5c-6.2,14-17.6,24.7-31.9,30.2c-6.7,2.6-13.6,3.8-20.5,3.8
	c-23.1,0-44.9-14-53.6-36.9c-2.6-6.7-3.8-13.6-3.8-20.5c0-23.1,14-44.9,36.8-53.6c0.8-0.3,1.6-0.6,2.4-0.9c2.7-0.9,5.5-1.6,8.3-2.1
	c0.4-0.1,0.7-0.1,1.1-0.2l0.4,2.7c-3.8,0.6-7.6,1.6-11.2,3c-28.2,10.8-42.3,42.5-31.5,70.6c10.8,28.2,42.5,42.3,70.6,31.5
	c13.6-5.2,24.4-15.4,30.4-28.8c3.2-7.1,4.8-14.7,4.8-22.3c0-6.6-1.2-13.2-3.6-19.6c-3.5-9.3-9.5-17.4-17.3-23.4l1.7-2.1
	c8.1,6.4,14.4,14.9,18.1,24.6c2.6,6.7,3.8,13.6,3.8,20.5C4473.5,78.1,4471.8,86,4468.5,93.5z"/>
<g>
	<path class="st2" d="M4587.3-76.2c-0.8,0-1.7-0.3-2.3-1c-2.6-3-5.3-5.9-8-8.8c-1.2-1.2-1.1-3.1,0.1-4.3c1.2-1.2,3.1-1.1,4.3,0.1
		c2.8,2.9,5.6,5.9,8.2,9c1.1,1.3,1,3.2-0.3,4.3C4588.7-76.5,4588-76.2,4587.3-76.2z"/>
	<path class="st2" d="M4416.1,340.4c-1.6,0-2.9-1.2-3-2.8c-0.1-1.7,1.1-3.1,2.8-3.2c7.7-0.6,15.5-1.5,23.1-2.8
		c1.7-0.3,3.2,0.8,3.5,2.5c0.3,1.6-0.8,3.2-2.5,3.5c-7.8,1.3-15.8,2.3-23.7,2.9C4416.3,340.4,4416.2,340.4,4416.1,340.4z
		 M4476.7,328.2c-1.3,0-2.4-0.8-2.9-2.1c-0.5-1.6,0.3-3.3,1.9-3.8c7.1-2.4,14.2-5.1,21.1-8.1l0.6-0.3c1.5-0.7,3.3,0,4,1.5
		c0.7,1.5,0,3.3-1.5,4l-0.7,0.3c-7.1,3.1-14.4,5.9-21.6,8.3C4477.3,328.2,4477,328.2,4476.7,328.2z M4532.5,301.8
		c-1,0-2-0.5-2.5-1.4c-0.9-1.4-0.5-3.3,0.9-4.2c6.5-4.1,13-8.6,19.1-13.4c1.3-1,3.2-0.8,4.2,0.5s0.8,3.2-0.5,4.2
		c-6.3,4.8-12.8,9.5-19.5,13.7C4533.7,301.6,4533.1,301.8,4532.5,301.8z M4580.2,262.5c-0.7,0-1.5-0.3-2.1-0.8
		c-1.2-1.1-1.3-3.1-0.1-4.3c5.3-5.6,10.4-11.6,15.2-17.6c1-1.3,2.9-1.5,4.2-0.5c1.3,1,1.5,2.9,0.5,4.2c-4.9,6.2-10.1,12.3-15.6,18.1
		C4581.8,262.2,4581,262.5,4580.2,262.5z M4616.9,212.8c-0.5,0-1-0.1-1.5-0.4c-1.5-0.8-2-2.7-1.2-4.1c3.8-6.7,7.3-13.7,10.5-20.8
		c0.7-1.5,2.5-2.2,4-1.5s2.2,2.5,1.5,4c-3.2,7.2-6.8,14.4-10.7,21.3C4619,212.2,4617.9,212.8,4616.9,212.8z M4640.4,155.7
		c-0.3,0-0.5,0-0.8-0.1c-1.6-0.4-2.5-2.1-2.1-3.7c2-7.5,3.8-15.1,5.1-22.7c0.3-1.6,1.9-2.7,3.5-2.4c1.6,0.3,2.7,1.9,2.4,3.5
		c-1.4,7.8-3.1,15.7-5.2,23.3C4642.9,154.8,4641.7,155.7,4640.4,155.7z M4649.3,94.5C4649.2,94.5,4649.2,94.5,4649.3,94.5
		c-1.7,0-3.1-1.4-3-3.1c0-1.8,0.1-3.5,0.1-5.3c0-6-0.2-12-0.7-18c-0.1-1.7,1.1-3.1,2.8-3.2c1.6-0.1,3.1,1.1,3.2,2.8
		c0.4,6.1,0.7,12.3,0.7,18.4c0,1.8,0,3.6-0.1,5.4C4652.2,93.2,4650.9,94.5,4649.3,94.5z M4642.9,33.1c-1.4,0-2.6-0.9-2.9-2.3
		c-1.7-7.6-3.9-15.1-6.3-22.4c-0.5-1.6,0.3-3.3,1.9-3.8c1.6-0.5,3.3,0.3,3.8,1.9c2.5,7.5,4.7,15.2,6.4,23c0.4,1.6-0.6,3.2-2.3,3.6
		C4643.4,33,4643.2,33.1,4642.9,33.1z M4621.8-25c-1.1,0-2.2-0.6-2.7-1.6c-3.5-6.9-7.4-13.7-11.5-20.3c-0.9-1.4-0.5-3.3,0.9-4.2
		c1.4-0.9,3.3-0.5,4.2,0.9c4.2,6.7,8.2,13.7,11.8,20.7c0.8,1.5,0.2,3.3-1.3,4.1C4622.8-25.1,4622.3-25,4621.8-25z"/>
	<path class="st2" d="M4377.7,340.2c-0.1,0-0.2,0-0.2,0c-4.1-0.3-8.1-0.8-12.1-1.3c-1.6-0.2-2.8-1.7-2.6-3.4
		c0.2-1.6,1.7-2.8,3.4-2.6c3.9,0.5,7.9,0.9,11.8,1.2c1.7,0.1,2.9,1.6,2.8,3.2C4380.6,339,4379.3,340.2,4377.7,340.2z"/>
</g>
<g>
	<path class="st2" d="M4201.9,247.7c-0.9,0-1.8-0.4-2.3-1.1c-2.6-3.2-5.1-6.4-7.4-9.7c-1-1.3-0.7-3.2,0.7-4.2s3.2-0.7,4.2,0.7
		c2.3,3.1,4.8,6.3,7.3,9.4c1,1.3,0.8,3.2-0.5,4.2C4203.3,247.5,4202.6,247.7,4201.9,247.7z"/>
	<path class="st2" d="M4174.7,206.2c-1.1,0-2.1-0.6-2.7-1.6c-2.8-5.4-5.5-11-7.9-16.6c-0.7-1.6-1.4-3.1-2-4.7
		c-0.6-1.5,0.1-3.3,1.6-3.9s3.3,0.1,3.9,1.6s1.3,3.1,2,4.6c2.4,5.4,5,10.9,7.7,16.2c0.8,1.5,0.2,3.3-1.3,4.1
		C4175.6,206,4175.1,206.2,4174.7,206.2z M4153.1,149.3c-1.4,0-2.6-0.9-2.9-2.3c-1.9-7.6-3.4-15.3-4.6-23c-0.2-1.6,0.9-3.2,2.5-3.4
		c1.7-0.2,3.2,0.9,3.4,2.5c1.1,7.5,2.6,15.1,4.5,22.5c0.4,1.6-0.6,3.3-2.2,3.6C4153.6,149.3,4153.3,149.3,4153.1,149.3z M4145.8,89
		L4145.8,89c-1.7,0-3-1.4-3-3c0-7.8,0.4-15.7,1.1-23.5c0.2-1.7,1.6-2.9,3.3-2.7c1.7,0.2,2.9,1.6,2.7,3.3c-0.7,7.6-1.1,15.3-1.1,22.9
		C4148.8,87.6,4147.5,89,4145.8,89z M4153.3,28.6c-0.2,0-0.5,0-0.7-0.1c-1.6-0.4-2.6-2-2.2-3.7c1.9-7.6,4.1-15.1,6.7-22.5
		c0.5-1.6,2.3-2.4,3.8-1.9c1.6,0.5,2.4,2.3,1.9,3.8c-2.5,7.2-4.7,14.6-6.6,22C4155.9,27.7,4154.6,28.6,4153.3,28.6z M4175-28.2
		c-0.5,0-1-0.1-1.4-0.3c-1.5-0.8-2-2.6-1.3-4.1c3.6-6.9,7.6-13.7,11.9-20.2c0.9-1.4,2.8-1.8,4.2-0.9s1.8,2.8,0.9,4.2
		c-4.1,6.4-8,13-11.6,19.8C4177.1-28.7,4176-28.2,4175-28.2z M4209.6-78.1c-0.7,0-1.4-0.3-2-0.8c-1.2-1.1-1.4-3-0.3-4.3
		c5.2-5.8,10.7-11.5,16.4-16.8c1.2-1.1,3.1-1.1,4.3,0.1c1.1,1.2,1.1,3.1-0.1,4.3c-5.6,5.2-10.9,10.7-16,16.4
		C4211.2-78.5,4210.4-78.1,4209.6-78.1z M4255.2-118.3c-1,0-1.9-0.5-2.5-1.3c-0.9-1.4-0.6-3.3,0.8-4.2c6.4-4.4,13.1-8.5,20-12.4
		c1.5-0.8,3.3-0.3,4.1,1.2c0.8,1.5,0.3,3.3-1.2,4.1c-6.7,3.7-13.2,7.8-19.5,12.1C4256.3-118.5,4255.7-118.3,4255.2-118.3z
		 M4309.1-146.3c-1.2,0-2.4-0.7-2.8-2c-0.6-1.6,0.2-3.3,1.8-3.9c7.3-2.7,14.8-5.2,22.3-7.3c1.6-0.4,3.3,0.5,3.7,2.1
		s-0.5,3.3-2.1,3.7c-7.3,2-14.7,4.4-21.8,7.1C4309.8-146.4,4309.4-146.3,4309.1-146.3z M4368.1-160.7c-1.5,0-2.8-1.1-3-2.7
		c-0.2-1.7,1-3.2,2.6-3.3c7.7-0.9,15.6-1.5,23.4-1.7c1.6,0,3,1.3,3.1,2.9c0,1.7-1.3,3-2.9,3.1c-7.6,0.2-15.3,0.7-22.9,1.6
		C4368.4-160.7,4368.2-160.7,4368.1-160.7z"/>
	<path class="st2" d="M4441-158.7c-0.2,0-0.3,0-0.5,0c-3.8-0.7-7.8-1.3-11.8-1.8c-1.7-0.2-2.8-1.7-2.6-3.4c0.2-1.7,1.7-2.8,3.4-2.6
		c4.1,0.5,8.1,1.1,12.1,1.8c1.6,0.3,2.7,1.9,2.4,3.5C4443.7-159.7,4442.4-158.7,4441-158.7z"/>
</g>
<linearGradient id="SVGID_18_" gradientUnits="userSpaceOnUse" x1="14379.8145" y1="-59.4" x2="14565.0146" y2="-59.4" gradientTransform="matrix(-1 0 0 -1 19835.0137 792)">
	<stop  offset="0" style="stop-color:#FEBBBA"/>
	<stop  offset="1" style="stop-color:#FF928E"/>
</linearGradient>
<path class="st20" d="M5388.6,756c19,20.3,47,37.8,66.6,48.7c-29.4,36.3-69.2,72.7-121.8,108.3l-15.1,33.8l-48.3-57.9
	C5270.1,888.9,5356.8,845.8,5388.6,756z"/>
<path class="st17" d="M4945.6,435.8c15.6-19.5,29.2-40.4,40.6-62c15.9-30.1,74.9-55.3,79.2-89.3c107.7,18.7,216.5,24.7,294.8,41
	c22.5,4.7,43.6,14.1,58.6,31.5c59.5,68.9,190.2,257.6,36.4,447.7c-19.7-10.9-47.6-28.4-66.6-48.7c17-48,18.4-109.3-17.3-184.4
	c-1.2,6-2.7,11.9-4.6,17.7c-49.1,155.7-51.8,285.3-51.7,315.1c0,4.1-2.4,7.7-6.2,9.2c-64.7,25.9-189.2,10.5-231,4.3
	c-7.7-1.1-12.8-8.3-11.8-16c20.5-148.6-84.8-393.1-112.6-454.3C4951.7,443.1,4948.9,439.2,4945.6,435.8z"/>
<linearGradient id="SVGID_19_" gradientUnits="userSpaceOnUse" x1="5249.8711" y1="680.5391" x2="5190.6597" y2="458.9745" gradientTransform="matrix(1 0 0 -1 0 792)">
	<stop  offset="0" style="stop-color:#FEBBBA"/>
	<stop  offset="1" style="stop-color:#FF928E"/>
</linearGradient>
<path class="st21" d="M5248.4,182.6l12.5,127.4c0,0-73,25.2-125.1-11.5l37.9-119.4L5248.4,182.6z"/>
<path class="st22" d="M5379.2,556.4c21.6-62.2,17.1-134.3,15.6-151.2c-0.2-2-2-3.5-4-3.3l0,0c-1.9,0.2-3.4,1.9-3.2,3.9
	c1.4,16.4,5.9,87.3-15.3,148.2c-0.6,1.9,0.3,3.9,2.1,4.6l0,0C5376.4,559.3,5378.5,558.3,5379.2,556.4z"/>
<g>
	<path class="st17" d="M4660.2,441.8c123,61.6,222.9-64.9,288.4-116.5c86.5-68.2,153.8-35,153.8-35l-92.3,176.1
		c-164,198.5-289.1,112.5-368.1,59C4640.6,491.3,4649.7,462.8,4660.2,441.8z"/>
	<path class="st17" d="M4561.7,410.6L4561.7,410.6c62.5,21.2,55.2,24.7,98.5,31.2c-10.4,21-19.5,49.5-18.2,83.5
		c-56.7-26.8-92.2-59-92.2-59c-16.9-8.1-11-34.6-5.2-51.5C4547.1,407.6,4556.1,405.4,4561.7,410.6z"/>
</g>
<g>
	
		<linearGradient id="SVGID_20_" gradientUnits="userSpaceOnUse" x1="9465.6914" y1="-5027.4312" x2="9409.6172" y2="-4842.4824" gradientTransform="matrix(-0.746 -0.6659 0.6659 -0.746 15526.9404 2740.0388)">
		<stop  offset="0" style="stop-color:#FEBBBA"/>
		<stop  offset="1" style="stop-color:#FF928E"/>
	</linearGradient>
	<path class="st23" d="M5146.5,69.7c0,0-54.2,102-47.2,143.2c6.9,41.2,74.1,38.2,132.7,4.8l41-110.1L5146.5,69.7z"/>
	
		<linearGradient id="SVGID_21_" gradientUnits="userSpaceOnUse" x1="9409.8926" y1="-4706.0962" x2="9456.7988" y2="-4973.6357" gradientTransform="matrix(-0.746 -0.6659 0.6659 -0.746 15526.9404 2740.0388)">
		<stop  offset="0" style="stop-color:#09005D"/>
		<stop  offset="1" style="stop-color:#1A0F91"/>
	</linearGradient>
	<path class="st24" d="M5229.4,163.6c-2.4-1.1-3.3-4-1.8-6.2c4.3-6.6,12.5-20.2,15.1-32c0,0,9.7-6.2-24.8-14.5s-86-21.1-96.8-50.5
		c-10.6-28.7,46-65.9,90.3-8.4c1.7,2.2-23.9-32.6-22.2-34.8c7.3-9.4,26.3-29,52.8-17.2c24.8,11.1,27.6,29.3,27.2,38.4
		c-0.1,2.7,2.3,4.8,5,4.3c12.5-2.4,42.6-4.4,56.6,26.4c11.6,25.4,4,39.8-2.8,46.8c-2.2,2.3-1.2,6,1.8,7c8.2,2.5,5.5-1.5,4.4,17.8
		c-1.5,26.7-17.9,35.3-26.4,34.1c-1.4-0.2-2.8,0.3-3.7,1.3c-7.3,8.1-40.1,42.2-75.5,46.4c-3.1,0.4-5.5-2.7-4.4-5.6l15.4-44.6
		c0.7-2.1-0.3-4.3-2.3-5.2L5229.4,163.6z"/>
	
		<linearGradient id="SVGID_22_" gradientUnits="userSpaceOnUse" x1="9408.3701" y1="-5026.5703" x2="9357.918" y2="-4860.1675" gradientTransform="matrix(-0.746 -0.6659 0.6659 -0.746 15526.9404 2740.0388)">
		<stop  offset="0" style="stop-color:#FEBBBA"/>
		<stop  offset="1" style="stop-color:#FF928E"/>
	</linearGradient>
	<path class="st25" d="M5223.3,169.9c0,0,38.6-26.5,41.4-4.2c2.8,22.3-34.7,32.3-53.3,24L5223.3,169.9z"/>
</g>
<g>
	<path class="st7" d="M5212.1,1369.7l25.3,34.4c43.5,59.1,111,83.3,150.8,54l47.4-34.8c39.8-29.3,36.9-101-6.5-160.1l-25.3-34.4
		c-1.7-2.3-3.4-4.5-5.2-6.7l-794.8-988.6l-103.2,75.9l706.6,1053.4C5208.8,1365.1,5210.4,1367.4,5212.1,1369.7z M5258.1,1331.7
		c-32.7-44.5-37.8-96.3-11.4-115.8c26.4-19.4,74.4,0.9,107.1,45.4c32.7,44.5,37.8,96.3,11.4,115.8
		C5338.8,1396.5,5290.8,1376.2,5258.1,1331.7z"/>
	<path class="st7" d="M4192-1.3l146.9,199.8c10.5,14.2,26.9,22.8,44.6,23.2l90.5,2c25.8,0.6,48.8-16.3,56-41.2l25.1-87
		c4.9-17,1.6-35.2-8.8-49.5l-146.9-199.8c-22.2-30.1,1.3-73,38.6-69.6c89.1,8,175.8,53.9,234.2,133.4
		c105.7,143.7,66.3,325-71.9,426.6c-138.2,101.6-323,85.2-428.6-58.5c-58.5-79.5-76.4-175.9-57.5-263.4
		C4122-21.8,4169.9-31.5,4192-1.3z"/>
	<path class="st26" d="M4210.9-15.2l146.9,199.8c10.5,14.2,26.9,22.8,44.6,23.2l90.5,2c25.8,0.6,48.8-16.3,56-41.2l25.1-87
		c4.9-17,1.6-35.2-8.8-49.5l-146.9-199.8c-22.2-30.1,1.3-73,38.6-69.6c89.1,8,175.8,53.9,234.2,133.4
		c105.7,143.7,66.3,325-71.9,426.6c-138.2,101.6-323,85.2-428.6-58.5c-58.5-79.5-76.4-175.9-57.5-263.4
		C4140.8-35.7,4188.7-45.3,4210.9-15.2z"/>
	<g>
		<path class="st26" d="M5227.1,1358.7l25.3,34.4c43.5,59.1,111,83.3,150.8,54l47.4-34.8c39.8-29.3,36.9-101-6.5-160.1l-25.3-34.4
			c-1.7-2.3-3.4-4.5-5.2-6.7l-794.8-988.6l-103.2,75.9l706.6,1053.4C5223.8,1354.1,5225.5,1356.4,5227.1,1358.7z M5273.1,1320.7
			c-32.7-44.5-37.8-96.3-11.4-115.8c26.4-19.4,74.4,0.9,107.1,45.4c32.7,44.5,37.8,96.3,11.4,115.8
			C5353.8,1385.5,5305.8,1365.2,5273.1,1320.7z"/>
	</g>
</g>
<linearGradient id="SVGID_23_" gradientUnits="userSpaceOnUse" x1="4536.6333" y1="350.099" x2="4619.6929" y2="350.099" gradientTransform="matrix(1 0 0 -1 0 792)">
	<stop  offset="0" style="stop-color:#FEBBBA"/>
	<stop  offset="1" style="stop-color:#FF928E"/>
</linearGradient>
<path class="st27" d="M4539,461.8l6.9,14.5c1.1,2.3,3.3,3.9,5.8,4.2c21.6,2.3,41.5-0.5,60.3-7.1c6.6-2.3,9.7-10.1,6.3-16.2
	c-7.8-14.2-17.2-28-28.6-41.1c-3.7-4.3-8.6-7.4-14-8.9l-15.2-4.2c-6.3-1.7-13.1,1.1-16.1,7c-6.9,13.6-9,29-7.1,46
	C4537.5,457.9,4538.1,459.9,4539,461.8z"/>
<linearGradient id="SVGID_24_" gradientUnits="userSpaceOnUse" x1="14554.3936" y1="-1011.9808" x2="14693.2148" y2="-1011.9808" gradientTransform="matrix(-1 0 0 -1 19835.0137 792)">
	<stop  offset="0" style="stop-color:#09005D"/>
	<stop  offset="1" style="stop-color:#1A0F91"/>
</linearGradient>
<path class="st28" d="M5141.8,1853.4c0-1,0.1-2.1,0.3-3.1c15.6-62,93.2-100.6,93.2-100.6l30.8,2.4c17.7,54.6,15.4,88.1,12.6,103.1
	c-0.1,0.4-0.2,0.8-0.3,1.2C5253,1858.6,5200.7,1860.1,5141.8,1853.4z"/>
<path class="st0" d="M5278.3,1856.3c-1.4,5-5,8.9-9.8,9.9c-36.1,7.6-93.4,1.5-117.5-1.7c-5.3-0.7-9.2-5.6-9.3-11.2
	C5200.7,1860.1,5253,1858.6,5278.3,1856.3z"/>
<linearGradient id="SVGID_25_" gradientUnits="userSpaceOnUse" x1="14784.7148" y1="-1012.3402" x2="14977.1143" y2="-1012.3402" gradientTransform="matrix(-1 0 0 -1 19835.0137 792)">
	<stop  offset="0" style="stop-color:#09005D"/>
	<stop  offset="1" style="stop-color:#1A0F91"/>
</linearGradient>
<path class="st29" d="M4857.9,1844.5c0.2-0.4,0.4-0.9,0.7-1.3c15.9-21.5,56.2-64.2,136-82.8l38.3-1.2c0,0,17,28.7,17.4,81.9
	c-8.7,3.5-25.7,7.2-58.3,8.1C4941.4,1850.6,4881.4,1846.4,4857.9,1844.5z"/>
<linearGradient id="SVGID_26_" gradientUnits="userSpaceOnUse" x1="5341.1245" y1="502.275" x2="5081.3594" y2="-1117.4302" gradientTransform="matrix(1 0 0 -1 0 792)">
	<stop  offset="0" style="stop-color:#09005D"/>
	<stop  offset="1" style="stop-color:#1A0F91"/>
</linearGradient>
<path class="st30" d="M5079,876.9c0,0-107.1,399.8-105.4,891.2c0,9,17.1,7.4,25.3,9.3c12.1,2.7,29.8,6,44.5,5.5
	c7.8-0.2,14.4-6.5,15.7-14.7c13.4-84.5,90.6-560.5,134.6-637.8c0,0,16.9,421.1,7.6,641.1c-0.2,5.5,15.6,13.1,20.6,13.7
	c7.7,1,20,1.7,35.7-0.1c6-0.7,22.2,7.1,23,0.7c9.6-71.5,53.3-509.8,51-816.4c-0.1-17.3-42.7-92.5-42.7-92.5H5079z"/>
<linearGradient id="SVGID_27_" gradientUnits="userSpaceOnUse" x1="14659.9775" y1="-173.6998" x2="14588.8564" y2="-300.2713" gradientTransform="matrix(-1 0 0 -1 19835.0137 792)">
	<stop  offset="0" style="stop-color:#09005D"/>
	<stop  offset="1" style="stop-color:#1A0F91"/>
</linearGradient>
<path class="st31" d="M5197.1,1104.2c1.6,0,3.1-1.1,3.5-2.7c8-30.7,67.5-64.4,68.1-64.7c1.7-1,2.4-3.2,1.4-4.9s-3.2-2.4-4.9-1.4
	c-2.6,1.4-62.8,35.6-71.6,69.2c-0.5,1.9,0.7,3.9,2.6,4.4C5196.5,1104.1,5196.8,1104.2,5197.1,1104.2z"/>
<linearGradient id="SVGID_28_" gradientUnits="userSpaceOnUse" x1="5274.438" y1="513.1524" x2="5014.6055" y2="-1106.9722" gradientTransform="matrix(1 0 0 -1 0 792)">
	<stop  offset="0" style="stop-color:#09005D"/>
	<stop  offset="1" style="stop-color:#1A0F91"/>
</linearGradient>
<path class="st32" d="M5074.8,526.3h149.6c8.9,0,30.4,6.1,32.4,14.8l55.4,145.8l11.8,95.3l7.5,187.1l-271.9-10.6l-18.4-271.8
	l25.3-153.6C5067.2,529.3,5070.7,526.3,5074.8,526.3z"/>
<linearGradient id="SVGID_29_" gradientUnits="userSpaceOnUse" x1="5113.3271" y1="539.6373" x2="4847.2793" y2="-1119.2413" gradientTransform="matrix(1 0 0 -1 0 792)">
	<stop  offset="0" style="stop-color:#09005D"/>
	<stop  offset="1" style="stop-color:#1A0F91"/>
</linearGradient>
<path class="st33" d="M5071.5,555.3l-5.1-271c0-2.3,2-4.1,4.3-3.7l34.8,5.6c4,0.6,6.9,4.2,6.7,8.3l-5.6,260.5c0,2.1-1.8,3.8-3.9,3.8
	H5075C5073.1,558.8,5071.5,557.3,5071.5,555.3z"/>
<linearGradient id="SVGID_30_" gradientUnits="userSpaceOnUse" x1="5294.1392" y1="512.723" x2="5008.439" y2="-1268.6915" gradientTransform="matrix(1 0 0 -1 0 792)">
	<stop  offset="0" style="stop-color:#09005D"/>
	<stop  offset="1" style="stop-color:#1A0F91"/>
</linearGradient>
<path class="st34" d="M5221.7,560.2c-3.5-0.8-5.6-4.2-4.9-7.7l52.8-235.5c1-3.8,4.7-6.3,8.6-5.9l35.3,3.4c5.1,0.5,8.4,5.7,6.7,10.5
	l-72.1,235.8c-0.9,2.8-3.8,4.5-6.6,3.9L5221.7,560.2z"/>
<linearGradient id="SVGID_31_" gradientUnits="userSpaceOnUse" x1="5141.1787" y1="389.9746" x2="5110.6187" y2="303.3865" gradientTransform="matrix(1 0 0 -1 0 792)">
	<stop  offset="0" style="stop-color:#4F52FF"/>
	<stop  offset="1" style="stop-color:#4042E2"/>
</linearGradient>
<circle class="st35" cx="5091.6" cy="542.5" r="9.2"/>
<linearGradient id="SVGID_32_" gradientUnits="userSpaceOnUse" x1="5282.4873" y1="388.098" x2="5251.9268" y2="301.5099" gradientTransform="matrix(1 0 0 -1 0 792)">
	<stop  offset="0" style="stop-color:#4F52FF"/>
	<stop  offset="1" style="stop-color:#4042E2"/>
</linearGradient>
<circle class="st36" cx="5232.9" cy="544.4" r="9.2"/>
<linearGradient id="SVGID_33_" gradientUnits="userSpaceOnUse" x1="5431.4746" y1="1869.6215" x2="5330.3125" y2="1203.637" gradientTransform="matrix(1 0 0 -1 0 792)">
	<stop  offset="0" style="stop-color:#53D8FF"/>
	<stop  offset="1" style="stop-color:#3840F7"/>
</linearGradient>
<path class="st37" d="M5090.6,610v153.7c0,4,3.1,7.2,7.1,7.3l130.5,4c4.1,0.1,7.5-3.2,7.5-7.3V610c0-4-3.3-7.3-7.3-7.3H5098
	C5093.9,602.7,5090.6,606,5090.6,610z"/>
</svg>
