<?xml version="1.0" encoding="utf-8"?>
<!-- Generator: Adobe Illustrator 25.2.0, SVG Export Plug-In . SVG Version: 6.00 Build 0)  -->
<svg version="1.1" xmlns="http://www.w3.org/2000/svg" xmlns:xlink="http://www.w3.org/1999/xlink" x="0px" y="0px"
	 viewBox="0 0 194.5 381.6" style="enable-background:new 0 0 194.5 381.6;" xml:space="preserve">
<style type="text/css">
	.st0{fill:#403B47;}
	.st1{fill:#000035;}
	.st2{fill:#C9B866;}
	.st3{fill:#000059;}
	.st4{fill:url(#SVGID_1_);}
	.st5{filter:url(#Adobe_OpacityMaskFilter);}
	.st6{mask:url(#SVGID_2_);}
	.st7{fill:#FFFFFF;}
	.st8{fill:url(#SVGID_3_);}
	.st9{fill:url(#SVGID_4_);}
	.st10{fill:none;stroke:#262227;stroke-miterlimit:10;}
	.st11{fill:url(#SVGID_5_);}
	.st12{fill:url(#SVGID_6_);}
	.st13{fill:url(#SVGID_7_);}
	.st14{filter:url(#Adobe_OpacityMaskFilter_1_);}
	.st15{mask:url(#SVGID_8_);}
	.st16{fill:url(#SVGID_9_);}
	.st17{fill:#262227;}
	.st18{fill:none;}
	.st19{fill:#898B8E;}
	.st20{fill:url(#SVGID_10_);}
	.st21{fill:url(#SVGID_11_);}
	.st22{fill:url(#SVGID_12_);}
	.st23{fill:url(#SVGID_13_);}
	.st24{fill:url(#SVGID_14_);}
	.st25{fill:url(#SVGID_15_);}
	.st26{filter:url(#Adobe_OpacityMaskFilter_2_);}
	.st27{mask:url(#SVGID_16_);}
	.st28{fill:url(#SVGID_17_);}
	.st29{fill:url(#SVGID_18_);}
	.st30{fill:url(#SVGID_19_);}
	.st31{fill:url(#SVGID_20_);}
	.st32{fill:url(#SVGID_21_);}
</style>
<g id="Layer_2">
</g>
<g id="OBJECTS">
	<path class="st0" d="M176.7,382.5"/>
	<polygon class="st1" points="43.9,156 66.1,191.2 81.9,172.8 95.1,141.5 57.1,70.3 	"/>
	<polygon class="st1" points="109.5,122.5 87.3,171.7 107.4,213.9 137.3,234.6 162.1,196.8 	"/>
	<polygon class="st1" points="46.7,335 114,268.2 100.3,220.5 66.3,260 	"/>
	<polygon class="st1" points="139.3,236.2 175.6,264.8 164.7,195.8 	"/>
	<polygon class="st1" points="99.5,217.4 66.9,199.3 67,252.4 	"/>
	<polygon class="st1" points="179.7,305.7 173.7,265.9 114.8,268.8 	"/>
	<polygon class="st1" points="135.5,236 114.2,268.8 172.8,264.4 	"/>
	<polygon class="st1" points="164.7,194.9 189.7,106.9 130.4,76.1 110.2,120 	"/>
	<polygon class="st1" points="42.1,157.7 -0.2,154.7 0,182.3 0.2,198.7 0.8,300.1 	"/>
	<path class="st0" d="M16.6,2.8"/>
	<polygon class="st1" points="65.3,255.3 65.5,195.8 42.8,160.3 0,310.9 0.8,363.5 	"/>
	<polygon class="st1" points="166.4,195.8 177.3,264.8 194.2,264.3 194.2,265.1 192.8,174.6 192.7,164.5 191.8,106.3 	"/>
	<polygon class="st1" points="46.7,340 64.1,373.2 77,335 	"/>
	<polygon class="st1" points="66.3,192.9 83.2,173.5 102.2,213.5 	"/>
	<polygon class="st1" points="96,139 125.9,73.5 58.7,68.9 	"/>
	<polygon class="st1" points="41.2,152.3 54.6,68.9 30,58 	"/>
	<polygon class="st1" points="148.5,381.6 136.1,337.5 79.3,335 65.2,381.3 	"/>
	<polygon class="st1" points="103.2,216.1 114.2,268.8 133.7,234.8 	"/>
	<path class="st1" d="M39.8,154.7L28,57L-0.6,46.6c-0.1,1,0,3.9,0,4.9l0,51.6V152L39.8,154.7z"/>
	<path class="st1" d="M20.3,381.6c2.5,0.3,44.3-0.1,44.3-0.1L42.5,340L1,368.3C1,368.3,4.1,379.7,20.3,381.6z"/>
	<path class="st1" d="M5.8,45.5l54,20.1l67.3,4.7l-11.5-69c0,0-62.6,0-93.9,0C5.2,1.4,0.8,19.9,0.8,27.8C0.7,36,1,43.1,1,43.8
		L5.8,45.5z"/>
	<polygon class="st1" points="177.1,266.9 182.8,302.8 193,322.1 194.5,313.1 194.2,295.9 193.8,266.4 	"/>
	<path class="st1" d="M177.6,309.9l-31.4,24.9l-6.5,3.3l12.6,45c0,0,19.4,0.9,20.6-0.2c11.2-1.7,13.9-6.1,16.1-9.6
		c3.9-6.2,4.6-12.8,4.5-19l0-27.6L177.6,309.9z"/>
	<polygon class="st1" points="42.3,335 61.1,263.4 0.3,365.9 	"/>
	<path class="st1" d="M128.7,71.6l62.9,32.9V71.4V18.1c0-10.5-9.2-15.9-13-16.7c-12-2.4-57-0.7-61.1-1.4c-0.1,0-0.2,0.1-0.2,0.2
		L128.7,71.6z"/>
	<polygon class="st1" points="143.8,332 175.3,307.1 114.8,268.8 137.8,335 	"/>
	<polygon class="st1" points="134.4,335.6 114.8,268.8 80.5,333.1 	"/>
	<polygon class="st1" points="51.4,335 77,331.6 114.2,268.8 	"/>
	<g>
		
			<image style="overflow:visible;opacity:0.55;" width="368" height="399" xlink:href="DD5FA9B3.png"  transform="matrix(0.24 0 0 0.24 3.935 3.7659)">
		</image>
		<g>
			<path class="st2" d="M10.1,76V27.2c0-9.6,7.8-17.4,17.4-17.4h41.3c9.6,0,17.4,7.8,17.4,17.4V76c0,9.6-7.8,17.4-17.4,17.4H27.4
				C17.9,93.3,10.1,85.6,10.1,76z"/>
		</g>
	</g>
	<g>
		
			<image style="overflow:visible;opacity:0.55;" width="357" height="388" xlink:href="DD5FA9B1.png"  transform="matrix(0.24 0 0 0.24 5.375 4.9659)">
		</image>
		<g>
			<path class="st3" d="M68.6,92h-41c-8.9,0-16.2-7.2-16.2-16.2V27.4c0-8.9,7.2-16.2,16.2-16.2h41c8.9,0,16.2,7.2,16.2,16.2v48.5
				C84.8,84.8,77.6,92,68.6,92z"/>
		</g>
	</g>
	<linearGradient id="SVGID_1_" gradientUnits="userSpaceOnUse" x1="90.0436" y1="9.6699" x2="42.9768" y2="56.7367">
		<stop  offset="5.935250e-02" style="stop-color:#FFFFFF"/>
		<stop  offset="1" style="stop-color:#FFFFFF;stop-opacity:0"/>
	</linearGradient>
	<path class="st4" d="M66.5,92H29.8c-10.1,0-18.4-8.2-18.4-18.4V29.5c0-5.8,2.7-10.9,6.8-14.3c-0.5-0.1,62.5,70,62.5,70
		C77.3,89.4,72.2,92,66.5,92z"/>
	<g>
		<defs>
			<filter id="Adobe_OpacityMaskFilter" filterUnits="userSpaceOnUse" x="29.8" y="27.3" width="1" height="0.8">
				<feFlood  style="flood-color:white;flood-opacity:1" result="back"/>
				<feBlend  in="SourceGraphic" in2="back" mode="normal"/>
			</filter>
		</defs>
		<mask maskUnits="userSpaceOnUse" x="29.8" y="27.3" width="1" height="0.8" id="SVGID_2_">
			<g class="st5">
				
					<image style="overflow:visible;" width="22" height="21" xlink:href="DD5FA9B7.jpg"  transform="matrix(0.24 0 0 0.24 27.5836 25.2377)">
				</image>
			</g>
		</mask>
		<g class="st6">
			<path class="st7" d="M30.8,27.7c0-0.2-0.2-0.4-0.5-0.4c-0.3,0-0.5,0.2-0.5,0.4c0,0.2,0.2,0.4,0.5,0.4
				C30.6,28.1,30.8,27.9,30.8,27.7z"/>
		</g>
	</g>
	<linearGradient id="SVGID_3_" gradientUnits="userSpaceOnUse" x1="51.7709" y1="64.9653" x2="78.3811" y2="38.355">
		<stop  offset="0.1061" style="stop-color:#C9B866"/>
		<stop  offset="1" style="stop-color:#D6BC56"/>
	</linearGradient>
	<circle class="st8" cx="65.5" cy="51.2" r="16.7"/>
	<linearGradient id="SVGID_4_" gradientUnits="userSpaceOnUse" x1="52.3393" y1="64.3968" x2="77.847" y2="38.8891">
		<stop  offset="7.733810e-02" style="stop-color:#262227"/>
		<stop  offset="1" style="stop-color:#48484B"/>
	</linearGradient>
	<circle class="st9" cx="65.5" cy="51.2" r="16"/>
	
		<ellipse transform="matrix(0.9627 -0.2705 0.2705 0.9627 -11.4189 19.6216)" class="st10" cx="65.5" cy="51.2" rx="15.2" ry="15.2"/>
	<linearGradient id="SVGID_5_" gradientUnits="userSpaceOnUse" x1="54.2125" y1="62.5237" x2="76.087" y2="40.6491">
		<stop  offset="0" style="stop-color:#48484B"/>
		<stop  offset="0.9227" style="stop-color:#262227"/>
	</linearGradient>
	<circle class="st11" cx="65.5" cy="51.2" r="13.7"/>
	<linearGradient id="SVGID_6_" gradientUnits="userSpaceOnUse" x1="54.6" y1="62.1361" x2="75.7228" y2="41.0133">
		<stop  offset="7.733810e-02" style="stop-color:#262227"/>
		<stop  offset="1" style="stop-color:#48484B"/>
	</linearGradient>
	<circle class="st12" cx="65.5" cy="51.2" r="13.2"/>
	<linearGradient id="SVGID_7_" gradientUnits="userSpaceOnUse" x1="59.3928" y1="57.3434" x2="74.4249" y2="42.3113">
		<stop  offset="0" style="stop-color:#48484B"/>
		<stop  offset="0.9227" style="stop-color:#262227"/>
	</linearGradient>
	<circle class="st13" cx="65.5" cy="51.2" r="7.4"/>
	<g>
		<defs>
			<filter id="Adobe_OpacityMaskFilter_1_" filterUnits="userSpaceOnUse" x="65.5" y="48.1" width="1" height="0.8">
				<feFlood  style="flood-color:white;flood-opacity:1" result="back"/>
				<feBlend  in="SourceGraphic" in2="back" mode="normal"/>
			</filter>
		</defs>
		<mask maskUnits="userSpaceOnUse" x="65.5" y="48.1" width="1" height="0.8" id="SVGID_8_">
			<g class="st14">
				
					<image style="overflow:visible;" width="22" height="21" xlink:href="DD5FA9B1.jpg"  transform="matrix(0.24 0 0 0.24 63.3436 46.1177)">
				</image>
			</g>
		</mask>
		<g class="st15">
			<path class="st7" d="M66.5,48.5c0-0.2-0.2-0.4-0.5-0.4c-0.3,0-0.5,0.2-0.5,0.4c0,0.2,0.2,0.4,0.5,0.4
				C66.3,49,66.5,48.8,66.5,48.5z"/>
		</g>
	</g>
	<g>
		<linearGradient id="SVGID_9_" gradientUnits="userSpaceOnUse" x1="63.235" y1="81.1614" x2="68.3591" y2="76.0374">
			<stop  offset="0" style="stop-color:#48484B"/>
			<stop  offset="0.9227" style="stop-color:#262227"/>
		</linearGradient>
		<path class="st16" d="M69.1,78.5c0-1.8-1.4-3.2-3.2-3.2c-1.8,0-3.2,1.4-3.2,3.2c0,1.8,1.4,3.2,3.2,3.2
			C67.7,81.7,69.1,80.3,69.1,78.5z"/>
		<path class="st17" d="M68.7,78.5c0-1.5-1.2-2.8-2.8-2.8c-1.5,0-2.8,1.2-2.8,2.8c0,1.5,1.2,2.8,2.8,2.8
			C67.4,81.3,68.7,80.1,68.7,78.5z"/>
		<g>
			<path class="st18" d="M64.5,76.4c-0.1,0-0.2,0-0.3,0c0,0.1,0,0.2,0,0.3c0.1,0,0.2,0,0.3,0C64.5,76.6,64.5,76.5,64.5,76.4z"/>
			<path class="st18" d="M66.8,78.1c-0.1,0-0.2,0-0.4,0c0,0.1,0,0.2,0,0.4c0.1,0,0.2,0,0.4,0C66.8,78.3,66.8,78.2,66.8,78.1z"/>
			<path class="st18" d="M64.1,76.8c-0.1,0-0.2,0-0.3,0c0,0.1,0,0.2,0,0.3c0.1,0,0.2,0,0.3,0C64,77,64,76.9,64.1,76.8z"/>
			<path class="st18" d="M66.9,78c0.1,0,0.2,0,0.3,0c0-0.1,0-0.2,0-0.4c-0.1,0-0.2,0-0.3,0C66.9,77.7,66.9,77.8,66.9,78z"/>
			<path class="st18" d="M68.1,78.1c-0.1,0-0.2,0-0.3,0c0,0.1,0,0.2,0,0.3c0.1,0,0.2,0,0.3,0C68.1,78.3,68.1,78.2,68.1,78.1z"/>
			<path class="st18" d="M67.7,77.6c-0.1,0-0.2,0-0.3,0c0,0.1,0,0.2,0,0.3c0.1,0,0.2,0,0.3,0C67.7,77.9,67.7,77.8,67.7,77.6z"/>
			<path class="st18" d="M68.2,78c0.1,0,0.1,0,0.2,0c0-0.1,0-0.2,0-0.3c-0.1,0-0.1,0-0.2,0C68.1,77.8,68.1,77.9,68.2,78z"/>
			<path class="st18" d="M67.2,80.4c-0.1,0-0.2,0-0.3,0c0,0.1,0,0.2,0,0.3c0.1,0,0.2,0,0.3,0C67.2,80.6,67.2,80.5,67.2,80.4z"/>
			<path class="st18" d="M65.4,76.2c0-0.1,0-0.1,0-0.2c-0.1,0-0.2,0-0.3,0c0,0.1,0,0.1,0,0.2C65.2,76.3,65.3,76.2,65.4,76.2z"/>
			<path class="st18" d="M66.7,80.4c-0.1,0-0.2,0-0.3,0c0,0.1,0,0.2,0,0.3c0.1,0,0.2,0,0.3,0C66.7,80.6,66.7,80.5,66.7,80.4z"/>
			<path class="st18" d="M65.5,81.1c0,0.1,0,0.1,0,0.1c0.1,0,0.2,0,0.3,0c0,0,0-0.1,0-0.1C65.7,81.1,65.6,81.1,65.5,81.1z"/>
			<path class="st18" d="M65.9,80.5c0,0.1,0,0.2,0,0.3c0.1,0,0.2,0,0.3,0c0-0.1,0-0.2,0-0.3C66.2,80.5,66.1,80.5,65.9,80.5z"/>
			<path class="st18" d="M63.7,77.3c-0.1,0-0.2,0-0.2,0.1c0,0.1,0,0.2,0,0.3c0.1,0,0.1,0,0.2,0C63.6,77.5,63.6,77.4,63.7,77.3z"/>
			<path class="st18" d="M65,76.1c-0.1,0-0.2,0-0.3,0c0,0.1,0,0.1-0.1,0.2c0.1,0,0.2,0,0.3,0C65,76.2,65,76.1,65,76.1z"/>
			<path class="st18" d="M64.9,78c0.1,0,0.2,0,0.4,0c0-0.1,0-0.2,0-0.4c-0.1,0-0.2,0-0.4,0C65,77.7,64.9,77.8,64.9,78z"/>
			<path class="st18" d="M65.3,78.5c0-0.1,0-0.2,0-0.4c-0.1,0-0.2,0-0.4,0c0,0.1,0,0.2,0,0.4C65.1,78.5,65.2,78.5,65.3,78.5z"/>
			<path class="st18" d="M64.5,78.5c0.1,0,0.2,0,0.3,0c0-0.1,0-0.2,0-0.4c-0.1,0-0.2,0-0.3,0C64.5,78.2,64.5,78.3,64.5,78.5z"/>
			<path class="st18" d="M64.6,80.7c0,0.1,0,0.2,0.1,0.2c0.1,0,0.2,0,0.3,0c0-0.1,0-0.1,0-0.2C64.8,80.8,64.7,80.8,64.6,80.7z"/>
			<path class="st18" d="M65.3,79.5c0-0.1,0-0.2,0-0.4c-0.1,0-0.2,0-0.4,0c0,0.1,0,0.2,0,0.4C65.1,79.4,65.2,79.4,65.3,79.5z"/>
			<path class="st18" d="M64.8,79c0-0.1,0-0.2,0-0.4c-0.1,0-0.2,0-0.3,0c0,0.1,0,0.2,0,0.4C64.6,78.9,64.7,78.9,64.8,79z"/>
			<path class="st18" d="M65.8,77.9c0-0.1,0-0.2,0-0.4c-0.1,0-0.2,0-0.4,0c0,0.1,0,0.2,0,0.4C65.6,77.9,65.7,77.9,65.8,77.9z"/>
			<path class="st18" d="M65.3,78.6c-0.1,0-0.2,0-0.4,0c0,0.1,0,0.2,0,0.4c0.1,0,0.2,0,0.4,0C65.3,78.8,65.3,78.7,65.3,78.6z"/>
			<path class="st18" d="M66.3,78.6c-0.1,0-0.2,0-0.4,0c0,0.1,0,0.3,0,0.4c0.1,0,0.2,0,0.4,0C66.3,78.8,66.3,78.7,66.3,78.6z"/>
			<path class="st18" d="M65.4,78.5c0.1,0,0.2,0,0.4,0c0-0.1,0-0.3,0-0.4c-0.1,0-0.2,0-0.4,0C65.4,78.2,65.4,78.3,65.4,78.5z"/>
			<path class="st18" d="M65.9,78.1c0,0.1,0,0.2,0,0.4c0.1,0,0.3,0,0.4,0c0-0.1,0-0.2,0-0.4C66.2,78.1,66.1,78.1,65.9,78.1z"/>
			<path class="st18" d="M65.8,79c0-0.1,0-0.2,0-0.4c-0.1,0-0.3,0-0.4,0c0,0.1,0,0.2,0,0.4C65.6,79,65.7,79,65.8,79z"/>
			<path class="st18" d="M65.4,77.5c0.1,0,0.2,0,0.4,0c0-0.1,0-0.2,0-0.3c-0.1,0-0.2,0-0.4,0C65.4,77.2,65.4,77.3,65.4,77.5z"/>
			<path class="st18" d="M65.8,79.1c-0.1,0-0.2,0-0.4,0c0,0.1,0,0.2,0,0.4c0.1,0,0.2,0,0.4,0C65.8,79.3,65.8,79.2,65.8,79.1z"/>
			<path class="st18" d="M65.9,77.1c0,0.1,0,0.2,0,0.3c0.1,0,0.2,0,0.4,0c0-0.1,0-0.2,0-0.3C66.2,77.1,66.1,77.1,65.9,77.1z"/>
			<path class="st18" d="M65.9,77.9c0.1,0,0.2,0,0.4,0c0-0.1,0-0.2,0-0.4c-0.1,0-0.2,0-0.4,0C65.9,77.7,65.9,77.8,65.9,77.9z"/>
			<path class="st18" d="M66.4,77.6c0,0.1,0,0.2,0,0.4c0.1,0,0.2,0,0.4,0c0-0.1,0-0.2,0-0.4C66.7,77.6,66.6,77.6,66.4,77.6z"/>
			<path class="st18" d="M68.4,78.5c0.1,0,0.1,0,0.1,0c0-0.1,0-0.2,0-0.3c0,0-0.1,0-0.1,0C68.4,78.3,68.4,78.4,68.4,78.5z"/>
			<path class="st18" d="M67.8,78.6c0,0.1,0,0.2,0,0.3c0.1,0,0.2,0,0.3,0c0-0.1,0-0.2,0-0.3C68,78.6,67.9,78.6,67.8,78.6z"/>
			<path class="st18" d="M68.4,78.9c0.1,0,0.1,0,0.1,0c0-0.1,0-0.2,0-0.3c0,0-0.1,0-0.1,0C68.4,78.7,68.4,78.8,68.4,78.9z"/>
			<path class="st18" d="M67.6,76.7c0-0.1,0-0.2,0-0.3c-0.1,0-0.2,0-0.3,0c0,0.1,0,0.2,0,0.3C67.4,76.7,67.5,76.7,67.6,76.7z"/>
			<path class="st18" d="M67.8,79c0,0.1,0,0.2,0,0.3c0.1,0,0.2,0,0.3,0c0-0.1,0-0.2,0-0.3C68,79,67.9,79,67.8,79z"/>
			<path class="st18" d="M65.1,80.8c0,0.1,0,0.2,0,0.2c0.1,0,0.2,0,0.3,0c0-0.1,0-0.1,0-0.2C65.3,80.8,65.2,80.8,65.1,80.8z"/>
			<path class="st18" d="M68.1,79.8c0.1,0,0.2,0,0.2-0.1c0-0.1,0-0.2,0-0.3c-0.1,0-0.1,0-0.2,0C68.1,79.6,68.1,79.7,68.1,79.8z"/>
			<path class="st18" d="M67.1,76.3c0-0.1,0-0.2-0.1-0.2c-0.1,0-0.2,0-0.3,0c0,0.1,0,0.1,0,0.2C66.9,76.3,67,76.3,67.1,76.3z"/>
			<path class="st18" d="M68.1,79.3c0.1,0,0.2,0,0.2,0c0-0.1,0-0.2,0-0.3c-0.1,0-0.1,0-0.2,0C68.1,79.1,68.1,79.2,68.1,79.3z"/>
			<path class="st18" d="M63.3,78.2c-0.1,0-0.1,0-0.1,0c0,0.1,0,0.2,0,0.3c0,0,0.1,0,0.1,0C63.3,78.4,63.3,78.3,63.3,78.2z"/>
			<path class="st18" d="M64.2,80.3c0,0.1,0,0.2,0,0.3c0.1,0,0.2,0,0.3,0c0-0.1,0-0.2,0-0.3C64.4,80.4,64.3,80.4,64.2,80.3z"/>
			<path class="st18" d="M68.3,77.6c0-0.1,0-0.2,0-0.3c-0.1,0-0.1,0-0.2-0.1c0,0.1,0,0.2,0,0.3C68.2,77.6,68.3,77.6,68.3,77.6z"/>
			<path class="st18" d="M66.3,80.8c-0.1,0-0.2,0-0.3,0c0,0.1,0,0.1,0,0.2c0.1,0,0.2,0,0.3,0C66.3,80.9,66.3,80.9,66.3,80.8z"/>
			<path class="st18" d="M63.8,79.9c0,0.1,0,0.2,0,0.3c0.1,0,0.2,0,0.3,0c0-0.1,0-0.2,0-0.3C63.9,79.9,63.8,79.9,63.8,79.9z"/>
			<path class="st18" d="M68.2,78.1c0,0.1,0,0.2,0,0.3c0.1,0,0.1,0,0.2,0c0-0.1,0-0.2,0-0.3C68.3,78.1,68.2,78.1,68.2,78.1z"/>
			<path class="st18" d="M68.4,78.6c-0.1,0-0.1,0-0.2,0c0,0.1,0,0.2,0,0.3c0.1,0,0.1,0,0.2,0C68.4,78.8,68.4,78.7,68.4,78.6z"/>
			<path class="st18" d="M68,77.2c0-0.1,0-0.2,0-0.3c-0.1,0-0.2,0-0.3,0c0,0.1,0,0.2,0,0.3C67.8,77.1,67.9,77.1,68,77.2z"/>
			<path class="st18" d="M65.8,75.8c-0.1,0-0.2,0-0.3,0c0,0,0,0.1,0,0.1c0.1,0,0.2,0,0.3,0C65.8,75.9,65.8,75.8,65.8,75.8z"/>
			<path class="st18" d="M66.2,76c0-0.1,0-0.1,0-0.1c-0.1,0-0.2,0-0.3,0c0,0,0,0.1,0,0.1C66,76,66.1,76,66.2,76z"/>
			<path class="st18" d="M67.7,80.2c0.1,0,0.2,0,0.3,0c0-0.1,0-0.2,0-0.3c-0.1,0-0.2,0-0.3,0C67.7,80,67.7,80.1,67.7,80.2z"/>
			<path class="st18" d="M63.2,78.6c0,0.1,0,0.2,0,0.3c0,0,0.1,0,0.1,0c0-0.1,0-0.2,0-0.3C63.3,78.6,63.2,78.6,63.2,78.6z"/>
			<path class="st18" d="M67.2,80.6c0.1,0,0.2,0,0.3,0c0-0.1,0-0.2,0-0.3c-0.1,0-0.2,0-0.3,0C67.3,80.5,67.3,80.6,67.2,80.6z"/>
			<path class="st18" d="M66.9,80c0,0.1,0,0.2,0,0.3c0.1,0,0.2,0,0.3,0c0-0.1,0-0.2,0-0.3C67.1,80,67,80,66.9,80z"/>
			<path class="st18" d="M67.6,79.9c-0.1,0-0.2,0-0.3,0c0,0.1,0,0.2,0,0.3c0.1,0,0.2,0,0.3,0C67.6,80.1,67.6,80,67.6,79.9z"/>
			<path class="st18" d="M66.7,76.3c0-0.1,0-0.2,0-0.2c-0.1,0-0.2,0-0.3,0c0,0.1,0,0.1,0,0.2C66.5,76.2,66.6,76.3,66.7,76.3z"/>
			<path class="st18" d="M68,79.5c-0.1,0-0.2,0-0.3,0c0,0.1,0,0.2,0,0.3c0.1,0,0.2,0,0.3,0C68,79.7,68,79.6,68,79.5z"/>
			<path class="st18" d="M63.4,79.4c0,0.1,0,0.2,0,0.3c0.1,0,0.1,0,0.2,0.1c0-0.1,0-0.2,0-0.3C63.5,79.4,63.5,79.4,63.4,79.4z"/>
			<path class="st18" d="M65.9,81.2c0.1,0,0.2,0,0.3,0c0,0,0-0.1,0-0.1c-0.1,0-0.2,0-0.3,0C65.9,81.1,65.9,81.2,65.9,81.2z"/>
			<path class="st18" d="M63.6,79c-0.1,0-0.1,0-0.2,0c0,0.1,0,0.2,0,0.3c0.1,0,0.1,0,0.2,0C63.6,79.2,63.6,79.1,63.6,79z"/>
			<path class="st18" d="M67.4,79.5c0,0.1,0,0.2,0,0.3c0.1,0,0.2,0,0.3,0c0-0.1,0-0.2,0-0.3C67.6,79.5,67.5,79.5,67.4,79.5z"/>
			<path class="st18" d="M66.4,80.8c0,0.1,0,0.1,0,0.2c0.1,0,0.2,0,0.3,0c0-0.1,0-0.1,0-0.2C66.6,80.8,66.5,80.8,66.4,80.8z"/>
			<path class="st18" d="M66.8,81c0.1,0,0.2,0,0.3,0c0-0.1,0-0.1,0.1-0.2c-0.1,0-0.2,0-0.3,0C66.8,80.9,66.8,80.9,66.8,81z"/>
			<path class="st18" d="M63.6,77.7c-0.1,0-0.2,0-0.2,0c0,0.1,0,0.2,0,0.3c0.1,0,0.1,0,0.2,0C63.6,77.9,63.6,77.8,63.6,77.7z"/>
			<path class="st18" d="M65.5,76.2c0.1,0,0.2,0,0.3,0c0-0.1,0-0.1,0-0.2c-0.1,0-0.2,0-0.3,0C65.5,76.1,65.5,76.2,65.5,76.2z"/>
			<path class="st18" d="M65,76.6c0.1,0,0.2,0,0.3,0c0-0.1,0-0.2,0-0.3c-0.1,0-0.2,0-0.3,0C65,76.4,65,76.5,65,76.6z"/>
			<path class="st18" d="M65.8,76.6c0-0.1,0-0.2,0-0.3c-0.1,0-0.2,0-0.3,0c0,0.1,0,0.2,0,0.3C65.6,76.6,65.7,76.6,65.8,76.6z"/>
			<path class="st18" d="M65.9,76c0,0.1,0,0.1,0,0.2c0.1,0,0.2,0,0.3,0c0-0.1,0-0.1,0-0.2C66.1,76,66,76,65.9,76z"/>
			<path class="st18" d="M64.1,77.1c0.1,0,0.2,0,0.3,0c0-0.1,0-0.2,0-0.3c-0.1,0-0.2,0-0.3,0C64.1,76.9,64.1,77,64.1,77.1z"/>
			<path class="st18" d="M65.9,76.6c0.1,0,0.2,0,0.3,0c0-0.1,0-0.2,0-0.3c-0.1,0-0.2,0-0.3,0C65.9,76.4,65.9,76.5,65.9,76.6z"/>
			<path class="st18" d="M64.6,76.6c0.1,0,0.2,0,0.3,0c0-0.1,0-0.2,0-0.3c-0.1,0-0.2,0-0.3,0C64.6,76.5,64.6,76.6,64.6,76.6z"/>
			<path class="st18" d="M64.9,77c0-0.1,0-0.2,0-0.3c-0.1,0-0.2,0-0.3,0c0,0.1,0,0.2,0,0.3C64.6,77,64.7,77,64.9,77z"/>
			<path class="st18" d="M67.4,78.1c0,0.1,0,0.2,0,0.4c0.1,0,0.2,0,0.3,0c0-0.1,0-0.2,0-0.3C67.6,78.1,67.5,78.1,67.4,78.1z"/>
			<path class="st18" d="M67.7,77.2c0,0.1,0,0.2,0,0.3c0.1,0,0.2,0,0.3,0c0-0.1,0-0.2,0-0.3C67.9,77.2,67.8,77.2,67.7,77.2z"/>
			<path class="st18" d="M66.4,76.6c0.1,0,0.2,0,0.3,0c0-0.1,0-0.2,0-0.3c-0.1,0-0.2,0-0.3,0C66.4,76.4,66.4,76.5,66.4,76.6z"/>
			<path class="st18" d="M67.4,77.5c0.1,0,0.2,0,0.3,0c0-0.1,0-0.2,0-0.3c-0.1,0-0.2,0-0.3,0C67.4,77.3,67.4,77.4,67.4,77.5z"/>
			<path class="st18" d="M67.8,77.7c0,0.1,0,0.2,0,0.3c0.1,0,0.2,0,0.3,0c0-0.1,0-0.2,0-0.3C68,77.7,67.9,77.7,67.8,77.7z"/>
			<path class="st18" d="M66.8,76.4c0,0.1,0,0.2,0,0.3c0.1,0,0.2,0,0.3,0c0-0.1,0-0.2,0-0.3C67,76.4,66.9,76.4,66.8,76.4z"/>
			<path class="st18" d="M66.9,77c0.1,0,0.2,0,0.3,0c0-0.1,0-0.2,0-0.3c-0.1,0-0.2,0-0.3,0C66.9,76.8,66.9,76.9,66.9,77z"/>
			<path class="st18" d="M64.4,77.5c0-0.1,0-0.2,0-0.3c-0.1,0-0.2,0-0.3,0c0,0.1,0,0.2,0,0.3C64.2,77.5,64.3,77.5,64.4,77.5z"/>
			<path class="st18" d="M67.3,76.8c0,0.1,0,0.2,0,0.3c0.1,0,0.2,0,0.3,0c0-0.1,0-0.2,0-0.3C67.5,76.8,67.4,76.8,67.3,76.8z"/>
			<path class="st18" d="M64.4,79.5c-0.1,0-0.2,0-0.3,0c0,0.1,0,0.2,0,0.3c0.1,0,0.2,0,0.3,0C64.4,79.8,64.4,79.6,64.4,79.5z"/>
			<path class="st18" d="M64.5,80.3c0-0.1,0-0.2,0-0.3c-0.1,0-0.2,0-0.3,0c0,0.1,0,0.2,0,0.3C64.3,80.3,64.4,80.3,64.5,80.3z"/>
			<path class="st18" d="M64.9,80.7c0-0.1,0-0.2,0-0.3c-0.1,0-0.2,0-0.3,0c0,0.1,0,0.2,0,0.3C64.7,80.7,64.8,80.7,64.9,80.7z"/>
			<path class="st18" d="M63.7,77.6c0.1,0,0.2,0,0.3,0c0-0.1,0-0.2,0-0.3c-0.1,0-0.2,0-0.3,0C63.7,77.4,63.7,77.5,63.7,77.6z"/>
			<path class="st18" d="M65.4,80.4c-0.1,0-0.2,0-0.3,0c0,0.1,0,0.2,0,0.3c0.1,0,0.2,0,0.3,0C65.4,80.6,65.4,80.5,65.4,80.4z"/>
			<path class="st18" d="M65.8,81c0-0.1,0-0.1,0-0.2c-0.1,0-0.2,0-0.3,0c0,0.1,0,0.1,0,0.2C65.6,81,65.7,81,65.8,81z"/>
			<path class="st18" d="M65.8,80.5c-0.1,0-0.2,0-0.3,0c0,0.1,0,0.2,0,0.3c0.1,0,0.2,0,0.3,0C65.8,80.6,65.8,80.5,65.8,80.5z"/>
			<path class="st18" d="M64.9,80c-0.1,0-0.2,0-0.3,0c0,0.1,0,0.2,0,0.3c0.1,0,0.2,0,0.3,0C64.9,80.2,64.9,80.1,64.9,80z"/>
			<path class="st18" d="M63.4,78.5c0.1,0,0.1,0,0.2,0c0-0.1,0-0.2,0-0.3c-0.1,0-0.1,0-0.2,0C63.4,78.3,63.4,78.4,63.4,78.5z"/>
			<path class="st18" d="M63.9,78.5c0-0.1,0-0.2,0-0.3c-0.1,0-0.2,0-0.3,0c0,0.1,0,0.2,0,0.3C63.8,78.5,63.8,78.5,63.9,78.5z"/>
			<path class="st18" d="M64,79.8c0-0.1,0-0.2,0-0.3c-0.1,0-0.2,0-0.3,0c0,0.1,0,0.2,0,0.3C63.8,79.8,63.9,79.8,64,79.8z"/>
			<path class="st18" d="M64,78c0-0.1,0-0.2,0-0.3c-0.1,0-0.2,0-0.3,0c0,0.1,0,0.2,0,0.3C63.8,78,63.9,78,64,78z"/>
			<path class="st18" d="M64,79.4c0-0.1,0-0.2,0-0.3c-0.1,0-0.2,0-0.3,0c0,0.1,0,0.2,0,0.3C63.8,79.4,63.9,79.4,64,79.4z"/>
			<path class="st18" d="M63.6,78.9c0-0.1,0-0.2,0-0.3c-0.1,0-0.1,0-0.2,0c0,0.1,0,0.2,0,0.3C63.4,78.9,63.5,78.9,63.6,78.9z"/>
			<path class="st18" d="M65.8,79.9c0-0.1,0-0.2,0-0.3c-0.1,0-0.2,0-0.4,0c0,0.1,0,0.2,0,0.3C65.6,79.9,65.7,79.9,65.8,79.9z"/>
			<path class="st18" d="M63.9,78.6c-0.1,0-0.2,0-0.3,0c0,0.1,0,0.2,0,0.3c0.1,0,0.2,0,0.3,0C63.9,78.8,63.9,78.7,63.9,78.6z"/>
			<path class="st18" d="M64.8,78c0-0.1,0-0.2,0-0.4c-0.1,0-0.2,0-0.3,0c0,0.1,0,0.2,0,0.4C64.6,78,64.7,78,64.8,78z"/>
			<path class="st18" d="M65.9,77c0.1,0,0.2,0,0.4,0c0-0.1,0-0.2,0-0.3c-0.1,0-0.2,0-0.3,0C65.9,76.8,65.9,76.9,65.9,77z"/>
			<path class="st18" d="M66.4,76.7c0,0.1,0,0.2,0,0.3c0.1,0,0.2,0,0.3,0c0-0.1,0-0.2,0-0.3C66.6,76.7,66.5,76.7,66.4,76.7z"/>
			<path class="st18" d="M66.4,77.5c0.1,0,0.2,0,0.4,0c0-0.1,0-0.2,0-0.3c-0.1,0-0.2,0-0.4,0C66.4,77.2,66.4,77.3,66.4,77.5z"/>
			<path class="st18" d="M64.5,77.5c0.1,0,0.2,0,0.3,0c0-0.1,0-0.2,0-0.3c-0.1,0-0.2,0-0.3,0C64.5,77.3,64.5,77.4,64.5,77.5z"/>
			<path class="st18" d="M65.3,77.5c0-0.1,0-0.2,0-0.3c-0.1,0-0.2,0-0.4,0c0,0.1,0,0.2,0,0.3C65.1,77.5,65.2,77.5,65.3,77.5z"/>
			<path class="st18" d="M65,77c0.1,0,0.2,0,0.3,0c0-0.1,0-0.2,0-0.3c-0.1,0-0.2,0-0.3,0C65,76.8,65,76.9,65,77z"/>
			<path class="st18" d="M65.5,77c0.1,0,0.2,0,0.4,0c0-0.1,0-0.2,0-0.3c-0.1,0-0.2,0-0.3,0C65.5,76.8,65.5,76.9,65.5,77z"/>
			<path class="st18" d="M65.9,79.1c0,0.1,0,0.2,0,0.4c0.1,0,0.2,0,0.4,0c0-0.1,0-0.2,0-0.4C66.2,79.1,66.1,79.1,65.9,79.1z"/>
			<path class="st18" d="M66.9,77.1c0,0.1,0,0.2,0,0.3c0.1,0,0.2,0,0.3,0c0-0.1,0-0.2,0-0.3C67.1,77.2,67,77.1,66.9,77.1z"/>
			<path class="st18" d="M66.8,79.1c-0.1,0-0.2,0-0.4,0c0,0.1,0,0.2,0,0.4c0.1,0,0.2,0,0.4,0C66.8,79.3,66.8,79.2,66.8,79.1z"/>
			<path class="st18" d="M66.3,79.6c-0.1,0-0.2,0-0.4,0c0,0.1,0,0.2,0,0.3c0.1,0,0.2,0,0.4,0C66.3,79.8,66.3,79.7,66.3,79.6z"/>
			<path class="st18" d="M66.4,78.6c0,0.1,0,0.2,0,0.4c0.1,0,0.2,0,0.4,0c0-0.1,0-0.2,0-0.4C66.7,78.6,66.6,78.6,66.4,78.6z"/>
			<path class="st18" d="M66.9,78.1c0,0.1,0,0.2,0,0.4c0.1,0,0.2,0,0.3,0c0-0.1,0-0.2,0-0.4C67.2,78.1,67.1,78.1,66.9,78.1z"/>
			<path class="st18" d="M67.3,78.6c-0.1,0-0.2,0-0.3,0c0,0.1,0,0.2,0,0.4c0.1,0,0.2,0,0.3,0C67.3,78.8,67.3,78.7,67.3,78.6z"/>
			<path class="st18" d="M67.7,79.1c-0.1,0-0.2,0-0.3,0c0,0.1,0,0.2,0,0.3c0.1,0,0.2,0,0.3,0C67.7,79.3,67.7,79.2,67.7,79.1z"/>
			<path class="st18" d="M66.8,80c-0.1,0-0.2,0-0.3,0c0,0.1,0,0.2,0,0.3c0.1,0,0.2,0,0.3,0C66.8,80.2,66.8,80.1,66.8,80z"/>
			<path class="st18" d="M66.3,80c-0.1,0-0.2,0-0.4,0c0,0.1,0,0.2,0,0.3c0.1,0,0.2,0,0.3,0C66.3,80.2,66.3,80.1,66.3,80z"/>
			<path class="st18" d="M66.4,79.6c0,0.1,0,0.2,0,0.3c0.1,0,0.2,0,0.4,0c0-0.1,0-0.2,0-0.3C66.7,79.6,66.6,79.6,66.4,79.6z"/>
			<path class="st18" d="M65.8,80c-0.1,0-0.2,0-0.4,0c0,0.1,0,0.2,0,0.3c0.1,0,0.2,0,0.3,0C65.8,80.3,65.8,80.1,65.8,80z"/>
			<path class="st18" d="M65.3,80.3c0-0.1,0-0.2,0-0.3c-0.1,0-0.2,0-0.3,0c0,0.1,0,0.2,0,0.3C65.1,80.3,65.2,80.3,65.3,80.3z"/>
			<path class="st18" d="M67.3,79.5c-0.1,0-0.2,0-0.3,0c0,0.1,0,0.2,0,0.3c0.1,0,0.2,0,0.3,0C67.2,79.8,67.2,79.7,67.3,79.5z"/>
			<path class="st18" d="M67.4,78.6c0,0.1,0,0.2,0,0.4c0.1,0,0.2,0,0.3,0c0-0.1,0-0.2,0-0.3C67.6,78.6,67.5,78.6,67.4,78.6z"/>
			<path class="st18" d="M66.9,79.1c0,0.1,0,0.2,0,0.4c0.1,0,0.2,0,0.3,0c0-0.1,0-0.2,0-0.4C67.2,79.1,67,79.1,66.9,79.1z"/>
			<path class="st18" d="M64.1,78c0.1,0,0.2,0,0.3,0c0-0.1,0-0.2,0-0.3c-0.1,0-0.2,0-0.3,0C64.1,77.8,64.1,77.9,64.1,78z"/>
			<path class="st18" d="M64.4,78.9c0-0.1,0-0.2,0-0.4c-0.1,0-0.2,0-0.3,0c0,0.1,0,0.2,0,0.3C64.2,78.9,64.3,78.9,64.4,78.9z"/>
			<path class="st18" d="M65.3,79.6c-0.1,0-0.2,0-0.4,0c0,0.1,0,0.2,0,0.3c0.1,0,0.2,0,0.4,0C65.3,79.8,65.3,79.7,65.3,79.6z"/>
			<path class="st18" d="M64.4,78.5c0-0.1,0-0.2,0-0.4c-0.1,0-0.2,0-0.3,0c0,0.1,0,0.2,0,0.3C64.1,78.5,64.2,78.5,64.4,78.5z"/>
			<path class="st18" d="M64.4,79.4c0-0.1,0-0.2,0-0.3c-0.1,0-0.2,0-0.3,0c0,0.1,0,0.2,0,0.3C64.2,79.4,64.3,79.4,64.4,79.4z"/>
			<path class="st18" d="M64.9,79.9c0-0.1,0-0.2,0-0.3c-0.1,0-0.2,0-0.3,0c0,0.1,0,0.2,0,0.3C64.6,79.9,64.7,79.9,64.9,79.9z"/>
			<path class="st18" d="M64.8,79.1c-0.1,0-0.2,0-0.3,0c0,0.1,0,0.2,0,0.4c0.1,0,0.2,0,0.3,0C64.8,79.3,64.8,79.2,64.8,79.1z"/>
			<path class="st19" d="M68.6,78.2c0-0.1,0-0.2-0.1-0.3c0,0.1,0,0.2,0,0.2c0,0-0.1,0-0.2,0c0-0.1,0-0.2,0-0.3c0.1,0,0.1,0,0.1,0
				c0,0,0-0.1,0-0.1c0,0-0.1,0-0.1,0c0-0.1,0-0.2,0-0.3c0,0,0,0,0,0c0-0.1-0.1-0.1-0.1-0.2c0,0,0,0,0,0.1c-0.1,0-0.1,0-0.2-0.1
				c0-0.1,0-0.2,0-0.3c0,0,0.1,0,0.1,0c0,0-0.1-0.1-0.1-0.1c0,0,0,0,0,0c0,0,0,0,0,0c0,0-0.1-0.1-0.1-0.1c0,0,0,0.1,0,0.1
				c-0.1,0-0.2,0-0.3-0.1c0-0.1,0-0.2-0.1-0.3c0,0,0.1,0,0.1,0c0,0-0.1-0.1-0.1-0.1c0,0,0,0,0,0c0,0,0,0,0,0c0,0-0.1-0.1-0.1-0.1
				c0,0,0,0.1,0,0.1c-0.1,0-0.2,0-0.3,0c0-0.1,0-0.2-0.1-0.2c0,0,0,0,0.1,0c-0.1,0-0.1-0.1-0.2-0.1c0,0,0,0,0,0c-0.1,0-0.2,0-0.3,0
				c0,0,0-0.1,0-0.1c0,0-0.1,0-0.1,0c0,0,0,0.1,0,0.1c-0.1,0-0.2,0-0.3,0c0-0.1,0-0.1,0-0.2c0.1,0,0.2,0,0.2,0
				c-0.1,0-0.2-0.1-0.3-0.1c0,0,0,0,0,0c-0.1,0-0.2,0-0.3,0c0,0,0,0,0,0c0,0,0,0,0,0c0,0,0,0,0,0c0,0,0,0,0,0c-0.1,0-0.2,0-0.3,0
				c0,0,0,0,0,0c-0.1,0-0.2,0-0.3,0.1c0.1,0,0.2,0,0.2,0c0,0,0,0.1,0,0.2c-0.1,0-0.2,0-0.3,0c0-0.1,0-0.1,0-0.1c0,0-0.1,0-0.1,0
				c0,0,0,0.1,0,0.1c-0.1,0-0.2,0-0.3,0c0,0,0,0,0,0c-0.1,0-0.1,0.1-0.2,0.1c0,0,0,0,0.1,0c0,0.1,0,0.1-0.1,0.2c-0.1,0-0.2,0-0.3,0
				c0,0,0-0.1,0-0.1c0,0-0.1,0.1-0.1,0.1c0,0,0,0,0,0c0,0,0,0,0,0c0,0-0.1,0.1-0.1,0.1c0,0,0.1,0,0.1,0c0,0.1,0,0.2-0.1,0.3
				c-0.1,0-0.2,0-0.3,0.1c0,0,0-0.1,0-0.1c0,0-0.1,0.1-0.1,0.1c0,0,0,0,0,0c0,0,0,0,0,0c0,0-0.1,0.1-0.1,0.1c0,0,0.1,0,0.1,0
				c0,0.1,0,0.2,0,0.3c-0.1,0-0.2,0-0.2,0.1c0,0,0,0,0-0.1c0,0.1-0.1,0.1-0.1,0.2c0,0,0,0,0,0c0,0.1,0,0.2,0,0.3c0,0-0.1,0-0.1,0
				c0,0,0,0.1,0,0.1c0,0,0.1,0,0.1,0c0,0.1,0,0.2,0,0.3c-0.1,0-0.1,0-0.2,0c0-0.1,0-0.2,0-0.2c0,0.1-0.1,0.2-0.1,0.3c0,0,0,0,0,0
				c0,0.1,0,0.2,0,0.3c0,0,0,0,0,0c0,0,0,0,0,0s0,0,0,0c0,0,0,0,0,0c0,0.1,0,0.2,0,0.3c0,0,0,0,0,0c0,0.1,0,0.2,0.1,0.3
				c0-0.1,0-0.2,0-0.2c0,0,0.1,0,0.2,0c0,0.1,0,0.2,0,0.3c-0.1,0-0.1,0-0.1,0c0,0,0,0.1,0,0.1c0,0,0.1,0,0.1,0c0,0.1,0,0.2,0,0.3
				c0,0,0,0,0,0c0,0.1,0.1,0.1,0.1,0.2c0,0,0,0,0-0.1c0.1,0,0.1,0,0.2,0.1c0,0.1,0,0.2,0,0.3c0,0-0.1,0-0.1,0c0,0,0.1,0.1,0.1,0.1
				c0,0,0,0,0,0c0,0,0,0,0,0c0,0,0.1,0.1,0.1,0.1c0,0,0-0.1,0-0.1c0.1,0,0.2,0,0.3,0.1c0,0.1,0,0.2,0.1,0.3c0,0-0.1,0-0.1,0
				c0,0,0.1,0.1,0.1,0.1c0,0,0,0,0,0c0,0,0,0,0,0c0,0,0.1,0.1,0.1,0.1c0,0,0-0.1,0-0.1c0.1,0,0.2,0,0.3,0c0,0.1,0,0.2,0.1,0.2
				c0,0,0,0-0.1,0c0.1,0,0.1,0.1,0.2,0.1c0,0,0,0,0,0c0.1,0,0.2,0,0.3,0c0,0,0,0.1,0,0.1c0,0,0.1,0,0.1,0c0,0,0-0.1,0-0.1
				c0.1,0,0.2,0,0.3,0c0,0.1,0,0.1,0,0.2c-0.1,0-0.2,0-0.2,0c0.1,0,0.2,0.1,0.3,0.1c0,0,0,0,0,0c0.1,0,0.2,0,0.3,0c0,0,0,0,0,0
				c0,0,0,0,0,0c0,0,0,0,0,0c0,0,0,0,0,0c0.1,0,0.2,0,0.3,0c0,0,0,0,0,0c0.1,0,0.2,0,0.3-0.1c-0.1,0-0.2,0-0.2,0c0,0,0-0.1,0-0.2
				c0.1,0,0.2,0,0.3,0c0,0.1,0,0.1,0,0.1c0,0,0.1,0,0.1,0c0,0,0-0.1,0-0.1c0.1,0,0.2,0,0.3,0c0,0,0,0,0,0c0.1,0,0.1-0.1,0.2-0.1
				c0,0,0,0-0.1,0c0-0.1,0-0.1,0.1-0.2c0.1,0,0.2,0,0.3,0c0,0,0,0.1,0,0.1c0,0,0.1-0.1,0.1-0.1c0,0,0,0,0,0c0,0,0,0,0,0
				c0,0,0.1-0.1,0.1-0.1c0,0-0.1,0-0.1,0c0-0.1,0-0.2,0.1-0.3c0.1,0,0.2,0,0.3-0.1c0,0,0,0.1,0,0.1c0,0,0.1-0.1,0.1-0.1c0,0,0,0,0,0
				c0,0,0,0,0,0c0,0,0.1-0.1,0.1-0.1c0,0-0.1,0-0.1,0c0-0.1,0-0.2,0-0.3c0.1,0,0.2,0,0.2-0.1c0,0,0,0,0,0.1c0-0.1,0.1-0.1,0.1-0.2
				c0,0,0,0,0,0c0-0.1,0-0.2,0-0.3c0,0,0.1,0,0.1,0c0,0,0-0.1,0-0.1c0,0-0.1,0-0.1,0c0-0.1,0-0.2,0-0.3c0.1,0,0.1,0,0.2,0
				c0,0.1,0,0.2,0,0.2c0-0.1,0.1-0.2,0.1-0.3c0,0,0,0,0,0c0-0.1,0-0.2,0-0.3c0,0,0,0,0,0c0,0,0,0,0,0s0,0,0,0c0,0,0,0,0,0
				C68.6,78.4,68.6,78.3,68.6,78.2C68.6,78.2,68.6,78.2,68.6,78.2z M68.4,78c-0.1,0-0.1,0-0.2,0c0-0.1,0-0.2,0-0.3
				c0.1,0,0.2,0,0.2,0C68.4,77.8,68.4,77.9,68.4,78z M67.8,78.5c0-0.1,0-0.2,0-0.3c0.1,0,0.2,0,0.3,0c0,0.1,0,0.2,0,0.3
				C68,78.5,67.9,78.5,67.8,78.5z M67.3,78c-0.1,0-0.2,0-0.3,0c0-0.1,0-0.2,0-0.4c0.1,0,0.2,0,0.3,0C67.3,77.7,67.3,77.9,67.3,78z
				 M67.4,77.6c0.1,0,0.2,0,0.3,0c0,0.1,0,0.2,0,0.3c-0.1,0-0.2,0-0.3,0C67.4,77.9,67.4,77.7,67.4,77.6z M66.4,78.5
				c0-0.1,0-0.2,0-0.4c0.1,0,0.2,0,0.4,0c0,0.1,0,0.2,0,0.4C66.7,78.5,66.6,78.5,66.4,78.5z M65.8,78.5c-0.1,0-0.3,0-0.4,0
				c0-0.1,0-0.2,0-0.4c0.1,0,0.2,0,0.4,0C65.8,78.2,65.8,78.3,65.8,78.5z M65.8,78.6c0,0.1,0,0.3,0,0.4c-0.1,0-0.2,0-0.4,0
				c0-0.1,0-0.2,0-0.4C65.6,78.6,65.7,78.6,65.8,78.6z M65.9,78.6c0.1,0,0.3,0,0.4,0c0,0.1,0,0.2,0,0.4c-0.1,0-0.2,0-0.4,0
				C65.9,78.8,65.9,78.7,65.9,78.6z M65.9,78.5c0-0.1,0-0.3,0-0.4c0.1,0,0.2,0,0.4,0c0,0.1,0,0.2,0,0.4
				C66.2,78.5,66.1,78.5,65.9,78.5z M66.4,78c0-0.1,0-0.2,0-0.4c0.1,0,0.2,0,0.4,0c0,0.1,0,0.2,0,0.4C66.7,78,66.6,78,66.4,78z
				 M66.3,77.9c-0.1,0-0.2,0-0.4,0c0-0.1,0-0.2,0-0.4c0.1,0,0.2,0,0.4,0C66.3,77.7,66.3,77.8,66.3,77.9z M65.9,77.5
				c0-0.1,0-0.2,0-0.3c0.1,0,0.2,0,0.4,0c0,0.1,0,0.2,0,0.3C66.2,77.5,66.1,77.5,65.9,77.5z M65.8,77.5c-0.1,0-0.2,0-0.4,0
				c0-0.1,0-0.2,0-0.3c0.1,0,0.2,0,0.4,0C65.8,77.2,65.8,77.3,65.8,77.5z M65.8,77.6c0,0.1,0,0.2,0,0.4c-0.1,0-0.2,0-0.4,0
				c0-0.1,0-0.2,0-0.4C65.6,77.6,65.7,77.6,65.8,77.6z M65.3,78c-0.1,0-0.2,0-0.4,0c0-0.1,0-0.2,0-0.4c0.1,0,0.2,0,0.4,0
				C65.3,77.7,65.3,77.8,65.3,78z M65.3,78.1c0,0.1,0,0.2,0,0.4c-0.1,0-0.2,0-0.4,0c0-0.1,0-0.2,0-0.4
				C65.1,78.1,65.2,78.1,65.3,78.1z M64.8,78.5c-0.1,0-0.2,0-0.3,0c0-0.1,0-0.2,0-0.4c0.1,0,0.2,0,0.3,0
				C64.8,78.2,64.8,78.3,64.8,78.5z M64.8,78.6c0,0.1,0,0.2,0,0.4c-0.1,0-0.2,0-0.3,0c0-0.1,0-0.2,0-0.4
				C64.6,78.6,64.7,78.6,64.8,78.6z M64.9,78.6c0.1,0,0.2,0,0.4,0c0,0.1,0,0.2,0,0.4c-0.1,0-0.2,0-0.4,0
				C64.9,78.8,64.9,78.7,64.9,78.6z M65.3,79.1c0,0.1,0,0.2,0,0.4c-0.1,0-0.2,0-0.4,0c0-0.1,0-0.2,0-0.4
				C65.1,79.1,65.2,79.1,65.3,79.1z M65.4,79.1c0.1,0,0.2,0,0.4,0c0,0.1,0,0.2,0,0.4c-0.1,0-0.2,0-0.4,0
				C65.4,79.3,65.4,79.2,65.4,79.1z M65.8,79.6c0,0.1,0,0.2,0,0.3c-0.1,0-0.2,0-0.4,0c0-0.1,0-0.2,0-0.3
				C65.6,79.6,65.7,79.6,65.8,79.6z M65.9,79.6c0.1,0,0.2,0,0.4,0c0,0.1,0,0.2,0,0.3c-0.1,0-0.2,0-0.4,0
				C65.9,79.8,65.9,79.7,65.9,79.6z M65.9,79.5c0-0.1,0-0.2,0-0.4c0.1,0,0.2,0,0.4,0c0,0.1,0,0.2,0,0.4
				C66.2,79.5,66.1,79.5,65.9,79.5z M66.4,79.1c0.1,0,0.2,0,0.4,0c0,0.1,0,0.2,0,0.4c-0.1,0-0.2,0-0.4,0
				C66.4,79.3,66.4,79.2,66.4,79.1z M66.4,79c0-0.1,0-0.2,0-0.4c0.1,0,0.2,0,0.4,0c0,0.1,0,0.2,0,0.4C66.7,79,66.6,79,66.4,79z
				 M66.9,78.6c0.1,0,0.2,0,0.3,0c0,0.1,0,0.2,0,0.4c-0.1,0-0.2,0-0.3,0C66.9,78.8,66.9,78.7,66.9,78.6z M66.9,78.5
				c0-0.1,0-0.2,0-0.4c0.1,0,0.2,0,0.3,0c0,0.1,0,0.2,0,0.4C67.2,78.5,67.1,78.5,66.9,78.5z M66.9,77.5c0-0.1,0-0.2,0-0.3
				c0.1,0,0.2,0,0.3,0c0,0.1,0,0.2,0,0.3C67.1,77.5,67,77.5,66.9,77.5z M66.8,77.5c-0.1,0-0.2,0-0.4,0c0-0.1,0-0.2,0-0.3
				c0.1,0,0.2,0,0.4,0C66.8,77.2,66.8,77.4,66.8,77.5z M66.4,77c0-0.1,0-0.2,0-0.3c0.1,0,0.2,0,0.3,0c0,0.1,0,0.2,0,0.3
				C66.7,77,66.5,77,66.4,77z M66.3,77c-0.1,0-0.2,0-0.4,0c0-0.1,0-0.2,0-0.3c0.1,0,0.2,0,0.3,0C66.3,76.8,66.3,76.9,66.3,77z
				 M65.8,77c-0.1,0-0.2,0-0.4,0c0-0.1,0-0.2,0-0.3c0.1,0,0.2,0,0.3,0C65.8,76.8,65.8,76.9,65.8,77z M65.3,77c-0.1,0-0.2,0-0.3,0
				c0-0.1,0-0.2,0-0.3c0.1,0,0.2,0,0.3,0C65.3,76.8,65.3,76.9,65.3,77z M65.3,77.1c0,0.1,0,0.2,0,0.3c-0.1,0-0.2,0-0.4,0
				c0-0.1,0-0.2,0-0.3C65.1,77.1,65.2,77.1,65.3,77.1z M64.8,77.5c-0.1,0-0.2,0-0.3,0c0-0.1,0-0.2,0-0.3c0.1,0,0.2,0,0.3,0
				C64.8,77.3,64.8,77.4,64.8,77.5z M64.8,77.6c0,0.1,0,0.2,0,0.4c-0.1,0-0.2,0-0.3,0c0-0.1,0-0.2,0-0.4
				C64.6,77.6,64.7,77.6,64.8,77.6z M64.4,78c-0.1,0-0.2,0-0.3,0c0-0.1,0-0.2,0-0.3c0.1,0,0.2,0,0.3,0C64.4,77.7,64.4,77.9,64.4,78z
				 M64.4,78.1c0,0.1,0,0.2,0,0.4c-0.1,0-0.2,0-0.3,0c0-0.1,0-0.2,0-0.3C64.2,78.1,64.3,78.1,64.4,78.1z M64.4,78.6
				c0,0.1,0,0.2,0,0.4c-0.1,0-0.2,0-0.3,0c0-0.1,0-0.2,0-0.3C64.1,78.6,64.2,78.6,64.4,78.6z M64.4,79.1c0,0.1,0,0.2,0,0.3
				c-0.1,0-0.2,0-0.3,0c0-0.1,0-0.2,0-0.3C64.2,79.1,64.3,79.1,64.4,79.1z M64.5,79.1c0.1,0,0.2,0,0.3,0c0,0.1,0,0.2,0,0.4
				c-0.1,0-0.2,0-0.3,0C64.5,79.3,64.5,79.2,64.5,79.1z M64.8,79.6c0,0.1,0,0.2,0,0.3c-0.1,0-0.2,0-0.3,0c0-0.1,0-0.2,0-0.3
				C64.6,79.5,64.7,79.6,64.8,79.6z M65,79.6c0.1,0,0.2,0,0.4,0c0,0.1,0,0.2,0,0.3c-0.1,0-0.2,0-0.4,0C65,79.8,65,79.7,65,79.6z
				 M65.3,80c0,0.1,0,0.2,0,0.3c-0.1,0-0.2,0-0.3,0c0-0.1,0-0.2,0-0.3C65.1,80,65.2,80,65.3,80z M65.5,80c0.1,0,0.2,0,0.4,0
				c0,0.1,0,0.2,0,0.3c-0.1,0-0.2,0-0.3,0C65.5,80.2,65.5,80.1,65.5,80z M65.9,80c0.1,0,0.2,0,0.4,0c0,0.1,0,0.2,0,0.3
				c-0.1,0-0.2,0-0.3,0C65.9,80.3,65.9,80.1,65.9,80z M66.4,80c0.1,0,0.2,0,0.3,0c0,0.1,0,0.2,0,0.3c-0.1,0-0.2,0-0.3,0
				C66.4,80.2,66.4,80.1,66.4,80z M66.4,79.9c0-0.1,0-0.2,0-0.3c0.1,0,0.2,0,0.4,0c0,0.1,0,0.2,0,0.3C66.7,79.9,66.5,79.9,66.4,79.9
				z M66.9,79.6c0.1,0,0.2,0,0.3,0c0,0.1,0,0.2,0,0.3c-0.1,0-0.2,0-0.3,0C66.9,79.8,66.9,79.7,66.9,79.6z M66.9,79.4
				c0-0.1,0-0.2,0-0.4c0.1,0,0.2,0,0.3,0c0,0.1,0,0.2,0,0.4C67.2,79.4,67,79.4,66.9,79.4z M67.4,79.1c0.1,0,0.2,0,0.3,0
				c0,0.1,0,0.2,0,0.3c-0.1,0-0.2,0-0.3,0C67.4,79.3,67.4,79.2,67.4,79.1z M67.4,78.9c0-0.1,0-0.2,0-0.4c0.1,0,0.2,0,0.3,0
				c0,0.1,0,0.2,0,0.3C67.6,78.9,67.5,78.9,67.4,78.9z M67.4,78.5c0-0.1,0-0.2,0-0.4c0.1,0,0.2,0,0.3,0c0,0.1,0,0.2,0,0.3
				C67.6,78.5,67.5,78.5,67.4,78.5z M67.8,78c0-0.1,0-0.2,0-0.3c0.1,0,0.2,0,0.3,0c0,0.1,0,0.2,0,0.3C68,78,67.9,78,67.8,78z
				 M67.8,77.5c0-0.1,0-0.2,0-0.3c0.1,0,0.2,0,0.3,0c0,0.1,0,0.2,0,0.3C68,77.6,67.9,77.5,67.8,77.5z M67.7,77.5c-0.1,0-0.2,0-0.3,0
				c0-0.1,0-0.2,0-0.3c0.1,0,0.2,0,0.3,0C67.7,77.3,67.7,77.4,67.7,77.5z M67.3,77.1c0-0.1,0-0.2,0-0.3c0.1,0,0.2,0,0.3,0
				c0,0.1,0,0.2,0,0.3C67.5,77.1,67.4,77.1,67.3,77.1z M67.2,77.1c-0.1,0-0.2,0-0.3,0c0-0.1,0-0.2,0-0.3c0.1,0,0.2,0,0.3,0
				C67.2,76.8,67.2,76.9,67.2,77.1z M66.9,76.6c0-0.1,0-0.2,0-0.3c0.1,0,0.2,0,0.3,0c0,0.1,0,0.2,0,0.3C67.1,76.6,67,76.6,66.9,76.6
				z M66.7,76.6c-0.1,0-0.2,0-0.3,0c0-0.1,0-0.2,0-0.3c0.1,0,0.2,0,0.3,0C66.7,76.4,66.7,76.5,66.7,76.6z M66.3,76.6
				c-0.1,0-0.2,0-0.3,0c0-0.1,0-0.2,0-0.3c0.1,0,0.2,0,0.3,0C66.3,76.4,66.3,76.5,66.3,76.6z M65.9,76.2c0-0.1,0-0.1,0-0.2
				c0.1,0,0.2,0,0.3,0c0,0.1,0,0.1,0,0.2C66.2,76.2,66,76.2,65.9,76.2z M65.8,76.2c-0.1,0-0.2,0-0.3,0c0-0.1,0-0.1,0-0.2
				c0.1,0,0.2,0,0.3,0C65.8,76.1,65.8,76.2,65.8,76.2z M65.8,76.3c0,0.1,0,0.2,0,0.3c-0.1,0-0.2,0-0.3,0c0-0.1,0-0.2,0-0.3
				C65.6,76.3,65.7,76.3,65.8,76.3z M65.4,76.6c-0.1,0-0.2,0-0.3,0c0-0.1,0-0.2,0-0.3c0.1,0,0.2,0,0.3,0
				C65.4,76.4,65.4,76.5,65.4,76.6z M64.9,76.6c-0.1,0-0.2,0-0.3,0c0-0.1,0-0.2,0-0.3c0.1,0,0.2,0,0.3,0
				C64.9,76.4,64.9,76.5,64.9,76.6z M64.9,76.7c0,0.1,0,0.2,0,0.3c-0.1,0-0.2,0-0.3,0c0-0.1,0-0.2,0-0.3
				C64.7,76.7,64.8,76.7,64.9,76.7z M64.4,77.1c-0.1,0-0.2,0-0.3,0c0-0.1,0-0.2,0-0.3c0.1,0,0.2,0,0.3,0
				C64.4,76.9,64.4,77,64.4,77.1z M64.4,77.2c0,0.1,0,0.2,0,0.3c-0.1,0-0.2,0-0.3,0c0-0.1,0-0.2,0-0.3
				C64.2,77.2,64.3,77.2,64.4,77.2z M64,77.5c-0.1,0-0.2,0-0.3,0c0-0.1,0-0.2,0-0.3c0.1,0,0.2,0,0.3,0C64,77.3,64,77.4,64,77.5z
				 M64,77.7c0,0.1,0,0.2,0,0.3c-0.1,0-0.2,0-0.3,0c0-0.1,0-0.2,0-0.3C63.8,77.7,63.9,77.7,64,77.7z M63.9,78.1c0,0.1,0,0.2,0,0.3
				c-0.1,0-0.2,0-0.3,0c0-0.1,0-0.2,0-0.3C63.8,78.1,63.9,78.1,63.9,78.1z M63.6,78.5c-0.1,0-0.1,0-0.2,0c0-0.1,0-0.2,0-0.3
				c0.1,0,0.1,0,0.2,0C63.6,78.2,63.6,78.4,63.6,78.5z M63.6,78.6c0,0.1,0,0.2,0,0.3c-0.1,0-0.1,0-0.2,0c0-0.1,0-0.2,0-0.3
				C63.4,78.6,63.5,78.6,63.6,78.6z M63.7,78.6c0.1,0,0.2,0,0.3,0c0,0.1,0,0.2,0,0.3c-0.1,0-0.2,0-0.3,0
				C63.7,78.8,63.7,78.7,63.7,78.6z M64,79c0,0.1,0,0.2,0,0.3c-0.1,0-0.2,0-0.3,0c0-0.1,0-0.2,0-0.3C63.8,79,63.9,79,64,79z
				 M64,79.5c0,0.1,0,0.2,0,0.3c-0.1,0-0.2,0-0.3,0c0-0.1,0-0.2,0-0.3C63.8,79.5,63.9,79.5,64,79.5z M64.1,79.5c0.1,0,0.2,0,0.3,0
				c0,0.1,0,0.2,0,0.3c-0.1,0-0.2,0-0.3,0C64.1,79.7,64.1,79.6,64.1,79.5z M64.4,80c0,0.1,0,0.2,0,0.3c-0.1,0-0.2,0-0.3,0
				c0-0.1,0-0.2,0-0.3C64.2,80,64.3,80,64.4,80z M64.5,80c0.1,0,0.2,0,0.3,0c0,0.1,0,0.2,0,0.3c-0.1,0-0.2,0-0.3,0
				C64.6,80.2,64.5,80.1,64.5,80z M64.9,80.4c0,0.1,0,0.2,0,0.3c-0.1,0-0.2,0-0.3,0c0-0.1,0-0.2,0-0.3
				C64.7,80.4,64.8,80.4,64.9,80.4z M65,80.4c0.1,0,0.2,0,0.3,0c0,0.1,0,0.2,0,0.3c-0.1,0-0.2,0-0.3,0C65,80.6,65,80.5,65,80.4z
				 M65.5,80.4c0.1,0,0.2,0,0.3,0c0,0.1,0,0.2,0,0.3c-0.1,0-0.2,0-0.3,0C65.5,80.6,65.5,80.5,65.5,80.4z M65.8,80.8
				c0,0.1,0,0.1,0,0.2c-0.1,0-0.2,0-0.3,0c0-0.1,0-0.1,0-0.2C65.6,80.8,65.7,80.8,65.8,80.8z M65.9,80.8c0.1,0,0.2,0,0.3,0
				c0,0.1,0,0.1,0,0.2c-0.1,0-0.2,0-0.3,0C65.9,81,65.9,80.9,65.9,80.8z M65.9,80.7c0-0.1,0-0.2,0-0.3c0.1,0,0.2,0,0.3,0
				c0,0.1,0,0.2,0,0.3C66.2,80.7,66,80.7,65.9,80.7z M66.4,80.4c0.1,0,0.2,0,0.3,0c0,0.1,0,0.2,0,0.3c-0.1,0-0.2,0-0.3,0
				C66.4,80.6,66.4,80.5,66.4,80.4z M66.9,80.4c0.1,0,0.2,0,0.3,0c0,0.1,0,0.2,0,0.3c-0.1,0-0.2,0-0.3,0
				C66.8,80.6,66.8,80.5,66.9,80.4z M66.9,80.3c0-0.1,0-0.2,0-0.3c0.1,0,0.2,0,0.3,0c0,0.1,0,0.2,0,0.3C67.1,80.3,67,80.3,66.9,80.3
				z M67.3,80c0.1,0,0.2,0,0.3,0c0,0.1,0,0.2,0,0.3c-0.1,0-0.2,0-0.3,0C67.3,80.2,67.3,80.1,67.3,80z M67.3,79.9c0-0.1,0-0.2,0-0.3
				c0.1,0,0.2,0,0.3,0c0,0.1,0,0.2,0,0.3C67.5,79.8,67.4,79.9,67.3,79.9z M67.8,79.5c0.1,0,0.2,0,0.3,0c0,0.1,0,0.2,0,0.3
				c-0.1,0-0.2,0-0.3,0C67.8,79.7,67.8,79.6,67.8,79.5z M67.8,79.4c0-0.1,0-0.2,0-0.3c0.1,0,0.2,0,0.3,0c0,0.1,0,0.2,0,0.3
				C68,79.4,67.9,79.4,67.8,79.4z M67.8,78.9c0-0.1,0-0.2,0-0.3c0.1,0,0.2,0,0.3,0c0,0.1,0,0.2,0,0.3C68,78.9,67.9,78.9,67.8,78.9z
				 M68.2,78.6c0.1,0,0.1,0,0.2,0c0,0.1,0,0.2,0,0.3c-0.1,0-0.1,0-0.2,0C68.2,78.8,68.2,78.7,68.2,78.6z M68.2,78.5
				c0-0.1,0-0.2,0-0.3c0.1,0,0.1,0,0.2,0c0,0.1,0,0.2,0,0.3C68.3,78.5,68.2,78.5,68.2,78.5z M68.3,77.3c0,0.1,0,0.2,0,0.3
				c-0.1,0-0.1,0-0.2,0c0-0.1,0-0.2,0-0.3C68.2,77.3,68.3,77.3,68.3,77.3z M68,76.9c0,0.1,0,0.2,0,0.3c-0.1,0-0.2,0-0.3,0
				c0-0.1,0-0.2,0-0.3C67.8,76.8,67.9,76.8,68,76.9z M67.5,76.4c0,0.1,0,0.2,0,0.3c-0.1,0-0.2,0-0.3,0c0-0.1,0-0.2,0-0.3
				C67.3,76.4,67.4,76.4,67.5,76.4z M67.1,76.1c0,0.1,0,0.1,0.1,0.2c-0.1,0-0.2,0-0.3,0c0-0.1,0-0.2,0-0.2
				C66.9,76.1,67,76.1,67.1,76.1z M66.7,76c0,0.1,0,0.1,0,0.2c-0.1,0-0.2,0-0.3,0c0-0.1,0-0.1,0-0.2C66.5,76,66.6,76,66.7,76z
				 M66.2,75.8c0,0,0,0.1,0,0.1c-0.1,0-0.2,0-0.3,0c0-0.1,0-0.1,0-0.1C66,75.8,66.1,75.8,66.2,75.8z M65.5,75.8c0.1,0,0.2,0,0.3,0
				c0,0,0,0.1,0,0.1c-0.1,0-0.2,0-0.3,0C65.5,75.9,65.5,75.9,65.5,75.8z M65.4,76c0,0.1,0,0.1,0,0.2c-0.1,0-0.2,0-0.3,0
				c0-0.1,0-0.2,0-0.2C65.2,76,65.3,76,65.4,76z M64.7,76.1c0.1,0,0.2,0,0.3,0c0,0.1,0,0.1,0,0.2c-0.1,0-0.2,0-0.3,0
				C64.6,76.2,64.7,76.1,64.7,76.1z M64.2,76.4c0.1,0,0.2,0,0.3,0c0,0.1,0,0.2,0,0.3c-0.1,0-0.2,0-0.3,0
				C64.2,76.6,64.2,76.5,64.2,76.4z M63.8,76.9c0.1,0,0.2,0,0.3,0c0,0.1,0,0.2,0,0.3c-0.1,0-0.2,0-0.3,0
				C63.8,77.1,63.8,77,63.8,76.9z M63.4,77.3c0.1,0,0.1,0,0.2-0.1c0,0.1,0,0.2,0,0.3c-0.1,0-0.2,0-0.2,0
				C63.4,77.5,63.4,77.4,63.4,77.3z M63.4,77.7c0.1,0,0.1,0,0.2,0c0,0.1,0,0.2,0,0.3c-0.1,0-0.1,0-0.2,0
				C63.4,77.9,63.4,77.8,63.4,77.7z M63.2,78.2c0,0,0.1,0,0.1,0c0,0.1,0,0.2,0,0.3c-0.1,0-0.1,0-0.1,0
				C63.2,78.4,63.2,78.3,63.2,78.2z M63.2,78.9c0-0.1,0-0.2,0-0.3c0,0,0.1,0,0.1,0c0,0.1,0,0.2,0,0.3C63.3,78.9,63.2,78.9,63.2,78.9
				z M63.4,79c0.1,0,0.1,0,0.2,0c0,0.1,0,0.2,0,0.3c-0.1,0-0.2,0-0.2,0C63.4,79.2,63.4,79.1,63.4,79z M63.4,79.7c0-0.1,0-0.2,0-0.3
				c0.1,0,0.1,0,0.2,0c0,0.1,0,0.2,0,0.3C63.6,79.7,63.5,79.7,63.4,79.7z M63.8,80.2c0-0.1,0-0.2,0-0.3c0.1,0,0.2,0,0.3,0
				c0,0.1,0,0.2,0,0.3C64,80.2,63.9,80.2,63.8,80.2z M64.2,80.6c0-0.1,0-0.2,0-0.3c0.1,0,0.2,0,0.3,0c0,0.1,0,0.2,0,0.3
				C64.4,80.6,64.3,80.6,64.2,80.6z M64.7,81c0-0.1,0-0.1-0.1-0.2c0.1,0,0.2,0,0.3,0c0,0.1,0,0.2,0,0.2C64.9,81,64.8,81,64.7,81z
				 M65.1,81c0-0.1,0-0.1,0-0.2c0.1,0,0.2,0,0.3,0c0,0.1,0,0.1,0,0.2C65.3,81,65.2,81,65.1,81z M65.5,81.2c0,0,0-0.1,0-0.1
				c0.1,0,0.2,0,0.3,0c0,0.1,0,0.1,0,0.1C65.7,81.2,65.6,81.2,65.5,81.2z M66.2,81.2c-0.1,0-0.2,0-0.3,0c0,0,0-0.1,0-0.1
				c0.1,0,0.2,0,0.3,0C66.2,81.1,66.2,81.2,66.2,81.2z M66.4,81c0-0.1,0-0.1,0-0.2c0.1,0,0.2,0,0.3,0c0,0.1,0,0.2,0,0.2
				C66.6,81,66.5,81,66.4,81z M67.1,81c-0.1,0-0.2,0-0.3,0c0-0.1,0-0.1,0-0.2c0.1,0,0.2,0,0.3,0C67.1,80.8,67.1,80.9,67.1,81z
				 M67.5,80.6c-0.1,0-0.2,0-0.3,0c0-0.1,0-0.2,0-0.3c0.1,0,0.2,0,0.3,0C67.6,80.4,67.6,80.5,67.5,80.6z M68,80.2
				c-0.1,0-0.2,0-0.3,0c0-0.1,0-0.2,0-0.3c0.1,0,0.2,0,0.3,0C68,80,68,80.1,68,80.2z M68.3,79.7c-0.1,0-0.1,0-0.2,0.1
				c0-0.1,0-0.2,0-0.3c0.1,0,0.2,0,0.2,0C68.3,79.5,68.3,79.6,68.3,79.7z M68.4,79.3c-0.1,0-0.1,0-0.2,0c0-0.1,0-0.2,0-0.3
				c0.1,0,0.1,0,0.2,0C68.4,79.1,68.4,79.2,68.4,79.3z M68.6,78.9c0,0-0.1,0-0.1,0c0-0.1,0-0.2,0-0.3c0.1,0,0.1,0,0.1,0
				C68.6,78.7,68.6,78.8,68.6,78.9z M68.6,78.5c0,0-0.1,0-0.1,0c0-0.1,0-0.2,0-0.3c0.1,0,0.1,0,0.1,0C68.6,78.3,68.6,78.4,68.6,78.5
				z"/>
		</g>
	</g>
	<circle class="st2" cx="65.9" cy="23" r="7.7"/>
	<radialGradient id="SVGID_10_" cx="65.8769" cy="22.99" r="6.6921" gradientUnits="userSpaceOnUse">
		<stop  offset="0" style="stop-color:#FEFEFE"/>
		<stop  offset="1" style="stop-color:#D1D2D4"/>
	</radialGradient>
	<circle class="st20" cx="65.9" cy="23" r="6.7"/>
	<linearGradient id="SVGID_11_" gradientUnits="userSpaceOnUse" x1="16.044" y1="85.1891" x2="42.6542" y2="58.5788">
		<stop  offset="0.1061" style="stop-color:#C9B866"/>
		<stop  offset="1" style="stop-color:#D6BC56"/>
	</linearGradient>
	<circle class="st21" cx="29.8" cy="71.5" r="16.7"/>
	<linearGradient id="SVGID_12_" gradientUnits="userSpaceOnUse" x1="16.6124" y1="84.6206" x2="42.1201" y2="59.1129">
		<stop  offset="7.733810e-02" style="stop-color:#262227"/>
		<stop  offset="1" style="stop-color:#48484B"/>
	</linearGradient>
	<circle class="st22" cx="29.8" cy="71.5" r="16"/>
	
		<ellipse transform="matrix(0.7071 -0.7071 0.7071 0.7071 -41.8192 41.9788)" class="st10" cx="29.8" cy="71.5" rx="15.2" ry="15.2"/>
	<linearGradient id="SVGID_13_" gradientUnits="userSpaceOnUse" x1="18.4856" y1="82.7474" x2="40.36" y2="60.873">
		<stop  offset="0" style="stop-color:#48484B"/>
		<stop  offset="0.9227" style="stop-color:#262227"/>
	</linearGradient>
	<circle class="st23" cx="29.8" cy="71.5" r="13.7"/>
	<linearGradient id="SVGID_14_" gradientUnits="userSpaceOnUse" x1="18.8731" y1="82.3599" x2="39.9959" y2="61.2371">
		<stop  offset="7.733810e-02" style="stop-color:#262227"/>
		<stop  offset="1" style="stop-color:#48484B"/>
	</linearGradient>
	<circle class="st24" cx="29.8" cy="71.5" r="13.2"/>
	<linearGradient id="SVGID_15_" gradientUnits="userSpaceOnUse" x1="23.6658" y1="77.5672" x2="38.6979" y2="62.5351">
		<stop  offset="0" style="stop-color:#48484B"/>
		<stop  offset="0.9227" style="stop-color:#262227"/>
	</linearGradient>
	<path class="st25" d="M37.2,71.5c0-4.1-3.3-7.4-7.4-7.4c-4.1,0-7.4,3.3-7.4,7.4c0,4.1,3.3,7.4,7.4,7.4
		C33.9,78.9,37.2,75.6,37.2,71.5z"/>
	<g>
		<defs>
			<filter id="Adobe_OpacityMaskFilter_2_" filterUnits="userSpaceOnUse" x="29.8" y="68.3" width="1" height="0.8">
				<feFlood  style="flood-color:white;flood-opacity:1" result="back"/>
				<feBlend  in="SourceGraphic" in2="back" mode="normal"/>
			</filter>
		</defs>
		<mask maskUnits="userSpaceOnUse" x="29.8" y="68.3" width="1" height="0.8" id="SVGID_16_">
			<g class="st26">
				
					<image style="overflow:visible;" width="22" height="21" xlink:href="DD5FA9B3.jpg"  transform="matrix(0.24 0 0 0.24 27.5836 66.2777)">
				</image>
			</g>
		</mask>
		<g class="st27">
			<path class="st7" d="M30.8,68.8c0-0.2-0.2-0.4-0.5-0.4c-0.3,0-0.5,0.2-0.5,0.4c0,0.2,0.2,0.4,0.5,0.4
				C30.6,69.2,30.8,69,30.8,68.8z"/>
		</g>
	</g>
	<g>
		<path class="st17" d="M33.9,71.5c0-2.3-1.8-4.1-4.1-4.1s-4.1,1.8-4.1,4.1c0,2.3,1.8,4.1,4.1,4.1S33.9,73.8,33.9,71.5z"/>
		<g>
			
				<image style="overflow:visible;" width="30" height="30" xlink:href="DD5FA9B0.png"  transform="matrix(0.24 0 0 0.24 26.1653 67.9224)">
			</image>
			<g>
				
					<image style="overflow:visible;" width="310" height="310" xlink:href="DD5FA9BF.png"  transform="matrix(0.24 0 0 0.24 -8.1764 32.6777)">
				</image>
			</g>
			<g>
				
					<image style="overflow:visible;" width="305" height="306" xlink:href="DD5FA9B2.png"  transform="matrix(0.24 0 0 0.24 -5.2964 36.0377)">
				</image>
			</g>
		</g>
	</g>
	<linearGradient id="SVGID_17_" gradientUnits="userSpaceOnUse" x1="16.044" y1="44.1269" x2="42.6542" y2="17.5167">
		<stop  offset="0.1061" style="stop-color:#C9B866"/>
		<stop  offset="1" style="stop-color:#D6BC56"/>
	</linearGradient>
	<circle class="st28" cx="29.8" cy="30.4" r="16.7"/>
	<linearGradient id="SVGID_18_" gradientUnits="userSpaceOnUse" x1="16.6124" y1="43.5585" x2="42.1201" y2="18.0507">
		<stop  offset="7.733810e-02" style="stop-color:#262227"/>
		<stop  offset="1" style="stop-color:#48484B"/>
	</linearGradient>
	<circle class="st29" cx="29.8" cy="30.4" r="16"/>
	<circle class="st10" cx="29.8" cy="30.4" r="15.2"/>
	<linearGradient id="SVGID_19_" gradientUnits="userSpaceOnUse" x1="18.4855" y1="41.6853" x2="40.36" y2="19.8108">
		<stop  offset="0" style="stop-color:#48484B"/>
		<stop  offset="0.9227" style="stop-color:#262227"/>
	</linearGradient>
	<circle class="st30" cx="29.8" cy="30.4" r="13.7"/>
	<linearGradient id="SVGID_20_" gradientUnits="userSpaceOnUse" x1="18.8731" y1="41.2978" x2="39.9959" y2="20.175">
		<stop  offset="7.733810e-02" style="stop-color:#262227"/>
		<stop  offset="1" style="stop-color:#48484B"/>
	</linearGradient>
	<circle class="st31" cx="29.8" cy="30.4" r="13.2"/>
	<linearGradient id="SVGID_21_" gradientUnits="userSpaceOnUse" x1="23.6658" y1="36.5051" x2="38.6979" y2="21.4729">
		<stop  offset="0" style="stop-color:#48484B"/>
		<stop  offset="0.9227" style="stop-color:#262227"/>
	</linearGradient>
	<circle class="st32" cx="29.8" cy="30.4" r="7.4"/>
	<g>
		<path class="st17" d="M33.9,30.7c0-2.3-1.8-4.1-4.1-4.1s-4.1,1.8-4.1,4.1s1.8,4.1,4.1,4.1S33.9,33,33.9,30.7z"/>
		<g>
			
				<image style="overflow:visible;" width="30" height="30" xlink:href="DD5FA9B6.png"  transform="matrix(0.24 0 0 0.24 26.1653 27.1224)">
			</image>
			<g>
				
					<image style="overflow:visible;" width="310" height="310" xlink:href="FED386E0.png"  transform="matrix(0.24 0 0 0.24 -8.1764 -8.1223)">
				</image>
			</g>
			<g>
				
					<image style="overflow:visible;" width="305" height="306" xlink:href="FED386E7.png"  transform="matrix(0.24 0 0 0.24 -5.2964 -4.7623)">
				</image>
			</g>
		</g>
	</g>
	<g>
		<path class="st17" d="M69.6,51.2c0-2.3-1.8-4.1-4.1-4.1c-2.3,0-4.1,1.8-4.1,4.1c0,2.3,1.8,4.1,4.1,4.1
			C67.8,55.4,69.6,53.5,69.6,51.2z"/>
		<g>
			
				<image style="overflow:visible;" width="30" height="29" xlink:href="FED386E1.png"  transform="matrix(0.24 0 0 0.24 61.9253 47.7624)">
			</image>
			<g>
				
					<image style="overflow:visible;" width="310" height="310" xlink:href="FED386E3.png"  transform="matrix(0.24 0 0 0.24 27.5836 12.2777)">
				</image>
			</g>
			<g>
				
					<image style="overflow:visible;" width="305" height="306" xlink:href="FED386FE.png"  transform="matrix(0.24 0 0 0.24 30.4636 15.8777)">
				</image>
			</g>
		</g>
	</g>
</g>
</svg>
