<svg xmlns="http://www.w3.org/2000/svg" width="70" height="70" viewBox="0 0 70 70">
    <defs>
        <style>
            .cls-2{fill:#6441eb}
        </style>
    </defs>
    <g id="Group_13221" transform="translate(-562 -828)">
        <g id="Group_6858" transform="translate(562 828)">
            <path id="Rectangle_11870" fill="none" d="M0 0H70V70H0z"/>
            <g id="Page-1" transform="translate(7.836 7.891)">
                <g id="_033---Insurance">
                    <path id="Shape" d="M42.115 7.182V21.11a9.032 9.032 0 0 1-3.751 7.33L29 35.2a.76.76 0 0 1-.886 0l-.913-.66-8.451-6.1A9.032 9.032 0 0 1 15 21.11V7.182a.417.417 0 0 1 .253-.389L27.2 1.552l1.184-.515a.452.452 0 0 1 .343 0l13.135 5.757a.417.417 0 0 1 .253.388z" class="cls-2" transform="translate(-1.458 -.097)"/>
                    <path id="Shape-2" fill="#f2eeff" d="M21.271 25.627A5.538 5.538 0 0 1 19 21.167V9.392L28.942 5l9.942 4.392v11.775a5.532 5.532 0 0 1-2.271 4.46l-7.671 5.584z" transform="translate(-1.843 -.481)"/>
                    <path id="Shape-3" fill="#e7eaf0" d="M57.43 29.189a1.935 1.935 0 0 1-.181.822L53.707 37.8a8.72 8.72 0 0 1-1.781 2.567L45.391 46.9H42.68l6.535-6.535A8.72 8.72 0 0 0 51 37.8l3.543-7.791a1.935 1.935 0 0 0 .181-.822 1.988 1.988 0 0 0-.624-1.437 1.944 1.944 0 0 1 1.356-.542 1.988 1.988 0 0 1 1.974 1.981z" transform="translate(-4.121 -2.617)"/>
                    <rect id="Rectangle-path" width="11.75" height="9.038" class="cls-2" rx="1" transform="translate(30.714 44.287)"/>
                    <rect id="Rectangle-path-2" width="11.75" height="9.038" fill="#7f5eff" rx="1" transform="translate(11.733 44.287)"/>
                    <path id="Shape-4" d="M28.461 36.153a1.653 1.653 0 0 1-.97-.315l-9.37-6.758A9.955 9.955 0 0 1 14 21.029V6.838a.9.9 0 0 1 .542-.828L28.1.076a.9.9 0 0 1 .723 0L42.38 6.01a.9.9 0 0 1 .542.828v14.19A9.955 9.955 0 0 1 38.8 29.08l-9.37 6.76a1.659 1.659 0 0 1-.969.313zM15.808 7.429v13.6a8.143 8.143 0 0 0 3.371 6.585l9.282 6.695 9.282-6.695a8.143 8.143 0 0 0 3.371-6.585v-13.6L28.461 1.891z" transform="translate(-1.362 -.001)"/>
                    <path id="Shape-5" d="M28.846 32.291a.9.9 0 0 1-.529-.171l-7.7-5.551A6.327 6.327 0 0 1 18 21.449V9.623a.9.9 0 0 1 .542-.828l9.942-4.353a.9.9 0 0 1 .723 0l9.942 4.353a.9.9 0 0 1 .542.828v11.826a6.327 6.327 0 0 1-2.621 5.119l-7.7 5.551a.9.9 0 0 1-.524.172zM21.679 25.1l7.167 5.17 7.167-5.17a4.519 4.519 0 0 0 1.871-3.653V10.213l-9.038-3.956-9.038 3.956v11.236a4.519 4.519 0 0 0 1.871 3.651z" transform="translate(-1.747 -.42)"/>
                    <path id="Shape-6" d="M21.693 47.715h-8.751a.9.9 0 0 1-.639-.265l-6.536-6.535A9.6 9.6 0 0 1 3.8 38.082L.263 30.291a2.881 2.881 0 0 1 5.272-2.327l1.955 4.567a4.158 4.158 0 0 1 4.939.261 17.88 17.88 0 0 0 5.171 3.321 6.507 6.507 0 0 1 3.012 2.2 9.47 9.47 0 0 1 1.988 5.913v2.586a.9.9 0 0 1-.907.903zm-8.378-1.808h7.475v-1.681a7.669 7.669 0 0 0-1.584-4.79 4.748 4.748 0 0 0-2.174-1.612 19.27 19.27 0 0 1-5.766-3.651 2.35 2.35 0 0 0-2.927-.049 8.914 8.914 0 0 0 1.114 1.356l4.129 4.13a.9.9 0 1 1-1.282 1.277l-4.129-4.13a10.665 10.665 0 0 1-2.279-3.367l-2.019-4.715a1.074 1.074 0 1 0-1.965.868l3.542 7.792a7.817 7.817 0 0 0 1.6 2.3z" transform="translate(-.017 -2.525)"/>
                    <path id="Shape-7" d="M23.75 58.846h-9.942A1.808 1.808 0 0 1 12 57.038v-7.23A1.808 1.808 0 0 1 13.808 48h9.942a1.808 1.808 0 0 1 1.808 1.808v7.231a1.808 1.808 0 0 1-1.808 1.807zm-9.942-9.038v7.231h9.942v-7.231z" transform="translate(-1.17 -4.617)"/>
                    <path id="Shape-8" d="M21.808 54.808h-.9A.9.9 0 1 1 20.9 53h.9a.9.9 0 0 1 0 1.808z" transform="translate(-1.939 -5.098)"/>
                    <path id="Shape-9" d="M44.655 47.711H35.9a.9.9 0 0 1-.9-.9v-2.589a9.47 9.47 0 0 1 1.981-5.92 6.507 6.507 0 0 1 3.012-2.2 17.88 17.88 0 0 0 5.174-3.321 4.168 4.168 0 0 1 4.945-.271l1.95-4.551a2.881 2.881 0 1 1 5.271 2.327l-3.542 7.792a9.6 9.6 0 0 1-1.962 2.833l-6.536 6.533a.9.9 0 0 1-.638.267zM36.808 45.9h7.474l6.271-6.271a7.817 7.817 0 0 0 1.6-2.3l3.542-7.792a1.074 1.074 0 1 0-1.965-.869l-2.03 4.718a10.665 10.665 0 0 1-2.279 3.367l-4.129 4.13a.9.9 0 0 1-1.276-1.283l4.129-4.13a8.863 8.863 0 0 0 1.12-1.365 2.35 2.35 0 0 0-2.933.057 19.262 19.262 0 0 1-5.767 3.651A4.75 4.75 0 0 0 38.4 39.43a7.669 7.669 0 0 0-1.588 4.791z" transform="translate(-3.382 -2.52)"/>
                    <path id="Shape-10" d="M44.75 58.846h-9.942A1.808 1.808 0 0 1 33 57.038v-7.23A1.808 1.808 0 0 1 34.808 48h9.942a1.808 1.808 0 0 1 1.808 1.808v7.231a1.808 1.808 0 0 1-1.808 1.807zm-9.942-9.038v7.231h9.942v-7.231z" transform="translate(-3.19 -4.617)"/>
                    <path id="Shape-11" d="M38.808 54.808h-.9A.9.9 0 0 1 37.9 53h.9a.9.9 0 1 1 0 1.808z" transform="translate(-3.574 -5.098)"/>
                    <path id="Shape-12" d="M27.519 24.654a.9.9 0 0 1-.542-.181l-3.615-2.711a.9.9 0 1 1 1.085-1.446l2.853 2.138L34 12.4a.9.9 0 0 1 1.5 1l-7.229 10.851a.9.9 0 0 1-.6.39.968.968 0 0 1-.152.013z" transform="translate(-2.228 -1.155)"/>
                </g>
            </g>
        </g>
    </g>
</svg>
