<svg xmlns="http://www.w3.org/2000/svg" width="70" height="70" viewBox="0 0 70 70">
    <g>
        <path fill="none" d="M0 0H70V70H0z"/>
    </g>
    <g>
        <g>
            <path fill="#7f5eff" d="M43.749 9.94h-2.9v1.486a1.81 1.81 0 0 1-1.812 1.812H29.2a1.526 1.526 0 0 1-1.521-1.538V9.94h-2.911a3.628 3.628 0 0 0-3.625 3.625v46.057a3.628 3.628 0 0 0 3.625 3.625h18.981a3.62 3.62 0 0 0 3.625-3.625V13.565a3.62 3.62 0 0 0-3.625-3.625zm-9.485 34.41a9.557 9.557 0 1 1 9.557-9.557 9.563 9.563 0 0 1-9.557 9.557z" transform="translate(20.979 7.438) translate(.904 .909) translate(-21.143 -9.94)"/>
        </g>
        <g>
            <path d="M43.907 64.311H24.926A4.537 4.537 0 0 1 20.4 59.78V13.722a4.537 4.537 0 0 1 4.531-4.531h18.976a4.537 4.537 0 0 1 4.531 4.531V59.78a4.537 4.537 0 0 1-4.531 4.531zM24.926 11a2.723 2.723 0 0 0-2.718 2.718V59.78a2.723 2.723 0 0 0 2.718 2.72h18.981a2.723 2.723 0 0 0 2.718-2.718v-46.06A2.723 2.723 0 0 0 43.907 11z" transform="translate(20.979 7.438) translate(0 .004) translate(-20.395 -9.191)"/>
        </g>
        <g>
            <path d="M36 52.06h-6.558a.906.906 0 1 1 0-1.812H36a.906.906 0 0 1 0 1.812z" transform="translate(20.979 7.438) translate(9.836 49.61) translate(-28.536 -50.248)"/>
        </g>
        <g>
            <path d="M31.125 35.433a.9.9 0 0 1-.64-.265l-2.9-2.9a.906.906 0 1 1 1.285-1.278l2.256 2.256 5.953-5.953a.906.906 0 1 1 1.282 1.282l-6.594 6.593a.9.9 0 0 1-.642.265z" transform="translate(20.979 7.438) translate(8.371 21.554) translate(-27.323 -27.027)"/>
        </g>
        <g>
            <path d="M38.062 14.3h-9.825a2.439 2.439 0 0 1-2.437-2.437v-1.769a.906.906 0 0 1 .906-.906h13.17a.906.906 0 0 1 .906.906v1.486a2.723 2.723 0 0 1-2.72 2.72zM27.612 11v.863a.625.625 0 0 0 .625.625h9.825a.909.909 0 0 0 .907-.907V11z" transform="translate(20.979 7.438) translate(6.53) translate(-25.8 -9.188)"/>
        </g>
        <g>
            <path d="M33.8 42.774a10.464 10.464 0 1 1 10.468-10.465A10.477 10.477 0 0 1 33.8 42.774zm0-19.115a8.651 8.651 0 1 0 8.652 8.651 8.662 8.662 0 0 0-8.652-8.652z" transform="translate(20.979 7.438) translate(3.557 15.294) translate(-23.339 -21.846)"/>
        </g>
    </g>
</svg>
