<svg xmlns="http://www.w3.org/2000/svg" width="70" height="70" viewBox="0 0 70 70">
    <defs>
        <clipPath id="clip-path">
            <path id="Rectangle_13711" fill="none" stroke="#707070" d="M0 0H70V70H0z" transform="translate(240 1955)"/>
        </clipPath>
        <style>
            .cls-3{fill:#7f5eff}.cls-4{fill:#474d54}
        </style>
    </defs>
    <g id="Mask_Group_8827" clip-path="url(#clip-path)" transform="translate(-240 -1955)">
        <g id="Group_13219" transform="translate(-785.984 -1567.335)">
            <g id="_002-businessman" transform="translate(1038.66 3532.036)">
                <path id="Path_28370" d="M126.02 7.5a10 10 0 0 0-10 10v3.957a3.188 3.188 0 0 1 2.547-.832v-.5a.681.681 0 0 1 .73-.679 17.9 17.9 0 0 0 10.776-2.894.681.681 0 0 1 .871.106c2.543 2.734 2.528 2.628 2.528 2.985v.979a3.025 3.025 0 0 1 2.547.745V17.5a10 10 0 0 0-9.999-10z" class="cls-3" transform="translate(-106.054 -6.748)"/>
                <g id="Group_13217" transform="translate(11.891 28.643)">
                    <path id="Path_28371" d="M221.729 293.612l3.125-6.262-3.991-1.546-4.179 5.158 4.074 2.893a.659.659 0 0 0 .971-.243z" class="cls-3" transform="translate(-208.52 -285.804)"/>
                    <path id="Path_28372" d="M138.347 293.612l-3.125-6.262 3.991-1.546 4.179 5.158-4.074 2.893a.659.659 0 0 1-.971-.243z" class="cls-3" transform="translate(-135.222 -285.804)"/>
                </g>
                <path id="Path_28373" d="M190.09 337.271l-2.963 2.1 1.4 2.108h3.13l1.4-2.108z" class="cls-3" transform="translate(-170.03 -303.466)"/>
                <path id="Path_28374" d="M179.912 391.88h7.376l-2.123-12.544h-3.13z" class="cls-3" transform="translate(-163.542 -341.319)"/>
                <path id="Path_28375" d="M327.745 296.93a7.058 7.058 0 1 0 7.058 7.058 7.066 7.066 0 0 0-7.058-7.058z" class="cls-3" transform="translate(-290.209 -267.172)"/>
                <path id="Path_28376" d="M363.934 347.82a.75.75 0 0 1-.526-.215l-1.763-1.728a.752.752 0 0 1 1.055-1.077l1.238 1.214 2.955-2.881a.752.752 0 1 1 1.049 1.077l-3.481 3.393a.749.749 0 0 1-.527.217z" transform="translate(-326.86 -308.556)"/>
                <g id="Group_13218">
                    <path id="Path_28377" d="M56 26.534a.752.752 0 1 0-.271 1.479 8.951 8.951 0 0 1 .136 17.581l-.051.008a9.009 9.009 0 0 1-1.65.164h-.054a8.911 8.911 0 0 1-3.023-.525l-.1-.038-.2-.079-.1-.041q-.126-.052-.25-.109l-.1-.045-.147-.07-.1-.048-.1-.05q-.12-.063-.238-.129l-.047-.027-.094-.054-.047-.027q-.093-.055-.185-.112T49.2 44.3a8.95 8.95 0 0 1-4.039-7.48v-.048-.051-.052a8.848 8.848 0 0 1 1.91-5.369.772.772 0 0 0 .061-.09 8.926 8.926 0 0 1 5.362-3.2.752.752 0 1 0-.271-1.479 10.423 10.423 0 0 0-5.984 3.4l-4.671-1.809v-2.601a8.1 8.1 0 0 0 3.129-5.47 3.682 3.682 0 0 0 2.259-.887 3.6 3.6 0 0 0 .345-5.116v-3.3a10.752 10.752 0 0 0-21.5 0v3.383a3.405 3.405 0 0 0-.905 2.3 3.594 3.594 0 0 0 1.25 2.728 3.681 3.681 0 0 0 2.259.886 8.023 8.023 0 0 0 2.23 4.673 7.939 7.939 0 0 0 1.076.924v2.48l-10.568 4.101-.014.006a7.7 7.7 0 0 0-4.554 7.037v10.343a1.7 1.7 0 0 0 1.7 1.7h36.739a1.7 1.7 0 0 0 1.695-1.695v-2.671A10.455 10.455 0 0 0 56 26.534zm-12.235 4.058l-2.708 5.427-3.332-2.367 2.55-3.148.779-.962zm-7.126 4.133l1.936 1.375-.775 1.165h-2.323L34.7 36.1zm0-2.122l-3.43-4.234v-1.875a8.675 8.675 0 0 0 3.213.689H37.263q.248-.019.493-.052a8.033 8.033 0 0 0 2.305-.678v1.944zm9.413-17.684a2.1 2.1 0 0 1-.078 3.106 2.185 2.185 0 0 1-1.222.515v-4.2a2.221 2.221 0 0 1 .949.315h.005l.028.018a2.148 2.148 0 0 1 .3.234zM28.343 18.54a2.184 2.184 0 0 1-1.222-.514 2.092 2.092 0 0 1-.727-1.588 1.956 1.956 0 0 1 .639-1.42l.026-.018a2.507 2.507 0 0 1 1.285-.626v4.166zm.521-6.531l-.062.054a1.425 1.425 0 0 0-.155.169l-.034.045-.031.045-.015.023-.014.022-.013.023-.012.021-.012.022-.011.021-.011.022v.006l-.01.022-.008.019v.007l-.009.022v.006l-.007.019v.006l-.008.022v.007l-.006.017v.007l-.007.021v.008l-.005.018v.006l-.006.021v.008l-.006.022v.028l-.005.023v.025a3.933 3.933 0 0 0-1.117.284v-2.349a9.248 9.248 0 0 1 18.5 0v2.284a3.781 3.781 0 0 0-1.043-.21v-.2c0-.576-.084-.666-1.49-2.165l-.134-.143-.889-.95-.216-.232a1.43 1.43 0 0 0-1.777-.258l-.055.034a17.4 17.4 0 0 1-3.263 1.666l-.058.022q-.348.132-.7.25a16.381 16.381 0 0 1-6.209.84l-.074-.005a1.438 1.438 0 0 0-1.028.325zm.986 7.291v-.12V13.189a17.6 17.6 0 0 0 5.632-.568 19.049 19.049 0 0 0 5.384-2.355l.1-.064.19.2.052.056.064.068.014.015.041.044.726.775.116.124.267.285.021.022.056.06c.367.392.625.672.733.809l.007.009V19.3a6.593 6.593 0 0 1-2.819 5.191l-.038.025a6.544 6.544 0 0 1-3.296 1.151h-.006l-.118.007h-.388a7.219 7.219 0 0 1-2.732-.549A6.62 6.62 0 0 1 29.85 19.3zm2.37 10.243l3.33 4.11-3.329 2.364-2.708-5.427zm-7.183 20.266v-8.941a.752.752 0 1 0-1.5 0v8.941h-5.259a.2.2 0 0 1-.2-.2V39.265a6.2 6.2 0 0 1 3.622-5.644l6.409-2.485 2.819 5.65a1.411 1.411 0 0 0 2.079.52l.473-.336.807 1.214-1.971 11.625zm23.21 0h-7.285l-.675-3.986a.752.752 0 1 0-1.482.251l.632 3.736h-5.6l1.869-11.04h1.86l.643 3.8a.752.752 0 1 0 1.482-.251l-.7-4.13.807-1.214.473.336a1.411 1.411 0 0 0 2.079-.52l2.819-5.65.128.05a10.452 10.452 0 0 0-.855 1.642v.005l-.009.022a10.337 10.337 0 0 0-.774 3.7v.256a10.434 10.434 0 0 0 3.664 7.942l.048.041.1.08.1.079.148.117.05.038.1.076.2.148.183.127v4.343zm6.958-.191a.191.191 0 0 1-.191.191h-5.263v-3.493q.346.159.705.294l.12.044.181.063q.121.041.244.079a10.419 10.419 0 0 0 3.105.471 10.532 10.532 0 0 0 1.094-.057v2.405z" transform="translate(-16.575)"/>
                </g>
            </g>
        </g>
    </g>
</svg>
