<svg xmlns="http://www.w3.org/2000/svg" width="70" height="70" viewBox="0 0 70 70">
    <g>
        <g>
            <path d="M36.111 56.34h-6.484a.82.82 0 0 1-.809-.687l-.918-5.57a17.589 17.589 0 0 1-3.711-1.532l-4.622 3.27a.82.82 0 0 1-1.049-.084l-4.667-4.595a.82.82 0 0 1-.091-1.064l3.293-4.586a17.723 17.723 0 0 1-1.545-3.713l-5.576-.945a.821.821 0 0 1-.684-.809V29.54a.82.82 0 0 1 .684-.808l5.577-.946a18.1 18.1 0 0 1 1.53-3.686l-3.28-4.621a.82.82 0 0 1 .09-1.055l4.585-4.574a.82.82 0 0 1 1.052-.09l4.623 3.271a17.926 17.926 0 0 1 3.71-1.531l.915-5.57a.822.822 0 0 1 .81-.687h6.484a.82.82 0 0 1 .809.687l.917 5.57a17.926 17.926 0 0 1 3.71 1.531l4.622-3.271a.822.822 0 0 1 1.054.091l4.574 4.584a.82.82 0 0 1 .089 1.054L48.534 24.1a17.562 17.562 0 0 1 1.53 3.712l5.57.915a.822.822 0 0 1 .688.809v6.484a.822.822 0 0 1-.688.81l-5.57.915a18.32 18.32 0 0 1-1.783 4.17.821.821 0 0 1-1.419-.826 16.576 16.576 0 0 0 1.752-4.27.821.821 0 0 1 .662-.608l5.405-.888v-5.086l-5.405-.889a.82.82 0 0 1-.662-.608 15.967 15.967 0 0 0-1.758-4.262.818.818 0 0 1 .035-.895l3.173-4.475-3.6-3.6-4.484 3.173a.821.821 0 0 1-.89.036 16.3 16.3 0 0 0-4.266-1.76.821.821 0 0 1-.608-.662l-.889-5.4H30.24l-.888 5.4a.821.821 0 0 1-.608.662 16.288 16.288 0 0 0-4.267 1.76.825.825 0 0 1-.89-.036L19.1 15.5l-3.6 3.6 3.183 4.483a.822.822 0 0 1 .036.894 16.429 16.429 0 0 0-1.761 4.238.818.818 0 0 1-.656.6l-5.409.918v5.1l5.409.918a.819.819 0 0 1 .657.6 16.042 16.042 0 0 0 1.777 4.265.821.821 0 0 1-.036.9l-3.2 4.449 3.677 3.62 4.489-3.176a.821.821 0 0 1 .892-.036 15.923 15.923 0 0 0 4.262 1.759.822.822 0 0 1 .61.663l.888 5.4h5.09l.879-5.4a.822.822 0 0 1 .611-.665 15.675 15.675 0 0 0 4.21-1.727.82.82 0 0 1 .835 1.412 17.379 17.379 0 0 1-4.122 1.768l-.906 5.568a.82.82 0 0 1-.804.689z" transform="translate(10.117 10.114) translate(-9.25 -9.247)"/>
        </g>
        <g>
            <path fill="#7f5eff" d="M49.805 55.878a4.292 4.292 0 0 0 6.07 0 4.292 4.292 0 0 0 0-6.069l-11.16-11.16a7.01 7.01 0 0 1-2.044-5.724 11.082 11.082 0 0 0-15.178-11.516l5.557 5.557-2.208 3.887-3.878 2.2-5.557-5.557a11.089 11.089 0 0 0 11.528 15.182 7.005 7.005 0 0 1 5.717 2.046z" transform="translate(10.117 10.114) translate(11.573 11.587) translate(-19.76 -19.769)"/>
            <path d="M52.911 58.032a5.079 5.079 0 0 1-3.618-1.5L38.139 45.379A6.154 6.154 0 0 0 33.1 43.57a11.914 11.914 0 0 1-12.387-16.316.825.825 0 0 1 1.349-.271l5.112 5.117 3.134-1.777 1.785-3.141-5.113-5.117a.826.826 0 0 1 .275-1.35 11.906 11.906 0 0 1 16.306 12.374 6.151 6.151 0 0 0 1.809 5.048L56.53 49.3a5.117 5.117 0 0 1-3.618 8.736zM33.773 41.881a7.819 7.819 0 0 1 5.534 2.331L50.46 55.365a3.549 3.549 0 0 0 4.9 0 3.466 3.466 0 0 0 0-4.9L44.2 39.3a7.789 7.789 0 0 1-2.283-6.4A10.254 10.254 0 0 0 29.09 21.839l4.616 4.615a.826.826 0 0 1 .133.992l-2.207 3.887a.82.82 0 0 1-.311.31l-3.878 2.2a.826.826 0 0 1-.991-.135l-4.618-4.617a10.266 10.266 0 0 0 11.08 12.838 7.577 7.577 0 0 1 .859-.048z" transform="translate(10.117 10.114) translate(11.573 11.587) translate(-19.831 -19.841)"/>
        </g>
        <g>
            <path d="M52.911 58.026a5.079 5.079 0 0 1-3.615-1.5L38.143 45.375a6.158 6.158 0 0 0-5.043-1.811 11.908 11.908 0 0 1-12.38-16.308.82.82 0 0 1 1.34-.27l5.113 5.114 3.139-1.78 1.788-3.145-5.116-5.115a.819.819 0 0 1 .272-1.34 11.9 11.9 0 0 1 16.3 12.368 6.155 6.155 0 0 0 1.811 5.051L56.526 49.3a5.112 5.112 0 0 1-3.615 8.727zm-19.138-16.14a7.811 7.811 0 0 1 5.53 2.329l11.154 11.154a3.554 3.554 0 0 0 4.909 0 3.471 3.471 0 0 0 0-4.91L44.206 39.3a7.788 7.788 0 0 1-2.28-6.4 10.26 10.26 0 0 0-12.847-11.064l4.621 4.622a.819.819 0 0 1 .133.985l-2.207 3.886a.822.822 0 0 1-.31.308l-3.877 2.2a.821.821 0 0 1-.985-.133l-4.623-4.624a10.271 10.271 0 0 0 11.082 12.854 7.577 7.577 0 0 1 .86-.048z" transform="translate(10.117 10.114) translate(11.579 11.592) translate(-19.836 -19.845)"/>
        </g>
    </g>
    <path fill="none" d="M0 0H70V70H0z"/>
</svg>
