<?xml version="1.0" encoding="utf-8"?>
<!-- Generator: Adobe Illustrator 25.2.0, SVG Export Plug-In . SVG Version: 6.00 Build 0)  -->
<svg version="1.1" id="Layer_1" xmlns="http://www.w3.org/2000/svg" xmlns:xlink="http://www.w3.org/1999/xlink" x="0px" y="0px"
	 viewBox="0 0 3110.1 791" style="enable-background:new 0 0 3110.1 791;" xml:space="preserve">
<style type="text/css">
	.st0{fill:#000035;}
	.st1{fill:url(#SVGID_1_);}
	.st2{fill:#FFFFFF;}
	.st3{opacity:0.21;clip-path:url(#SVGID_3_);fill:#FFFFFF;enable-background:new    ;}
	.st4{opacity:0.21;clip-path:url(#SVGID_5_);fill:#FFFFFF;enable-background:new    ;}
	.st5{opacity:0.21;clip-path:url(#SVGID_7_);fill:#FFFFFF;enable-background:new    ;}
	.st6{opacity:0.21;clip-path:url(#SVGID_9_);fill:#FFFFFF;enable-background:new    ;}
	.st7{fill:#91B3FA;}
	.st8{fill:#7D97F4;}
	.st9{fill:url(#SVGID_10_);}
	.st10{fill:url(#SVGID_11_);}
	.st11{fill:url(#SVGID_12_);}
	.st12{fill:url(#SVGID_13_);}
	.st13{fill:url(#SVGID_14_);}
	.st14{fill:url(#SVGID_15_);}
	.st15{fill:url(#SVGID_16_);}
	.st16{fill:url(#SVGID_17_);}
	.st17{fill:#FBFF09;}
	.st18{fill:#FFFC5B;}
	.st19{fill:#F3FF03;}
	.st20{fill:url(#SVGID_18_);}
	.st21{fill:url(#SVGID_19_);}
	.st22{fill:#C9C90A;}
	.st23{fill:url(#SVGID_20_);}
	.st24{fill:url(#SVGID_21_);}
	.st25{fill:url(#SVGID_22_);}
	.st26{fill:#BDD0FB;}
	.st27{fill:url(#SVGID_23_);}
	.st28{fill:url(#SVGID_24_);}
	.st29{fill:url(#SVGID_25_);}
	.st30{fill:url(#SVGID_26_);}
	.st31{fill:url(#SVGID_27_);}
	.st32{fill:url(#SVGID_28_);}
	.st33{fill:url(#SVGID_29_);}
	.st34{fill:url(#SVGID_30_);}
	.st35{fill:url(#SVGID_31_);}
	.st36{fill:url(#SVGID_32_);}
	.st37{opacity:0.34;fill:url(#SVGID_33_);enable-background:new    ;}
	.st38{fill:#0005D1;}
	.st39{fill:none;}
</style>
<g>
	<path class="st0" d="M554.4,781.7H181.5c-19.9,0-36-16.1-36-36V49.2c0-19.9,16.1-36,36-36h372.9c19.9,0,36,16.1,36,36v696.5
		C590.4,765.6,574.3,781.7,554.4,781.7z"/>
	
		<linearGradient id="SVGID_1_" gradientUnits="userSpaceOnUse" x1="48.9147" y1="459.3966" x2="562.0222" y2="-16.3419" gradientTransform="matrix(1 0 0 -1 0 561.2)">
		<stop  offset="0" style="stop-color:#4F52FF"/>
		<stop  offset="1" style="stop-color:#4042E2"/>
	</linearGradient>
	<path class="st1" d="M534.1,758.2H201.9c-19.9,0-36-16.1-36-36V73.1c0-19.9,16.1-36,36-36h332.2c19.9,0,36,16.1,36,36v649.1
		C570,742.1,553.9,758.2,534.1,758.2z"/>
	<path class="st0" d="M474.8,59.4h-211c-9.3,0-16.9-7.6-16.9-16.9l0,0c0-3.5,2.9-6.4,6.4-6.4h232.1c3.5,0,6.4,2.9,6.4,6.4l0,0
		C491.7,51.7,484.1,59.4,474.8,59.4z"/>
	<path class="st2" d="M442.5,47.7H301.7c-2.3,0-4.3-1.9-4.3-4.3l0,0c0-2.3,1.9-4.3,4.3-4.3h140.8c2.3,0,4.3,1.9,4.3,4.3l0,0
		C446.8,45.8,444.9,47.7,442.5,47.7z"/>
</g>
<g>
	<g>
		<defs>
			<path id="SVGID_2_" d="M529.3,742.1H206.1c-19.9,0-36-16.1-36-36V93c0-19.9,16.1-36,36-36h323.2c19.9,0,36,16.1,36,36v613.1
				C565.3,726,549.2,742.1,529.3,742.1z"/>
		</defs>
		<clipPath id="SVGID_3_">
			<use xlink:href="#SVGID_2_"  style="overflow:visible;"/>
		</clipPath>
		<polygon class="st3" points="670.4,257.4 118.8,124.3 130,80.3 681.7,213.4 		"/>
	</g>
	<g>
		<defs>
			<path id="SVGID_4_" d="M529.3,742.1H206.1c-19.9,0-36-16.1-36-36V93c0-19.9,16.1-36,36-36h323.2c19.9,0,36,16.1,36,36v613.1
				C565.3,726,549.2,742.1,529.3,742.1z"/>
		</defs>
		<clipPath id="SVGID_5_">
			<use xlink:href="#SVGID_4_"  style="overflow:visible;"/>
		</clipPath>
		<polygon class="st4" points="624.1,670.2 72.4,537.1 107.3,400.5 659,533.7 		"/>
	</g>
	<g>
		<defs>
			<path id="SVGID_6_" d="M529.3,742.1H206.1c-19.9,0-36-16.1-36-36V93c0-19.9,16.1-36,36-36h323.2c19.9,0,36,16.1,36,36v613.1
				C565.3,726,549.2,742.1,529.3,742.1z"/>
		</defs>
		<clipPath id="SVGID_7_">
			<use xlink:href="#SVGID_6_"  style="overflow:visible;"/>
		</clipPath>
		<polygon class="st5" points="654.2,511.4 102.5,378.3 111.6,342.9 663.2,476 		"/>
	</g>
	<g>
		<defs>
			<path id="SVGID_8_" d="M529.3,742.1H206.1c-19.9,0-36-16.1-36-36V93c0-19.9,16.1-36,36-36h323.2c19.9,0,36,16.1,36,36v613.1
				C565.3,726,549.2,742.1,529.3,742.1z"/>
		</defs>
		<clipPath id="SVGID_9_">
			<use xlink:href="#SVGID_8_"  style="overflow:visible;"/>
		</clipPath>
		<polygon class="st6" points="656.3,332.4 104.6,199.3 109.9,178.7 661.5,311.8 		"/>
	</g>
</g>
<circle class="st0" cx="153.1" cy="153.1" r="153.1"/>
<circle class="st2" cx="153.9" cy="153.8" r="137.8"/>
<g>
	<path class="st7" d="M96.5,68.2l-17.2-8.4c-1.6-0.8-3.4-0.5-4.7,0.7l-1.9,1.7l-3,2.7l-1.9,1.7c-1.3,1.2-1.7,3-1.1,4.6l6.6,17.9
		c1,2.7,3.3,4.8,6.1,5.4L91,97l75.3,83.6l4.3-3.9l3-2.7l4.1-3.7l-75.3-83.6l-1.2-11.9C100.8,72,99.1,69.4,96.5,68.2z"/>
	<path class="st8" d="M95.3,69.2l-15.6-7.7c-1.4-0.7-3.2-0.6-4.4,0.5l-1.7,1.5l-2.7,2.4l-1.7,1.6c-1.2,1-1.5,2.8-0.9,4.3l6,16.2
		c0.9,2.5,3,4.3,5.5,4.9l10.5,2.3l67.9,75.4l3.9-3.5l2.7-2.4l4.2-3.8l-67.9-75.4l-1.4-10.4C99.5,72.4,97.7,70.3,95.3,69.2z"/>
	<g>
		
			<linearGradient id="SVGID_10_" gradientUnits="userSpaceOnUse" x1="191.1892" y1="372.4394" x2="219.7716" y2="261.0668" gradientTransform="matrix(1 0 0 -1 0 561.2)">
			<stop  offset="0" style="stop-color:#4F52FF"/>
			<stop  offset="1" style="stop-color:#4042E2"/>
		</linearGradient>
		<path class="st9" d="M227.8,198.6l-53.5-47.8l-27,24.4l41.2,56.9c3.9,5.4,9.2,9.6,15.3,12.1l16.4,7c2.8,1.2,6.2,0.8,8.4-1.2
			l11.2-10.1c2-1.8,2.8-4.8,2.2-7.5l-2.8-13.8C237.7,211,233.6,203.9,227.8,198.6z"/>
		
			<linearGradient id="SVGID_11_" gradientUnits="userSpaceOnUse" x1="64.5989" y1="643.1962" x2="70.55" y2="770.7207" gradientTransform="matrix(0.7431 -0.6692 -0.6692 -0.7431 598.9901 753.1409)">
			<stop  offset="0" style="stop-color:#4F52FF"/>
			<stop  offset="1" style="stop-color:#4042E2"/>
		</linearGradient>
		<path class="st10" d="M176.9,147.8c1.6,1.8,1.5,4.7-0.3,6.3l-27.1,24.4c-1.8,1.6-4.7,1.5-6.3-0.3l-0.3-0.4
			c-1.6-1.8-1.5-4.7,0.3-6.3l27.1-24.4c1.8-1.6,4.7-1.5,6.3,0.3L176.9,147.8z"/>
		<g>
			
				<linearGradient id="SVGID_12_" gradientUnits="userSpaceOnUse" x1="395.0071" y1="2382.072" x2="389.0935" y2="2352.0115" gradientTransform="matrix(0.7431 -0.6692 -0.6692 -0.7431 598.9901 753.1409)">
				<stop  offset="0" style="stop-color:#4F52FF"/>
				<stop  offset="1" style="stop-color:#4042E2"/>
			</linearGradient>
			<path class="st11" d="M217.1,233.4c1.4,1.6,1.3,4-0.3,5.4l-0.1,0.1c-1.6,1.4-4,1.3-5.4-0.3l-51-56.7c-1.4-1.6-1.3-4,0.3-5.4
				l0.1-0.1c1.6-1.4,4-1.3,5.4,0.3L217.1,233.4z"/>
			
				<linearGradient id="SVGID_13_" gradientUnits="userSpaceOnUse" x1="412.3839" y1="2378.6519" x2="406.4703" y2="2348.5911" gradientTransform="matrix(0.7431 -0.6692 -0.6692 -0.7431 598.9901 753.1409)">
				<stop  offset="0" style="stop-color:#4F52FF"/>
				<stop  offset="1" style="stop-color:#4042E2"/>
			</linearGradient>
			<path class="st12" d="M230.5,221.3c1.4,1.6,1.3,4-0.3,5.4l-0.1,0.1c-1.6,1.4-4,1.3-5.4-0.3l-51-56.7c-1.4-1.6-1.3-4,0.3-5.4
				l0.1-0.1c1.6-1.4,4-1.3,5.4,0.3L230.5,221.3z"/>
		</g>
	</g>
</g>
<g>
	
		<linearGradient id="SVGID_14_" gradientUnits="userSpaceOnUse" x1="128.169" y1="360.1479" x2="153.7946" y2="276.7006" gradientTransform="matrix(1 0 0 -1 0 561.2)">
		<stop  offset="0" style="stop-color:#09005D"/>
		<stop  offset="1" style="stop-color:#1A0F91"/>
	</linearGradient>
	<path class="st13" d="M60,195.9l-3.6,3.4c-6.2,5.8-8.1,13.8-4.2,18l4.6,5c3.9,4.2,12.1,2.9,18.3-2.9l3.6-3.4
		c0.2-0.2,0.5-0.5,0.7-0.7l102.8-104.4l-10.1-10.8L60.7,195.3C60.5,195.4,60.3,195.6,60,195.9z M65,200.6c4.7-4.3,10.5-5.6,13.1-2.9
		c2.6,2.8,0.9,8.5-3.8,12.9c-4.7,4.3-10.5,5.6-13.1,2.9C58.6,210.8,60.3,205,65,200.6z"/>
	
		<linearGradient id="SVGID_15_" gradientUnits="userSpaceOnUse" x1="194.3426" y1="416.2634" x2="193.0285" y2="378.1537" gradientTransform="matrix(1 0 0 -1 0 561.2)">
		<stop  offset="0" style="stop-color:#09005D"/>
		<stop  offset="1" style="stop-color:#1A0F91"/>
	</linearGradient>
	<path class="st14" d="M203.7,60.5l-21,19.5c-1.5,1.4-2.3,3.4-2.1,5.4l1,10.4c0.3,3,2.5,5.4,5.5,5.9l10.3,1.7c2,0.3,4.1-0.3,5.6-1.7
		l21-19.5c3.2-2.9,8.4-0.8,8.5,3.5c0.3,10.3-3.8,20.9-12.2,28.7c-15.1,14-36.4,12-49.9-2.5s-14.1-35.9,1-50
		c8.3-7.8,19.2-11.1,29.4-10.1C205.1,52.2,206.8,57.5,203.7,60.5z"/>
	
		<linearGradient id="SVGID_16_" gradientUnits="userSpaceOnUse" x1="3873.0867" y1="-889.4135" x2="3853.3748" y2="-928.1804" gradientTransform="matrix(-0.6818 -0.7315 0.7315 -0.6818 3985.7722 956.7007)">
		<stop  offset="0" style="stop-color:#09005D"/>
		<stop  offset="1" style="stop-color:#1A0F91"/>
	</linearGradient>
	<path class="st15" d="M205.5,62.4l-21,19.5c-1.5,1.4-2.3,3.4-2.1,5.4l1,10.4c0.3,3,2.5,5.4,5.5,5.9l10.3,1.7c2,0.3,4.1-0.3,5.6-1.7
		l21-19.5c3.2-2.9,8.4-0.8,8.5,3.5c0.3,10.3-3.8,20.9-12.2,28.7c-15.1,14-36.4,12-49.9-2.5s-14.1-35.9,1-50
		c8.3-7.8,19.2-11.1,29.4-10.1C206.9,54.1,208.7,59.5,205.5,62.4z"/>
	
		<linearGradient id="SVGID_17_" gradientUnits="userSpaceOnUse" x1="3761.7585" y1="-492.9873" x2="3742.0466" y2="-531.7542" gradientTransform="matrix(-0.6818 -0.7315 0.9067 -0.8451 3726.9751 1197.9432)">
		<stop  offset="0" style="stop-color:#09005D"/>
		<stop  offset="1" style="stop-color:#1A0F91"/>
	</linearGradient>
	<path class="st16" d="M61.5,197.4l-3.6,3.4c-6.2,5.8-8.1,13.8-4.2,18l4.6,5c3.9,4.2,12.1,2.9,18.3-2.9l3.6-3.4
		c0.2-0.2,0.5-0.5,0.7-0.7l102.8-104.4l-10.1-10.8L62.2,196.8C62,197,61.7,197.2,61.5,197.4z M66.5,202.2c4.7-4.3,10.5-5.6,13.1-2.9
		c2.6,2.8,0.9,8.5-3.8,12.9c-4.7,4.3-10.5,5.6-13.1,2.9C60.1,212.3,61.8,206.6,66.5,202.2z"/>
</g>
<g>
	<path class="st17" d="M398.8,179c40.6,7.1,82.5,9,123,0.6c18.4-3.8,36.2-9.6,53.3-17.4c26.4-12.1,57.5-25.9,61.5-58.6
		c2.2-18.3-10.9-27.2-26.9-30.3c-5.4-1.1-10.9-1.8-16.3-0.2c-5.1,1.5-4.2,3.4-3.8,8.3c0.4,5,0.8,10,1.2,15
		c0.7,8.8-12.4,12.9-18.6,16.5c-14.8,8.6-30.5,15.7-46.8,20.8c-39.1,12.2-80.7,12.7-121.1,8c-13.3-1.5-23.9,11-20.3,23.9
		C385.9,172.5,391.7,177.7,398.8,179z"/>
	<path class="st17" d="M431.8,219.1l-83.4-58.6c-2.5-1.8-2.3-5.6,0.5-7l87.7-44c3.3-1.6,7.1,0.9,6.9,4.5
		c-10.5,36.5-11.7,70.4-5.2,102C438.1,219.2,434.4,221,431.8,219.1z"/>
</g>
<g>
	<path class="st18" d="M353.3,695.6c-38,15.9-78.5,26.9-119.8,27.7c-18.7,0.4-37.5-1.4-55.8-5.3c-28.4-6-61.8-12.6-72.9-43.6
		c-6.2-17.3,4.6-28.9,19.6-35.5c7-3.1,14.7-5.8,22.2-4.2c-2.3,7-4.8,20.8,0.7,26.6c4,4.1,16.9,6.3,22.4,8c16.3,5.1,33.2,8.6,50.3,10
		c40.8,3.3,81.5-5.4,119.8-18.9c12.7-4.4,25.8,5.4,25,18.8C364.5,686.5,360,692.8,353.3,695.6z"/>
	<path class="st18" d="M327.3,741.9l68.4-75.6c2.1-2.3,1-6-2.1-6.7L298.4,636c-3.5-0.9-6.7,2.4-5.7,5.9c18.3,33.3,27,66.1,27.6,98.4
		C321.2,743.4,325.1,744.3,327.3,741.9z"/>
</g>
<g>
	<path class="st2" d="M413.9,407.7c-0.3,0-0.5-0.1-0.7-0.3c-0.8-0.9-1.6-1.8-2.4-2.7c-0.3-0.4-0.3-0.9,0-1.3c0.4-0.3,0.9-0.3,1.3,0
		c0.8,0.9,1.7,1.8,2.5,2.7c0.3,0.4,0.3,1-0.1,1.3C414.4,407.7,414.1,407.7,413.9,407.7z"/>
	<path class="st2" d="M312.9,632.4c-1.1,0-2.1,0-3.1,0c-0.5,0-0.9-0.4-0.9-0.9s0.4-0.9,0.9-0.9l0,0c2.5,0.1,4.9,0,7.4,0
		c0.5,0,0.9,0.4,0.9,0.9s-0.4,0.9-0.9,0.9C315.8,632.3,314.3,632.4,312.9,632.4z M329.3,631.4c-0.5,0-0.8-0.3-0.9-0.8
		c-0.1-0.5,0.3-1,0.8-1c2.4-0.3,4.9-0.7,7.3-1.1c0.5-0.1,1,0.2,1.1,0.7s-0.2,1-0.7,1.1c-2.5,0.4-4.9,0.8-7.4,1.1
		C329.4,631.4,329.3,631.4,329.3,631.4z M348.5,627.6c-0.4,0-0.8-0.3-0.9-0.7c-0.1-0.5,0.2-1,0.6-1.1c2.4-0.6,4.7-1.4,7.1-2.2
		c0.5-0.2,1,0.1,1.2,0.6s-0.1,1-0.6,1.2c-2.4,0.8-4.8,1.5-7.2,2.2C348.6,627.5,348.6,627.6,348.5,627.6z M366.9,621
		c-0.4,0-0.7-0.2-0.8-0.5c-0.2-0.5,0-1,0.5-1.2c2.3-1,4.5-2,6.7-3.1c0.5-0.2,1,0,1.2,0.4c0.2,0.5,0,1-0.4,1.2
		c-2.2,1.1-4.5,2.2-6.8,3.2C367.2,621,367,621,366.9,621z M384.2,611.9c-0.3,0-0.6-0.2-0.8-0.4c-0.3-0.4-0.1-1,0.3-1.3
		c2.1-1.3,4.2-2.7,6.2-4.1c0.4-0.3,1-0.2,1.3,0.2s0.2,1-0.2,1.3c-2,1.4-4.1,2.8-6.3,4.1C384.6,611.9,384.4,611.9,384.2,611.9z
		 M400,600.4c-0.3,0-0.5-0.1-0.7-0.3c-0.3-0.4-0.3-1,0.1-1.3c1.9-1.6,3.7-3.2,5.5-4.9c0.4-0.3,0.9-0.3,1.3,0c0.3,0.4,0.3,0.9,0,1.3
		c-1.8,1.7-3.7,3.4-5.6,5C400.5,600.4,400.2,600.4,400,600.4z M414,586.8c-0.2,0-0.4-0.1-0.6-0.2c-0.4-0.3-0.4-0.9-0.1-1.3
		c1.6-1.8,3.2-3.8,4.7-5.7c0.3-0.4,0.9-0.5,1.3-0.2c0.4,0.3,0.5,0.9,0.2,1.3c-1.5,2-3.2,3.9-4.8,5.8
		C414.5,586.7,414.3,586.8,414,586.8z M425.8,571.2c-0.2,0-0.3,0-0.5-0.1c-0.4-0.3-0.5-0.8-0.3-1.3c1.3-2.1,2.6-4.2,3.9-6.3
		c0.3-0.4,0.8-0.6,1.3-0.3c0.4,0.3,0.6,0.8,0.3,1.3c-1.2,2.2-2.6,4.3-3.9,6.4C426.4,571.1,426.1,571.2,425.8,571.2z M435.3,554.1
		c-0.1,0-0.3,0-0.4-0.1c-0.5-0.2-0.7-0.8-0.4-1.2c1-2.2,2-4.5,2.9-6.8c0.2-0.5,0.7-0.7,1.2-0.5s0.7,0.7,0.5,1.2
		c-0.9,2.3-1.9,4.6-3,6.9C436,553.9,435.7,554.1,435.3,554.1z M442.2,535.8c-0.1,0-0.2,0-0.3,0c-0.5-0.1-0.8-0.7-0.6-1.1
		c0.7-2.4,1.4-4.8,1.9-7.2c0.1-0.5,0.6-0.8,1.1-0.7s0.8,0.6,0.7,1.1c-0.6,2.4-1.2,4.9-1.9,7.2C443,535.6,442.6,535.8,442.2,535.8z
		 M446.5,516.8L446.5,516.8c-0.6-0.1-0.9-0.5-0.9-1c0.4-2.4,0.6-4.9,0.9-7.4c0-0.5,0.5-0.9,1-0.8c0.5,0,0.9,0.5,0.8,1
		c-0.2,2.5-0.5,5-0.9,7.5C447.3,516.4,446.9,516.8,446.5,516.8z M447.9,497.2c-0.5,0-0.9-0.4-0.9-0.9c0-2.5-0.1-5-0.2-7.4
		c0-0.5,0.4-0.9,0.9-1c0.5,0,0.9,0.4,1,0.9c0.1,2.5,0.2,5,0.2,7.5C448.8,496.8,448.4,497.2,447.9,497.2z M446.5,477.7
		c-0.4,0-0.8-0.3-0.9-0.8c-0.4-2.4-0.8-4.9-1.3-7.3c-0.1-0.5,0.2-1,0.7-1.1s1,0.2,1.1,0.7c0.5,2.4,0.9,4.9,1.3,7.4
		c0.1,0.5-0.3,1-0.8,1C446.6,477.7,446.5,477.7,446.5,477.7z M442.2,458.7c-0.4,0-0.8-0.3-0.9-0.7c-0.7-2.4-1.5-4.7-2.3-7
		c-0.2-0.5,0.1-1,0.5-1.2c0.5-0.2,1,0.1,1.2,0.5c0.8,2.3,1.6,4.7,2.4,7.1c0.1,0.5-0.1,1-0.6,1.1
		C442.4,458.6,442.3,458.7,442.2,458.7z M435.3,440.4c-0.3,0-0.7-0.2-0.8-0.5c-1-2.2-2.1-4.5-3.3-6.6c-0.2-0.4-0.1-1,0.4-1.2
		c0.4-0.2,1-0.1,1.2,0.4c1.2,2.2,2.3,4.5,3.3,6.7c0.2,0.5,0,1-0.4,1.2C435.5,440.3,435.4,440.4,435.3,440.4z M425.8,423.3
		c-0.3,0-0.6-0.1-0.8-0.4c-1.3-2.1-2.8-4.1-4.2-6.1c-0.3-0.4-0.2-1,0.2-1.3s1-0.2,1.3,0.2c1.5,2,2.9,4.1,4.3,6.2
		c0.3,0.4,0.2,1-0.3,1.3C426.1,423.2,426,423.3,425.8,423.3z"/>
	<path class="st2" d="M297.6,631.5L297.6,631.5c-1.3-0.1-2.5-0.3-3.8-0.5c-0.5-0.1-0.8-0.5-0.8-1c0.1-0.5,0.5-0.8,1-0.8
		c1.2,0.2,2.4,0.3,3.6,0.5c0.5,0.1,0.9,0.5,0.8,1C298.5,631.2,298.1,631.5,297.6,631.5z"/>
</g>
<g>
	<path class="st2" d="M206.8,580.9c-0.3,0-0.5-0.1-0.7-0.3c-0.8-1-1.5-1.9-2.2-2.9c-0.3-0.4-0.2-1,0.2-1.3s1-0.2,1.3,0.2
		c0.7,1,1.5,1.9,2.2,2.9c0.3,0.4,0.2,1-0.2,1.3C207.1,580.9,206.9,580.9,206.8,580.9z"/>
	<path class="st2" d="M197.8,568.1c-0.3,0-0.6-0.2-0.8-0.4c-1.3-2.1-2.5-4.2-3.7-6.4c-0.2-0.4-0.1-1,0.4-1.2c0.4-0.2,1-0.1,1.2,0.4
		c1.2,2.1,2.4,4.3,3.6,6.3c0.3,0.4,0.1,1-0.3,1.3C198.2,568.1,198,568.1,197.8,568.1z M189,551.1c-0.4,0-0.7-0.2-0.8-0.6
		c-0.2-0.5-0.4-1-0.6-1.5c-0.7-1.8-1.5-3.6-2.1-5.4c-0.2-0.5,0.1-1,0.5-1.2c0.5-0.2,1,0.1,1.2,0.5c0.7,1.8,1.4,3.6,2.1,5.3
		c0.2,0.5,0.4,1,0.6,1.5c0.2,0.5,0,1-0.5,1.2C189.2,551,189.1,551.1,189,551.1z M182.6,532.9c-0.4,0-0.8-0.3-0.9-0.7
		c-0.7-2.4-1.2-4.8-1.8-7.2c-0.1-0.5,0.2-1,0.7-1.1s1,0.2,1.1,0.7c0.5,2.4,1.1,4.7,1.7,7.1c0.1,0.5-0.2,1-0.6,1.1
		C182.7,532.9,182.6,532.9,182.6,532.9z M178.8,514c-0.5,0-0.8-0.3-0.9-0.8c-0.3-2.4-0.5-4.9-0.7-7.4c0-0.5,0.3-0.9,0.8-1
		c0.5,0,0.9,0.3,1,0.9c0.2,2.4,0.4,4.8,0.7,7.3C179.8,513.5,179.4,514,178.8,514L178.8,514z M177.8,494.8L177.8,494.8
		c-0.5,0-0.9-0.4-0.9-0.9c0-2.5,0.2-4.9,0.3-7.4c0-0.5,0.5-0.9,1-0.8c0.5,0,0.9,0.5,0.8,1c-0.2,2.4-0.3,4.9-0.3,7.3
		C178.7,494.4,178.3,494.8,177.8,494.8z M179.5,475.6L179.5,475.6c-0.6-0.1-0.9-0.6-0.9-1.1c0.4-2.4,0.9-4.9,1.4-7.3
		c0.1-0.5,0.6-0.8,1.1-0.7c0.5,0.1,0.8,0.6,0.7,1.1c-0.5,2.4-1,4.8-1.4,7.2C180.4,475.3,180,475.6,179.5,475.6z M184,456.9
		c-0.1,0-0.2,0-0.3,0c-0.5-0.2-0.7-0.7-0.6-1.1c0.7-2.3,1.5-4.7,2.4-7c0.2-0.5,0.7-0.7,1.2-0.5s0.7,0.7,0.5,1.2
		c-0.8,2.3-1.6,4.6-2.4,6.9C184.7,456.7,184.4,456.9,184,456.9z M191,439c-0.1,0-0.3,0-0.4-0.1c-0.5-0.2-0.6-0.8-0.4-1.2
		c1.1-2.2,2.2-4.4,3.4-6.6c0.2-0.4,0.8-0.6,1.2-0.4s0.6,0.8,0.4,1.2c-1.2,2.1-2.3,4.3-3.3,6.5C191.7,438.8,191.4,439,191,439z
		 M200.5,422.3c-0.2,0-0.4-0.1-0.5-0.2c-0.4-0.3-0.5-0.8-0.3-1.3c1.4-2,2.8-4.1,4.3-6c0.3-0.4,0.9-0.5,1.3-0.2
		c0.4,0.3,0.5,0.9,0.2,1.3c-1.4,1.9-2.9,3.9-4.2,5.9C201.1,422.1,200.8,422.3,200.5,422.3z M212.3,407.1c-0.2,0-0.4-0.1-0.6-0.2
		c-0.4-0.3-0.4-0.9-0.1-1.3c1.6-1.8,3.3-3.6,5.1-5.4c0.4-0.4,0.9-0.4,1.3,0c0.4,0.4,0.4,0.9,0,1.3c-1.7,1.7-3.4,3.5-5,5.3
		C212.8,407,212.6,407.1,212.3,407.1z M226.1,393.7c-0.3,0-0.5-0.1-0.7-0.3c-0.3-0.4-0.3-1,0.1-1.3c1.9-1.6,3.8-3.1,5.8-4.6
		c0.4-0.3,1-0.2,1.3,0.2c0.3,0.4,0.2,1-0.2,1.3c-1.9,1.4-3.8,3-5.7,4.5C226.6,393.7,226.3,393.7,226.1,393.7z M241.7,382.5
		c-0.3,0-0.6-0.2-0.8-0.4c-0.3-0.4-0.1-1,0.3-1.3c2.1-1.3,4.2-2.5,6.4-3.7c0.4-0.2,1-0.1,1.2,0.4c0.2,0.4,0.1,1-0.4,1.2
		c-2.1,1.2-4.2,2.4-6.3,3.7C242.1,382.4,241.9,382.5,241.7,382.5z M258.8,373.6c-0.4,0-0.7-0.2-0.8-0.5c-0.2-0.5,0-1,0.5-1.2
		c0.6-0.3,1.2-0.5,1.8-0.8c1.7-0.7,3.4-1.4,5.1-2c0.5-0.2,1,0.1,1.2,0.5c0.2,0.5-0.1,1-0.5,1.2c-1.7,0.6-3.4,1.3-5,2
		c-0.6,0.2-1.2,0.5-1.7,0.7C259,373.5,258.9,373.6,258.8,373.6z M276.9,367.1c-0.4,0-0.8-0.3-0.9-0.7c-0.1-0.5,0.2-1,0.6-1.1
		c2.4-0.7,4.8-1.3,7.2-1.8c0.5-0.1,1,0.2,1.1,0.7s-0.2,1-0.7,1.1c-2.4,0.5-4.7,1.1-7.1,1.8C277.1,367.1,277,367.1,276.9,367.1z
		 M295.8,363.3c-0.5,0-0.8-0.3-0.9-0.8c-0.1-0.5,0.3-1,0.8-1c2.4-0.3,4.9-0.6,7.3-0.7c0.5,0,0.9,0.3,1,0.8c0,0.5-0.3,0.9-0.8,1
		C300.8,362.8,298.3,363,295.8,363.3L295.8,363.3z M322.3,362.6L322.3,362.6c-2.5-0.2-4.9-0.3-7.3-0.3c-0.5,0-0.9-0.4-0.9-0.9
		s0.4-0.9,0.9-0.9l0,0c2.5,0,4.9,0.2,7.4,0.3c0.5,0,0.9,0.5,0.8,1C323.2,362.2,322.8,362.6,322.3,362.6z"/>
	<path class="st2" d="M337.9,364.6c-0.1,0-0.1,0-0.2,0c-1.2-0.2-2.4-0.4-3.6-0.6c-0.5-0.1-0.8-0.6-0.8-1c0.1-0.5,0.5-0.8,1-0.8
		c1.2,0.2,2.4,0.4,3.6,0.6c0.5,0.1,0.8,0.6,0.7,1.1C338.7,364.3,338.3,364.6,337.9,364.6z"/>
</g>
<path class="st19" d="M414.5,471.3l-8.5-22.1c-0.2-0.6-0.9-1.1-1.6-1l-19.7,0.7c-5.3-7.8-11.8-14.6-19.2-20.2l1.7-19.6
	c0.1-0.7-0.3-1.3-1-1.6l-21.6-9.6c-0.6-0.3-1.4-0.1-1.8,0.4l-13.5,14.4c-9-1.7-18.4-2-27.8-0.8l-12.6-15.3c-0.4-0.5-1.2-0.7-1.8-0.5
	l-22.1,8.5c-0.6,0.2-1.1,0.9-1,1.6l0.7,19.7c-7.8,5.3-14.6,11.8-20.2,19.2l-19.7-1.7c-0.7-0.1-1.3,0.3-1.6,1l-9.6,21.6
	c-0.3,0.6-0.1,1.4,0.4,1.8l14.4,13.5c-1.7,9-2,18.4-0.8,27.8l-15.1,12.7c-0.5,0.4-0.7,1.2-0.5,1.8l8.5,22.1c0.2,0.6,0.9,1.1,1.6,1
	l19.7-0.7c5.3,7.8,11.8,14.6,19.2,20.2l-1.7,19.7c-0.1,0.7,0.3,1.3,1,1.6l21.6,9.6c0.6,0.3,1.4,0.1,1.8-0.4l13.5-14.4
	c9,1.7,18.4,2,27.8,0.8l12.7,15.1c0.4,0.5,1.2,0.7,1.8,0.5l22.1-8.5c0.6-0.2,1.1-0.9,1-1.6l-0.7-19.7c7.8-5.3,14.6-11.8,20.2-19.2
	l19.6,1.7c0.7,0.1,1.3-0.3,1.6-1l9.6-21.6c0.3-0.6,0.1-1.4-0.4-1.8l-14.4-13.5c1.7-9,2-18.4,0.8-27.8L414,473
	C414.5,472.7,414.7,471.9,414.5,471.3z M331.5,484.5c3.4,4.9,4.8,10.8,3.7,16.7c-1,5.9-4.3,11-9.2,14.5c-3.8,2.7-8.3,4.1-12.8,4.1
	c-1.3,0-2.6-0.1-3.9-0.3c-5.9-1-11-4.3-14.5-9.2c-3.4-4.9-4.8-10.8-3.7-16.7c1-5.9,4.3-11,9.2-14.5
	C310.4,472,324.4,474.4,331.5,484.5z M366.4,521.7c-6.4,14.3-17.9,25.2-32.5,30.8c-6.9,2.6-13.9,3.9-20.8,3.9
	c-23.5,0-45.8-14.3-54.7-37.6c-2.6-6.9-3.9-13.9-3.9-20.8c0-23.5,14.3-45.8,37.6-54.7c0.8-0.3,1.6-0.6,2.4-0.9
	c2.8-0.9,5.6-1.6,8.5-2.1c0.4-0.1,0.7-0.1,1.1-0.2l0.4,2.7c-3.9,0.6-7.7,1.6-11.5,3.1c-28.7,11-43.1,43.3-32.1,72s43.3,43.1,72,32.1
	c13.9-5.3,24.9-15.7,31-29.3c3.2-7.3,4.9-15,4.9-22.7c0-6.7-1.2-13.5-3.7-19.9c-3.6-9.4-9.7-17.7-17.6-23.9l1.7-2.2
	c8.3,6.5,14.7,15.2,18.5,25.1c2.6,6.8,3.9,13.9,3.9,20.9C371.6,506,369.8,514.1,366.4,521.7z"/>
<path class="st19" d="M442,306.5l-2.1-5.6c-0.1-0.2-0.2-0.3-0.4-0.3l-5,0.2c-1.3-2-3-3.7-4.8-5.1l0.4-5c0-0.2-0.1-0.3-0.2-0.4
	l-5.5-2.4c-0.2-0.1-0.3,0-0.5,0.1l-3.4,3.6c-2.3-0.4-4.7-0.5-7-0.2l-3.2-3.8c-0.1-0.1-0.3-0.2-0.5-0.1l-5.6,2.1
	c-0.2,0.1-0.3,0.2-0.3,0.4l0.2,5c-2,1.3-3.7,3-5.1,4.8l-5-0.4c-0.2,0-0.3,0.1-0.4,0.2l-2.4,5.5c-0.1,0.2,0,0.3,0.1,0.5l3.6,3.4
	c-0.4,2.3-0.5,4.7-0.2,7l-3.8,3.2c-0.1,0.1-0.2,0.3-0.1,0.5l2.1,5.6c0.1,0.2,0.2,0.3,0.4,0.3l5-0.2c1.3,2,3,3.7,4.8,5.1l-0.4,5
	c0,0.2,0.1,0.3,0.2,0.4l5.5,2.4c0.2,0.1,0.3,0,0.5-0.1l3.4-3.6c2.3,0.4,4.7,0.5,7,0.2l3.2,3.8c0.1,0.1,0.3,0.2,0.5,0.1l5.6-2.1
	c0.2-0.1,0.3-0.2,0.3-0.4l-0.2-5c2-1.3,3.7-3,5.1-4.8l5,0.4c0.2,0,0.3-0.1,0.4-0.2l2.4-5.5c0.1-0.2,0-0.3-0.1-0.5l-3.6-3.4
	c0.4-2.3,0.5-4.7,0.2-7l3.8-3.2C442,306.8,442.1,306.6,442,306.5z M421,309.8c0.9,1.2,1.2,2.7,0.9,4.2s-1.1,2.8-2.3,3.7
	c-1,0.7-2.1,1-3.2,1c-0.3,0-0.7,0-1-0.1c-1.5-0.3-2.8-1.1-3.7-2.3c-0.9-1.2-1.2-2.7-0.9-4.2s1.1-2.8,2.3-3.7
	C415.7,306.7,419.2,307.3,421,309.8z M429.9,319.2c-1.6,3.6-4.5,6.4-8.2,7.8c-1.7,0.7-3.5,1-5.3,1c-6,0-11.6-3.6-13.8-9.5
	c-0.7-1.7-1-3.5-1-5.3c0-6,3.6-11.6,9.5-13.8c0.2-0.1,0.4-0.2,0.6-0.2c0.7-0.2,1.4-0.4,2.1-0.5c0.1,0,0.2,0,0.3,0l0.1,0.7
	c-1,0.2-2,0.4-2.9,0.8c-7.3,2.8-10.9,11-8.1,18.2c2.8,7.3,11,10.9,18.2,8.1c3.5-1.3,6.3-4,7.8-7.4c0.8-1.8,1.2-3.8,1.2-5.7
	c0-1.7-0.3-3.4-0.9-5c-0.9-2.4-2.5-4.5-4.5-6l0.4-0.5c2.1,1.6,3.7,3.8,4.7,6.3c0.7,1.7,1,3.5,1,5.3
	C431.2,315.3,430.7,317.3,429.9,319.2z"/>
<g>
	<path class="st2" d="M460.5,275.4c-0.2,0-0.4-0.1-0.6-0.3c-0.7-0.8-1.4-1.5-2.1-2.3c-0.3-0.3-0.3-0.8,0-1.1c0.3-0.3,0.8-0.3,1.1,0
		c0.7,0.8,1.4,1.5,2.1,2.3c0.3,0.3,0.2,0.8-0.1,1.1C460.9,275.4,460.7,275.4,460.5,275.4z"/>
	<path class="st2" d="M416.3,382.9c-0.4,0-0.7-0.3-0.8-0.7c0-0.4,0.3-0.8,0.7-0.8c2-0.1,4-0.4,6-0.7c0.4-0.1,0.8,0.2,0.9,0.6
		c0.1,0.4-0.2,0.8-0.6,0.9C420.5,382.5,418.5,382.8,416.3,382.9C416.4,382.9,416.4,382.9,416.3,382.9z M432,379.8
		c-0.3,0-0.6-0.2-0.7-0.5c-0.1-0.4,0.1-0.8,0.5-1c1.8-0.6,3.7-1.3,5.4-2.1l0.2-0.1c0.4-0.2,0.9,0,1,0.4c0.2,0.4,0,0.9-0.4,1
		l-0.2,0.1c-1.8,0.8-3.7,1.5-5.6,2.1C432.1,379.8,432.1,379.8,432,379.8z M446.4,373c-0.3,0-0.5-0.1-0.7-0.4
		c-0.2-0.4-0.1-0.8,0.2-1.1c1.7-1.1,3.3-2.2,4.9-3.5c0.3-0.3,0.8-0.2,1.1,0.1c0.3,0.3,0.2,0.8-0.1,1.1c-1.6,1.3-3.3,2.4-5,3.5
		C446.7,372.9,446.5,373,446.4,373z M458.7,362.8c-0.2,0-0.4-0.1-0.5-0.2c-0.3-0.3-0.3-0.8,0-1.1c1.4-1.5,2.7-3,3.9-4.6
		c0.3-0.3,0.8-0.4,1.1-0.1s0.4,0.8,0.1,1.1c-1.3,1.6-2.6,3.2-4,4.7C459.1,362.8,458.9,362.8,458.7,362.8z M468.1,350
		c-0.1,0-0.3,0-0.4-0.1c-0.4-0.2-0.5-0.7-0.3-1.1c1-1.7,1.9-3.5,2.7-5.4c0.2-0.4,0.6-0.6,1-0.4s0.6,0.6,0.4,1
		c-0.8,1.9-1.8,3.7-2.8,5.5C468.7,349.9,468.4,350,468.1,350z M474.2,335.3c-0.1,0-0.1,0-0.2,0c-0.4-0.1-0.7-0.5-0.5-1
		c0.5-1.9,1-3.9,1.3-5.9c0.1-0.4,0.5-0.7,0.9-0.6s0.7,0.5,0.6,0.9c-0.4,2-0.8,4-1.3,6C474.9,335,474.5,335.3,474.2,335.3z
		 M476.5,319.5L476.5,319.5c-0.4,0-0.8-0.4-0.8-0.8c0-0.5,0-0.9,0-1.4c0-1.5-0.1-3.1-0.2-4.6c0-0.4,0.3-0.8,0.7-0.8s0.8,0.3,0.8,0.7
		c0.1,1.6,0.2,3.2,0.2,4.8c0,0.5,0,0.9,0,1.4C477.3,319.2,476.9,319.5,476.5,319.5z M474.9,303.6c-0.4,0-0.7-0.2-0.8-0.6
		c-0.5-1.9-1-3.9-1.6-5.8c-0.1-0.4,0.1-0.8,0.5-1c0.4-0.1,0.8,0.1,1,0.5c0.6,1.9,1.2,3.9,1.7,5.9c0.1,0.4-0.2,0.8-0.6,0.9
		C475,303.6,474.9,303.6,474.9,303.6z M469.4,288.7c-0.3,0-0.6-0.2-0.7-0.4c-0.9-1.8-1.9-3.5-3-5.2c-0.2-0.4-0.1-0.8,0.2-1.1
		c0.4-0.2,0.8-0.1,1.1,0.2c1.1,1.7,2.1,3.5,3,5.4c0.2,0.4,0,0.9-0.3,1C469.7,288.6,469.5,288.7,469.4,288.7z"/>
	<path class="st2" d="M406.4,382.9L406.4,382.9c-1.1-0.1-2.2-0.2-3.2-0.3c-0.4-0.1-0.7-0.4-0.7-0.9c0.1-0.4,0.4-0.7,0.9-0.7
		c1,0.1,2,0.2,3.1,0.3c0.4,0,0.7,0.4,0.7,0.8C407.2,382.6,406.8,382.9,406.4,382.9z"/>
</g>
<g>
	<path class="st2" d="M361.1,359c-0.2,0-0.5-0.1-0.6-0.3c-0.7-0.8-1.3-1.7-1.9-2.5c-0.3-0.3-0.2-0.8,0.2-1.1
		c0.3-0.3,0.8-0.2,1.1,0.2c0.6,0.8,1.2,1.6,1.9,2.4c0.3,0.3,0.2,0.8-0.1,1.1C361.4,359,361.3,359,361.1,359z"/>
	<path class="st2" d="M354,348.3c-0.3,0-0.6-0.2-0.7-0.4c-0.7-1.4-1.4-2.8-2-4.3c-0.2-0.4-0.3-0.8-0.5-1.2c-0.2-0.4,0-0.9,0.4-1
		c0.4-0.2,0.9,0,1,0.4c0.2,0.4,0.3,0.8,0.5,1.2c0.6,1.4,1.3,2.8,2,4.2c0.2,0.4,0.1,0.8-0.3,1C354.3,348.3,354.2,348.3,354,348.3z
		 M348.5,333.6c-0.3,0-0.7-0.2-0.8-0.6c-0.5-2-0.9-4-1.2-5.9c-0.1-0.4,0.2-0.8,0.7-0.9c0.4-0.1,0.8,0.2,0.9,0.7
		c0.3,1.9,0.7,3.9,1.2,5.8c0.1,0.4-0.2,0.8-0.6,0.9C348.6,333.6,348.5,333.6,348.5,333.6z M346.6,318.1L346.6,318.1
		c-0.4,0-0.8-0.3-0.8-0.8c0-2,0.1-4.1,0.3-6.1c0-0.4,0.4-0.8,0.8-0.7c0.4,0,0.7,0.4,0.7,0.8c-0.2,2-0.3,3.9-0.3,5.9
		C347.4,317.7,347,318.1,346.6,318.1z M348.5,302.5c-0.1,0-0.1,0-0.2,0c-0.4-0.1-0.7-0.5-0.6-0.9c0.5-1.9,1.1-3.9,1.7-5.8
		c0.1-0.4,0.6-0.6,1-0.5s0.6,0.6,0.5,1c-0.6,1.9-1.2,3.8-1.7,5.7C349.2,302.3,348.9,302.5,348.5,302.5z M354.1,287.8
		c-0.1,0-0.2,0-0.4-0.1c-0.4-0.2-0.5-0.7-0.3-1.1c0.9-1.8,2-3.5,3.1-5.2c0.2-0.4,0.7-0.5,1.1-0.2c0.4,0.2,0.5,0.7,0.2,1.1
		c-1.1,1.6-2.1,3.4-3,5.1C354.7,287.7,354.4,287.8,354.1,287.8z M363,275c-0.2,0-0.4-0.1-0.5-0.2c-0.3-0.3-0.4-0.8-0.1-1.1
		c1.3-1.5,2.8-3,4.2-4.3c0.3-0.3,0.8-0.3,1.1,0s0.3,0.8,0,1.1c-1.4,1.3-2.8,2.8-4.1,4.2C363.5,274.9,363.3,275,363,275z
		 M374.8,264.6c-0.2,0-0.5-0.1-0.6-0.3c-0.2-0.4-0.2-0.8,0.2-1.1c1.7-1.1,3.4-2.2,5.2-3.2c0.4-0.2,0.9-0.1,1.1,0.3
		c0.2,0.4,0.1,0.8-0.3,1.1c-1.7,1-3.4,2-5,3.1C375.1,264.6,375,264.6,374.8,264.6z M388.7,257.4c-0.3,0-0.6-0.2-0.7-0.5
		c-0.2-0.4,0.1-0.9,0.5-1c1.9-0.7,3.8-1.3,5.8-1.9c0.4-0.1,0.8,0.1,1,0.5c0.1,0.4-0.1,0.8-0.5,1c-1.9,0.5-3.8,1.1-5.6,1.8
		C388.9,257.3,388.8,257.4,388.7,257.4z M404,253.6c-0.4,0-0.7-0.3-0.8-0.7c-0.1-0.4,0.3-0.8,0.7-0.9c2-0.2,4-0.4,6-0.4
		c0.4,0,0.8,0.3,0.8,0.8c0,0.4-0.3,0.8-0.8,0.8C408,253.3,406,253.4,404,253.6L404,253.6z"/>
	<path class="st2" d="M422.8,254.2L422.8,254.2c-1.1-0.2-2.1-0.3-3.1-0.5c-0.4-0.1-0.7-0.4-0.7-0.9c0.1-0.4,0.4-0.7,0.9-0.7
		c1,0.1,2.1,0.3,3.1,0.5c0.4,0.1,0.7,0.5,0.6,0.9S423.1,254.2,422.8,254.2z"/>
</g>
<linearGradient id="SVGID_18_" gradientUnits="userSpaceOnUse" x1="8914.3145" y1="46.3999" x2="8962.1143" y2="46.3999" gradientTransform="matrix(-1 0 0 -1 9598.8145 561.2)">
	<stop  offset="0" style="stop-color:#FEBBBA"/>
	<stop  offset="1" style="stop-color:#FF928E"/>
</linearGradient>
<path class="st20" d="M667.3,490.2c4.9,5.2,12.1,9.8,17.2,12.6c-7.6,9.4-17.8,18.8-31.4,27.9l-3.9,8.7l-12.5-14.9
	C636.7,524.5,659,513.3,667.3,490.2z"/>
<path class="st17" d="M552.9,407.5c4-5,7.5-10.4,10.5-16c4.1-7.8,19.3-14.3,20.4-23c27.8,4.8,55.9,6.4,76.1,10.6
	c5.8,1.2,11.3,3.6,15.1,8.1c15.4,17.8,49.1,66.5,9.4,115.5c-5.1-2.8-12.3-7.3-17.2-12.6c4.4-12.4,4.7-28.2-4.5-47.6
	c-0.3,1.5-0.7,3.1-1.2,4.6c-12.7,40.2-13.4,73.6-13.3,81.3c0,1-0.6,2-1.6,2.4c-16.7,6.7-48.8,2.7-59.6,1.1c-2-0.3-3.3-2.1-3-4.1
	c5.3-38.3-21.9-101.4-29-117.2C554.5,409.4,553.8,408.4,552.9,407.5z"/>
<linearGradient id="SVGID_19_" gradientUnits="userSpaceOnUse" x1="631.4405" y1="237.3326" x2="616.1636" y2="180.1677" gradientTransform="matrix(1 0 0 -1 0 561.2)">
	<stop  offset="0" style="stop-color:#FEBBBA"/>
	<stop  offset="1" style="stop-color:#FF928E"/>
</linearGradient>
<path class="st21" d="M631.1,342.2l3.2,32.9c0,0-18.8,6.5-32.3-3l9.8-30.8L631.1,342.2z"/>
<path class="st22" d="M664.8,438.7c5.6-16,4.4-34.7,4-39c0-0.5-0.5-0.9-1-0.8l0,0c-0.5,0.1-0.9,0.5-0.8,1c0.4,4.2,1.5,22.5-3.9,38.2
	c-0.2,0.5,0.1,1,0.6,1.2l0,0C664.1,439.4,664.6,439.2,664.8,438.7z"/>
<g>
	<path class="st17" d="M479.3,409.1c31.7,15.9,57.5-16.7,74.4-30.1c22.3-17.6,39.7-9,39.7-9l-23.8,45.4c-42.3,51.2-74.6,29-95,15.2
		C474.3,421.9,476.6,414.5,479.3,409.1z"/>
	<path class="st17" d="M453.9,401L453.9,401c16.1,5.5,14.3,6.4,25.4,8.1c-2.7,5.4-5,12.8-4.7,21.5c-14.6-6.9-23.8-15.2-23.8-15.2
		c-4.4-2.1-2.8-8.9-1.3-13.3C450.1,400.3,452.5,399.7,453.9,401z"/>
</g>
<g>
	
		<linearGradient id="SVGID_20_" gradientUnits="userSpaceOnUse" x1="2223.1873" y1="-4376.2212" x2="2208.7195" y2="-4328.5034" gradientTransform="matrix(-0.746 -0.6659 0.6659 -0.746 5169.9746 -1440.8383)">
		<stop  offset="0" style="stop-color:#FEBBBA"/>
		<stop  offset="1" style="stop-color:#FF928E"/>
	</linearGradient>
	<path class="st23" d="M604.8,313.1c0,0-14,26.3-12.2,36.9c1.8,10.6,19.1,9.9,34.2,1.2l10.6-28.4L604.8,313.1z"/>
	
		<linearGradient id="SVGID_21_" gradientUnits="userSpaceOnUse" x1="2208.7603" y1="-4293.3257" x2="2220.8623" y2="-4362.3525" gradientTransform="matrix(-0.746 -0.6659 0.6659 -0.746 5169.9746 -1440.8383)">
		<stop  offset="0" style="stop-color:#09005D"/>
		<stop  offset="1" style="stop-color:#1A0F91"/>
	</linearGradient>
	<path class="st24" d="M626.2,337.3c-0.6-0.3-0.8-1-0.5-1.6c1.1-1.7,3.2-5.2,3.9-8.3c0,0,2.5-1.6-6.4-3.7c-8.9-2.1-22.2-5.4-25-13
		c-2.7-7.4,11.9-17,23.3-2.2c0.4,0.6-6.2-8.4-5.7-9c1.9-2.4,6.8-7.5,13.6-4.4c6.4,2.9,7.1,7.6,7,9.9c0,0.7,0.6,1.2,1.3,1.1
		c3.2-0.6,11-1.1,14.6,6.8c3,6.6,1,10.3-0.7,12.1c-0.6,0.6-0.3,1.6,0.5,1.8c2.1,0.7,1.4-0.4,1.1,4.6c-0.4,6.9-4.6,9.1-6.8,8.8
		c-0.4-0.1-0.7,0.1-1,0.3c-1.9,2.1-10.3,10.9-19.5,12c-0.8,0.1-1.4-0.7-1.1-1.4l4-11.5c0.2-0.5-0.1-1.1-0.6-1.4L626.2,337.3z"/>
	
		<linearGradient id="SVGID_22_" gradientUnits="userSpaceOnUse" x1="2208.4001" y1="-4375.999" x2="2195.3831" y2="-4333.0659" gradientTransform="matrix(-0.746 -0.6659 0.6659 -0.746 5169.9746 -1440.8383)">
		<stop  offset="0" style="stop-color:#FEBBBA"/>
		<stop  offset="1" style="stop-color:#FF928E"/>
	</linearGradient>
	<path class="st25" d="M624.6,338.9c0,0,10-6.8,10.7-1.1c0.7,5.8-9,8.3-13.8,6.2L624.6,338.9z"/>
</g>
<g>
	<path class="st7" d="M621.7,648.5l6.5,8.9c11.2,15.2,28.6,21.5,38.9,13.9l12.2-9c10.3-7.6,9.5-26-1.7-41.3l-6.5-8.9
		c-0.4-0.6-0.9-1.2-1.3-1.7L464.7,355.3l-26.6,19.6l182.3,271.8C620.9,647.3,621.3,647.9,621.7,648.5z M633.6,638.7
		c-8.4-11.5-9.8-24.9-2.9-29.9c6.8-5,19.2,0.2,27.6,11.7c8.4,11.5,9.8,24.9,2.9,29.9C654.3,655.4,642,650.2,633.6,638.7z"/>
	<path class="st7" d="M358.5,294.8l37.9,51.6c2.7,3.7,6.9,5.9,11.5,6l23.4,0.5c6.7,0.1,12.6-4.2,14.4-10.6l6.5-22.4
		c1.3-4.4,0.4-9.1-2.3-12.8L412,255.5c-5.7-7.8,0.3-18.8,9.9-18c23,2.1,45.4,13.9,60.4,34.4c27.3,37.1,17.1,83.8-18.6,110.1
		c-35.7,26.2-83.3,22-110.6-15.1c-15.1-20.5-19.7-45.4-14.8-67.9C340.5,289.5,352.8,287,358.5,294.8z"/>
	<path class="st26" d="M363.4,291.2l37.9,51.6c2.7,3.7,6.9,5.9,11.5,6l23.4,0.5c6.7,0.1,12.6-4.2,14.4-10.6l6.5-22.4
		c1.3-4.4,0.4-9.1-2.3-12.8l-37.9-51.6c-5.7-7.8,0.3-18.8,9.9-18c23,2.1,45.4,13.9,60.4,34.4c27.3,37.1,17.1,83.8-18.6,110.1
		c-35.7,26.2-83.3,22-110.6-15.1c-15.1-20.5-19.7-45.4-14.8-67.9C345.3,285.9,357.7,283.4,363.4,291.2z"/>
	<g>
		<path class="st26" d="M625.6,645.7l6.5,8.9c11.2,15.2,28.6,21.5,38.9,13.9l12.2-9c10.3-7.6,9.5-26-1.7-41.3l-6.5-8.9
			c-0.4-0.6-0.9-1.2-1.3-1.7L468.6,352.5L442,372.1l182.3,271.8C624.7,644.5,625.2,645.1,625.6,645.7z M637.5,635.9
			c-8.4-11.5-9.8-24.9-2.9-29.9c6.8-5,19.2,0.2,27.6,11.7c8.4,11.5,9.8,24.9,2.9,29.9C658.2,652.6,645.9,647.3,637.5,635.9z"/>
	</g>
</g>
<linearGradient id="SVGID_23_" gradientUnits="userSpaceOnUse" x1="447.4428" y1="152.0498" x2="468.8748" y2="152.0498" gradientTransform="matrix(1 0 0 -1 0 561.2)">
	<stop  offset="0" style="stop-color:#FEBBBA"/>
	<stop  offset="1" style="stop-color:#FF928E"/>
</linearGradient>
<path class="st27" d="M448.1,414.3l1.8,3.7c0.3,0.6,0.9,1,1.5,1.1c5.6,0.6,10.7-0.1,15.6-1.8c1.7-0.6,2.5-2.6,1.6-4.2
	c-2-3.7-4.4-7.2-7.4-10.6c-1-1.1-2.2-1.9-3.6-2.3l-3.9-1.1c-1.6-0.4-3.4,0.3-4.2,1.8c-1.8,3.5-2.3,7.5-1.8,11.9
	C447.7,413.3,447.8,413.8,448.1,414.3z"/>
<linearGradient id="SVGID_24_" gradientUnits="userSpaceOnUse" x1="8959.4365" y1="-199.3081" x2="8995.2891" y2="-199.3081" gradientTransform="matrix(-1 0 0 -1 9598.8145 561.2)">
	<stop  offset="0" style="stop-color:#09005D"/>
	<stop  offset="1" style="stop-color:#1A0F91"/>
</linearGradient>
<path class="st28" d="M603.6,773.3c0-0.3,0-0.5,0.1-0.8c4-16,24.1-26,24.1-26l7.9,0.6c4.6,14.1,4,22.7,3.2,26.6
	c0,0.1-0.1,0.2-0.1,0.3C632.3,774.6,618.8,775,603.6,773.3z"/>
<path class="st0" d="M638.8,774.1c-0.4,1.3-1.3,2.3-2.5,2.5c-9.3,2-24.1,0.4-30.3-0.4c-1.4-0.2-2.4-1.4-2.4-2.9
	C618.8,775,632.3,774.6,638.8,774.1z"/>
<linearGradient id="SVGID_25_" gradientUnits="userSpaceOnUse" x1="9018.8672" y1="-199.4429" x2="9068.498" y2="-199.4429" gradientTransform="matrix(-1 0 0 -1 9598.8145 561.2)">
	<stop  offset="0" style="stop-color:#09005D"/>
	<stop  offset="1" style="stop-color:#1A0F91"/>
</linearGradient>
<path class="st29" d="M530.3,771c0.1-0.1,0.1-0.2,0.2-0.3c4.1-5.5,14.5-16.6,35.1-21.4l9.9-0.3c0,0,4.4,7.4,4.5,21.1
	c-2.3,0.9-6.6,1.9-15.1,2.1C551.9,772.6,536.4,771.5,530.3,771z"/>
<linearGradient id="SVGID_26_" gradientUnits="userSpaceOnUse" x1="655.0273" y1="191.331" x2="588.0066" y2="-226.5612" gradientTransform="matrix(1 0 0 -1 0 561.2)">
	<stop  offset="0" style="stop-color:#09005D"/>
	<stop  offset="1" style="stop-color:#1A0F91"/>
</linearGradient>
<path class="st30" d="M587.4,521.4c0,0-27.6,103.2-27.2,229.9c0,2.3,4.4,1.9,6.5,2.4c3.1,0.7,7.7,1.5,11.5,1.4
	c2-0.1,3.7-1.7,4.1-3.8c3.5-21.8,23.4-144.6,34.7-164.6c0,0,4.4,108.6,2,165.4c-0.1,1.4,4,3.4,5.3,3.5c2,0.2,5.2,0.4,9.2,0
	c1.5-0.2,5.7,1.8,5.9,0.2c2.5-18.5,13.8-131.5,13.1-210.6c0-4.5-11-23.9-11-23.9h-54.1V521.4z"/>
<linearGradient id="SVGID_27_" gradientUnits="userSpaceOnUse" x1="8986.6426" y1="16.9439" x2="8968.2939" y2="-15.7121" gradientTransform="matrix(-1 0 0 -1 9598.8145 561.2)">
	<stop  offset="0" style="stop-color:#09005D"/>
	<stop  offset="1" style="stop-color:#1A0F91"/>
</linearGradient>
<path class="st31" d="M617.8,580c0.4,0,0.8-0.3,0.9-0.7c2.1-7.9,17.4-16.6,17.6-16.7c0.4-0.3,0.6-0.8,0.4-1.3
	c-0.3-0.4-0.8-0.6-1.3-0.4c-0.7,0.4-16.2,9.2-18.5,17.9c-0.1,0.5,0.2,1,0.7,1.1C617.7,580,617.8,580,617.8,580z"/>
<linearGradient id="SVGID_28_" gradientUnits="userSpaceOnUse" x1="637.8802" y1="194.1281" x2="570.842" y2="-223.8723" gradientTransform="matrix(1 0 0 -1 0 561.2)">
	<stop  offset="0" style="stop-color:#09005D"/>
	<stop  offset="1" style="stop-color:#1A0F91"/>
</linearGradient>
<path class="st32" d="M586.3,430.9h38.6c2.3,0,7.8,1.6,8.4,3.8l14.3,37.6l3.1,24.6l1.9,48.3l-70.1-2.7l-4.8-70.1l6.5-39.6
	C584.3,431.7,585.2,430.9,586.3,430.9z"/>
<linearGradient id="SVGID_29_" gradientUnits="userSpaceOnUse" x1="596.1659" y1="200.9849" x2="527.524" y2="-227.0144" gradientTransform="matrix(1 0 0 -1 0 561.2)">
	<stop  offset="0" style="stop-color:#09005D"/>
	<stop  offset="1" style="stop-color:#1A0F91"/>
</linearGradient>
<path class="st33" d="M585.4,438.4l-1.3-69.9c0-0.6,0.5-1.1,1.1-1l9,1.4c1,0.2,1.8,1.1,1.7,2.1l-1.5,67.2c0,0.5-0.5,1-1,1h-7.2
	C585.8,439.3,585.4,438.9,585.4,438.4z"/>
<linearGradient id="SVGID_30_" gradientUnits="userSpaceOnUse" x1="642.8298" y1="194.0387" x2="569.1178" y2="-265.5753" gradientTransform="matrix(1 0 0 -1 0 561.2)">
	<stop  offset="0" style="stop-color:#09005D"/>
	<stop  offset="1" style="stop-color:#1A0F91"/>
</linearGradient>
<path class="st34" d="M624.2,439.7c-0.9-0.2-1.5-1.1-1.3-2l13.6-60.8c0.3-1,1.2-1.6,2.2-1.5l9.1,0.9c1.3,0.1,2.2,1.5,1.7,2.7
	l-18.6,60.8c-0.2,0.7-1,1.2-1.7,1L624.2,439.7z"/>
<linearGradient id="SVGID_31_" gradientUnits="userSpaceOnUse" x1="603.3997" y1="162.3659" x2="595.5149" y2="140.0257" gradientTransform="matrix(1 0 0 -1 0 561.2)">
	<stop  offset="0" style="stop-color:#4F52FF"/>
	<stop  offset="1" style="stop-color:#4042E2"/>
</linearGradient>
<circle class="st35" cx="590.6" cy="435.1" r="2.4"/>
<linearGradient id="SVGID_32_" gradientUnits="userSpaceOnUse" x1="639.9" y1="161.8669" x2="632.0153" y2="139.5267" gradientTransform="matrix(1 0 0 -1 0 561.2)">
	<stop  offset="0" style="stop-color:#4F52FF"/>
	<stop  offset="1" style="stop-color:#4042E2"/>
</linearGradient>
<circle class="st36" cx="627.1" cy="435.6" r="2.4"/>
<linearGradient id="SVGID_33_" gradientUnits="userSpaceOnUse" x1="678.3243" y1="544.1157" x2="652.224" y2="372.2883" gradientTransform="matrix(1 0 0 -1 0 561.2)">
	<stop  offset="0" style="stop-color:#53D8FF"/>
	<stop  offset="1" style="stop-color:#3840F7"/>
</linearGradient>
<path class="st37" d="M590.4,452.5v39.6c0,1,0.8,1.9,1.8,1.9l33.7,1c1.1,0,1.9-0.8,1.9-1.9v-40.7c0-1-0.8-1.9-1.9-1.9h-33.7
	C591.2,450.6,590.4,451.5,590.4,452.5z"/>
<path class="st0" d="M1317,788.1c-30.8,0-57.6-7.5-79.7-22.4c-22.5-15.2-37.8-35.4-45.3-60c-4.7-15-7-40.7-7-78.4V470.2
	c-0.1-7.4,2.8-14.4,8-19.7c5.3-5.3,12.3-8.2,19.8-8.2c15.4,0,27.9,12.5,27.9,27.9v157.2c0,31.1,0.7,42.4,1.4,46.3l0,0.3
	c1.6,12.5,5.2,22.9,10.7,31c5.5,8.1,14,14.8,25.9,20.4c12.3,5.8,24.1,8.6,36.3,8.6c10.3,0,20.4-2.2,29.8-6.6
	c9.4-4.3,17.3-10.5,23.7-18.2c6.3-7.7,11-17.3,14.1-28.6c1.5-5.6,3.3-19.4,3.3-53.3v-198c0-15.4,12.5-27.9,27.9-27.9
	s27.9,12.5,27.9,27.9v198c0,33.4-3.2,59.7-9.9,80.4c-6.8,21.5-20.5,40.4-40.8,56.2C1370.6,780,1345.7,788.1,1317,788.1z"/>
<path class="st38" d="M1386,454.4l0-25.2c0.2-15.3,12.7-27.8,27.9-27.8c15.4,0,27.9,12.5,27.9,27.9v25.1h-20c0-4.4-3.5-7.9-7.9-7.9
	c-4.3,0-7.9,3.6-7.9,8L1386,454.4z"/>
<path class="st38" d="M1413.9,411.4c-9.8,0-17.8,8-17.9,17.9v25.1c0.1-9.9,8.1-17.9,17.9-17.9c9.9,0,17.9,8,17.9,17.9v-25.1
	C1431.8,419.4,1423.8,411.4,1413.9,411.4z"/>
<path class="st18" d="M1386,479.7l0-25.4c0.2-15.3,12.7-27.8,27.9-27.8c15.4,0,27.9,12.5,27.9,27.9v25.3h-20c0-4.4-3.5-7.9-7.9-7.9
	c-4.3,0-7.9,3.6-7.9,8L1386,479.7z"/>
<path class="st0" d="M1386,507.7l0-25.4c0.2-15.3,12.7-27.8,27.9-27.8c15.4,0,27.9,12.5,27.9,27.9v25.3h-20c0-4.4-3.5-7.9-7.9-7.9
	c-4.3,0-7.9,3.6-7.9,8L1386,507.7z"/>
<path class="st18" d="M1124.2,781.6c-6.5,0-12.7-2.5-17.3-7.2l-101.8-101.8c-9.5-9.5-9.5-25,0-34.6l5.5-5.5
	c4.6-4.6,10.8-7.2,17.3-7.2c6.5,0,12.7,2.5,17.3,7.2L1147,734.4c4.6,4.6,7.2,10.8,7.2,17.3c0,6.5-2.5,12.7-7.2,17.3l-5.5,5.5
	C1136.9,779.1,1130.8,781.6,1124.2,781.6z"/>
<path class="st39" d="M1961.3,595.4"/>
<path class="st39" d="M1961.3,595.4"/>
<path class="st0" d="M1185,483.9v-82.5h10c25.2,0,45.7,20.5,45.7,45.7v36.8H1185z"/>
<path class="st0" d="M1230.7,473.9H1195v-62.5l0,0c19.7,0,35.7,16,35.7,35.7V473.9z"/>
<path class="st38" d="M1900.5,503.1c-11.7,0-23-4.3-31.8-12c-9.9-8.8-18.8-15.7-29.9-21c-1-0.5-2.1-1.1-3.2-1.6
	c-1.2-0.6-2.5-1.3-3.4-1.7l-13.7-5.8l41.4-40.9l6.4,3.3c26.5,13.5,48.5,32.3,65.6,56l5.7,7.9l-7.7,5.9
	C1921.5,499.5,1911.1,503.1,1900.5,503.1C1900.5,503.1,1900.5,503.1,1900.5,503.1z"/>
<path class="st38" d="M1875.3,483.6c13.7,12.1,34.1,12.7,48.6,1.5c-16.2-22.5-36.9-40.1-62-52.9l-25.6,25.3c2.1,0.9,4.9,2.5,7,3.5
	C1855.3,466.9,1865.1,474.6,1875.3,483.6z"/>
<path class="st18" d="M1877.1,484.9c-9.1,0-18-2.6-25.7-7.5c-12.4-7.9-22.6-12.8-33.3-16c-14.1-4.2-22.6-16.9-20.5-30.9
	c1.9-13.2,12.9-22.4,26.7-22.4c3.6,0,7.5,0.6,11.4,1.8c29.4,9.1,55.1,24.5,76.3,45.9l6.8,6.9l-6.7,7
	C1903.1,479.4,1890.3,484.9,1877.1,484.9z"/>
<path class="st18" d="M1905,462.9L1905,462.9c-12.6,13.2-32.8,15.9-48.2,6.1c-11.5-7.3-22.8-13.2-35.8-17.1
	c-22.6-6.7-16.1-41,11.8-32.4C1860.7,428.1,1884.8,442.6,1905,462.9z"/>
<path class="st0" d="M1761,791c-33.4,0-64.9-8.8-93.8-26.2c-40.7-24.7-69.2-61.7-84.9-110c-16.6-51-12.6-100.4,11.9-146.9
	c24.4-46.4,64-78.8,117.6-96.2c22.8-7.4,45.5-11.2,67.4-11.2c9,0,18.1,0.6,27,1.9c30.5,4.4,58.2,15.6,82.6,33.4l7.8,5.7l-5.5,8
	c-9,13.1-23.9,21-39.8,21c-6.6,0-13-1.3-19-4c-11.6-5-23.8-8.4-36.2-10.1c-6.2-0.8-12.5-1.2-18.7-1.2c-15.8,0-32,2.7-48.2,8
	c-24.7,8-45.9,21.5-63.1,40.2c-17.1,18.6-28.3,40-33.4,63.6c-5,23.6-3.5,48.2,4.6,73.1c12.4,38.1,35.1,64.9,69.4,81.9
	c19.3,9.5,39.7,14.3,60.6,14.3c16.1,0,32.9-2.8,50.1-8.4c17.8-5.8,33.6-14.1,47.1-24.8l7-5.5l38.2,38.2l-8.8,7
	c-19.6,15.5-42.9,27.7-69.1,36.2C1807.3,787,1783.5,791,1761,791C1761,791,1761,791,1761,791z"/>
<path class="st0" d="M1815.2,728.8l10.8-3.8c13.5-4.7,27.2-12.8,41.9-24.5c8.9-7.1,20-11,31.3-11c11.1,0,22.1,3.8,30.9,10.7l8,6.3
	l-6.4,7.9c-18.7,23-42.1,40.8-69.6,53.1c-4.6,2.1-9.5,4-14.6,5.8l-8.3,2.9L1815.2,728.8z"/>
<path class="st0" d="M1857.9,758.2c26.2-11.7,48.2-28.4,65.9-50.3l0,0c-14.6-11.5-35.2-11.3-49.8,0.3
	c-13.9,11.1-28.8,20.5-44.8,26.1l14.9,29.3C1848.8,762.1,1853.4,760.3,1857.9,758.2z"/>
<path class="st0" d="M2543.9,779.2c-24.7,0-44.9-20.1-44.9-44.9V453.8c0-23.9,19.5-43.4,43.4-43.4h151.3v10
	c0,24.3-19.8,44.1-44.1,44.1h-95.8v89.3h108v10c0,24.3-19.8,44.1-44.1,44.1h-63.9v171.2H2543.9z"/>
<path class="st0" d="M2542.5,420.4h141.3v0c0,18.9-15.3,34.1-34.1,34.1h-105.8v109.3h108l0,0c0,18.9-15.3,34.1-34.1,34.1h-73.9
	v171.2l0,0c-19.3,0-34.9-15.6-34.9-34.9V453.8C2509.1,435.4,2524,420.4,2542.5,420.4z"/>
<path class="st0" d="M2774.4,779.2c-24.7,0-44.9-20.1-44.9-44.9v-324h10c24.7,0,44.9,20.1,44.9,44.9v324H2774.4z"/>
<path class="st0" d="M2739.6,420.4L2739.6,420.4c19.3,0,34.9,15.6,34.9,34.9v314l0,0c-19.3,0-34.9-15.6-34.9-34.9V420.4z"/>
<path class="st39" d="M2029.5,621.6"/>
<path class="st39" d="M2029.5,621.6"/>
<path class="st0" d="M1490,737.2v-335h10c25.3,0,45.8,20.5,45.8,45.8v295.9L1490,737.2z"/>
<path class="st38" d="M2029.6,779.2c-25.3,0-45.8-20.5-45.8-45.8V409.2h10c25.3,0,45.8,22,45.8,48.9v321H2029.6z"/>
<path class="st38" d="M2029.6,458.2c0-21.5-16-38.9-35.8-38.9l0,0v314.2c0,19.8,16,35.8,35.8,35.8l0,0V458.2z"/>
<path class="st18" d="M2017.4,777.7c-19.2-4.4-33.4-22.8-33.6-43.5l0-307.7h9.9c20.1,0,35.8,20.6,35.8,46.9l-0.7,305.9
	C2024.6,779,2020.7,778.6,2017.4,777.7z"/>
<path class="st18" d="M2020.1,473.3c0-20.4-11.8-36.9-26.3-36.9l0,0V734c0.2,16.8,12.1,30.7,26.3,33.9V473.3z"/>
<path class="st0" d="M2002.3,772.8c-12.9-9.3-19.1-23.9-18.5-43.5V441.8h8.5c13.5,0,23.6,19,23.6,44.3v292.4
	C2010.7,777.6,2006,775.8,2002.3,772.8z"/>
<path class="st38" d="M1535.8,779.8c-25.1,0-45.7-20.4-45.8-45.6v-39.6h55.8v85.2H1535.8z"/>
<path class="st18" d="M1535.8,752.1c-25.1,0-45.7-20.4-45.8-45.6v-39.6h55.8v85.2H1535.8z"/>
<path class="st0" d="M1535.8,719.5c-25.1,0-45.7-20.4-45.8-45.6v-39.6h55.8v85.2H1535.8z"/>
<path class="st0" d="M2729.4,747V405.3h10c25.3,0,45.8,20.5,45.8,45.8V747H2729.4z"/>
<path class="st0" d="M2775.2,451.1c0-19.8-16-35.8-35.8-35.8l0,0V737h35.8V451.1z"/>
<path class="st38" d="M2775.2,782.9c-25.1,0-45.7-20.4-45.8-45.6l0-39.6h55.8v85.2H2775.2z"/>
<path class="st38" d="M2739.4,707.7v29.4c0,0.1,0,0.1,0,0.2c0.1,19.7,16.1,35.6,35.8,35.6v-65.2H2739.4z"/>
<path class="st18" d="M2775.2,755.2c-25.1,0-45.7-20.4-45.8-45.6l0-39.6h55.8v85.2H2775.2z"/>
<path class="st18" d="M2739.4,680v29.4c0,0.1,0,0.1,0,0.2c0.1,19.7,16.1,35.6,35.8,35.6V680H2739.4z"/>
<path class="st0" d="M2775.2,722.6c-25.1,0-45.7-20.4-45.8-45.6l0-39.6h55.8v85.2H2775.2z"/>
<path class="st0" d="M2739.4,647.4v29.4c0,0.1,0,0.1,0,0.2c0.1,19.7,16.1,35.6,35.8,35.6v-65.2H2739.4z"/>
<path class="st0" d="M3033.1,718.8c-15.7,0-30-8-38.2-21.3l-169.9-275.8l8.5-5.2c7.1-4.4,15.2-6.7,23.5-6.7c15.7,0,30,8,38.2,21.3
	l169.9,275.8l-8.5,5.2C3049.5,716.5,3041.4,718.8,3033.1,718.8z"/>
<path class="st0" d="M2838.7,424.9L2838.7,424.9c16.4-10.1,37.9-5,48,11.4l164.7,267.3v0c-16.4,10.1-37.9,5-48-11.4L2838.7,424.9z"
	/>
<path class="st0" d="M2822.2,417.4l8.5-5.2c7.2-4.5,15.5-6.8,24-6.8c16,0,30.6,8.1,39,21.8l155.2,252.3l-47.6,28.8L2822.2,417.4z"/>
<path class="st0" d="M2885.2,432.3c-10.4-16.8-32.4-22.1-49.3-11.7l0,0l168.7,273.9l30.5-18.4L2885.2,432.3z"/>
<path class="st38" d="M3077.7,790.8c-15.9,0-30.5-8.1-38.9-21.6l-20.8-33.7l47.5-29.3l44.7,72.5l-8.5,5.2
	C3094.4,788.5,3086.1,790.8,3077.7,790.8C3077.7,790.8,3077.7,790.8,3077.7,790.8z"/>
<path class="st38" d="M3031.7,738.8l15.4,25c0,0,0.1,0.1,0.1,0.1c10.4,16.7,32.4,21.9,49.2,11.6l-34.2-55.5L3031.7,738.8z"/>
<path class="st18" d="M3063.1,767.2c-15.9,0-30.5-8.1-38.9-21.6l-20.8-33.7l47.5-29.3l44.7,72.5l-8.5,5.2
	C3079.9,764.9,3071.6,767.2,3063.1,767.2C3063.1,767.2,3063.1,767.2,3063.1,767.2z"/>
<path class="st18" d="M3017.2,715.2l15.4,25c0,0,0.1,0.1,0.1,0.1c10.4,16.7,32.4,21.9,49.2,11.6l-34.2-55.5L3017.2,715.2z"/>
<path class="st0" d="M3046,739.5c-15.9,0-30.5-8.1-38.9-21.6l-20.8-33.7l47.5-29.3l44.7,72.5l-8.5,5.2
	C3062.8,737.1,3054.5,739.5,3046,739.5C3046,739.5,3046,739.5,3046,739.5z"/>
<path class="st0" d="M3000.1,687.4l15.4,25c0,0,0.1,0.1,0.1,0.1c10.4,16.7,32.4,21.9,49.2,11.6l-34.2-55.5L3000.1,687.4z"/>
<path class="st38" d="M2819,412.7l8.5-5.2c7.2-4.5,15.5-6.8,24-6.8c15.9,0,30.5,8.1,38.9,21.6l20.8,33.7l-47.5,29.3L2819,412.7z"/>
<path class="st38" d="M2897.5,452.7l-15.4-25c0,0-0.1-0.1-0.1-0.1c-10.4-16.7-32.4-21.9-49.2-11.6l34.2,55.5L2897.5,452.7z"/>
<path class="st18" d="M2833.6,436.3l8.5-5.2c7.2-4.5,15.5-6.8,24-6.8c15.9,0,30.5,8.1,38.9,21.6l0.1,0.2l20.7,33.5l-47.5,29.3
	L2833.6,436.3z"/>
<path class="st18" d="M2912,476.3l-15.4-25c0,0-0.1-0.1-0.1-0.1c-10.4-16.7-32.4-21.9-49.2-11.6l34.2,55.5L2912,476.3z"/>
<path class="st0" d="M2850.7,464l8.5-5.2c7.2-4.5,15.5-6.8,24-6.8c15.9,0,30.5,8.1,38.9,21.6l20.8,33.7l-47.5,29.3L2850.7,464z"/>
<path class="st0" d="M2929.1,504l-15.4-25c0,0-0.1-0.1-0.1-0.1c-10.4-16.7-32.4-21.9-49.2-11.6l34.2,55.5L2929.1,504z"/>
<path class="st0" d="M2851,789.6c-7.3,0-14.4-1.9-20.3-5.6l-8.5-5.2l123.1-200l47.2,29.3l-92.7,151.1
	C2888.1,778,2869.4,789.6,2851,789.6z"/>
<path class="st38" d="M2611.1,464.6v-54.2h85.2v10c0,24.3-20.4,44.1-45.6,44.2l-0.2,0H2611.1z"/>
<path class="st38" d="M2621.1,454.6h29.4c0.1,0,0.1,0,0.2,0c19.7-0.1,35.6-15.4,35.6-34.2h-65.2V454.6z"/>
<path class="st18" d="M2583.4,464.6v-54.2h85.2v10c0,24.3-20.4,44.1-45.6,44.2l-0.2,0H2583.4z"/>
<path class="st18" d="M2593.4,454.6h29.4c0.1,0,0.1,0,0.2,0c19.7-0.1,35.6-15.4,35.6-34.2h-65.2V454.6z"/>
<path class="st0" d="M2550.8,464.6v-54.2h85.2v10c0,24.3-20.4,44.1-45.6,44.2l-0.2,0H2550.8z"/>
<path class="st0" d="M2560.8,454.6h29.4c0.1,0,0.1,0,0.2,0c19.7-0.1,35.6-15.4,35.6-34.2h-65.2V454.6z"/>
<path class="st0" d="M2975.8,514.6l62.8-87.4c8.5-13.7,23-21.9,39.1-21.9c8.5,0,16.8,2.4,24,6.8l8.5,5.2l-100.9,149.4L2975.8,514.6z
	"/>
<rect x="2937.5" y="573.8" transform="matrix(0.8422 -0.5392 0.5392 0.8422 132.8365 1686.4999)" class="st39" width="20" height="85"/>
<line class="st39" x1="2924.6" y1="580.5" x2="2970.4" y2="652.1"/>
<path class="st0" d="M966.1,390.8c-103.4,0-187.2,86.6-187.2,193.4s83.8,193.4,187.2,193.4c32.1,0,62.3-8.4,88.7-23.1l-10.7-10.7
	c-22.8-22.8-53.5-36.2-85.7-37.4c-0.4,0-0.9,0-1.3-0.1c-65.8-3.1-118.6-56.9-120.4-122.8c-2-70.9,54.5-129.1,124.7-130.1
	c70.2-1,128.3,56.3,128.3,126.5c0,2,0,4.1-0.1,6.1c-1.7,36.2,11.3,71.4,36.9,97l0.3,0.3c16.8-29,26.5-63,26.5-99.3
	C1153.3,477.3,1069.5,390.8,966.1,390.8z"/>
<path class="st18" d="M810,572c9.6-105.4,100.8-183.3,203.7-173.9c2.4,0.2,4.7,0.5,7.1,0.8c-18.1-8.4-37.9-13.9-58.8-15.8
	c-102.9-9.4-194.4,71.6-204.3,180.8C747.7,673,823.1,769.1,926,778.4c12.9,1.2,25.6,0.9,38-0.6C868.8,761.3,800.8,672.2,810,572z"/>
<path class="st38" d="M846.2,580c0-70,57-126.8,127.3-126.8c1.6,0,3.2,0,4.8,0.1c-12.8-4.5-26.5-6.9-40.8-6.9
	c-70.3,0-127.3,58.8-127.3,131.3c0,72.5,57,131.3,127.3,131.3c8.8,0,17.4-0.9,25.7-2.7C897.8,701.2,846.2,646.6,846.2,580z"/>
<path class="st0" d="M2115.6,586.2l178.7-167H2269c-32.8,0-63.9,12.3-87.8,34.8c-36.7,34.4-77.6,67.7-110.8,105.5
	c-9.6,10.9-16.3,26.2-11.5,39.8c4.3,12.3,16.7,22,25.2,31.4c12.1,13.4,24.4,26.5,36.7,39.7c25.1,27,50.4,53.7,75.7,80.6
	c22.2,23.6,53.1,37,85.5,37h23.1L2115.6,586.2z"/>
</svg>
