<svg xmlns="http://www.w3.org/2000/svg" width="70" height="70" viewBox="0 0 70 70">
    <g>
        <path fill="none" d="M0 0H70V70H0z"/>
    </g>
    <g>
        <g>
            <g>
                <path fill="#7f5eff" d="M26.74 22.5v8.208a25.708 25.708 0 0 0 13.334 22.824 24.323 24.323 0 0 0 3.071-1.932v7.435a4.238 4.238 0 0 1-4.231 4.243H21.131a4.231 4.231 0 0 1-4.231-4.246V14.171a4.228 4.228 0 0 1 4.231-4.231h2.309v1.76a1.527 1.527 0 0 0 1.523 1.535H34.8a1.819 1.819 0 0 0 1.813-1.813V9.94h2.3a4.236 4.236 0 0 1 4.231 4.231v6.673a25.806 25.806 0 0 1-2.6-.955l-.471-.206-.484.206A32.957 32.957 0 0 1 26.74 22.5z" transform="translate(15.842 7.423) translate(.904 .909) translate(-16.9 -9.94)"/>
            </g>
            <g>
                <path d="M39.677 64.341H20.685a4.54 4.54 0 0 1-4.533-4.533V13.725a4.539 4.539 0 0 1 4.533-4.533h18.992a4.539 4.539 0 0 1 4.533 4.533V21a.907.907 0 1 1-1.81 0v-7.275a2.723 2.723 0 0 0-2.72-2.72H20.685a2.723 2.723 0 0 0-2.72 2.72v46.082a2.724 2.724 0 0 0 2.72 2.72h18.992a2.724 2.724 0 0 0 2.72-2.72v-8.051a.907.907 0 0 1 1.813 0v8.051a4.54 4.54 0 0 1-4.533 4.534z" transform="translate(15.842 7.423) translate(0 .005) translate(-16.152 -9.192)"/>
            </g>
            <g>
                <path d="M31.755 52.062h-6.561a.907.907 0 0 1 0-1.813h6.562a.907.907 0 0 1 0 1.813z" transform="translate(15.842 7.423) translate(9.834 49.637) translate(-24.287 -50.249)"/>
            </g>
            <g>
                <path d="M38.529 52.911a.9.9 0 0 1-.423-.105 26.466 26.466 0 0 1-13.819-23.622v-8.208a.907.907 0 0 1 .907-.907 31.928 31.928 0 0 0 12.5-2.547l.479-.2a.908.908 0 0 1 .7 0l.478.2a31.906 31.906 0 0 0 12.5 2.548.907.907 0 0 1 .907.907v8.208a26.467 26.467 0 0 1-13.805 23.621.911.911 0 0 1-.424.105zM26.1 21.871v7.314a24.691 24.691 0 0 0 12.429 21.788 24.69 24.69 0 0 0 12.427-21.789v-7.313a33.721 33.721 0 0 1-12.3-2.679l-.125-.052-.126.052A33.7 33.7 0 0 1 26.1 21.871z" transform="translate(15.842 7.423) translate(9.834 9.744) translate(-24.287 -17.249)"/>
            </g>
            <g>
                <path d="M35.558 37.466a.907.907 0 0 1-.641-.266L30.5 32.781a.907.907 0 0 1 1.28-1.281l3.778 3.778 9.413-9.413a.907.907 0 0 1 1.281 1.283L36.2 37.2a.907.907 0 0 1-.642.266z" transform="translate(15.842 7.423) translate(17.022 19.837) translate(-30.233 -25.597)"/>
            </g>
            <g>
                <path d="M33.826 14.3h-9.832a2.441 2.441 0 0 1-2.438-2.438v-1.77a.907.907 0 0 1 .907-.907h13.178a.907.907 0 0 1 .907.907v1.487a2.725 2.725 0 0 1-2.722 2.721zM23.369 11v.863a.626.626 0 0 0 .625.625h9.832a.909.909 0 0 0 .908-.908V11z" transform="translate(15.842 7.423) translate(6.533) translate(-21.556 -9.188)"/>
            </g>
        </g>
    </g>
</svg>
