<svg xmlns="http://www.w3.org/2000/svg" width="70" height="70" viewBox="0 0 70 70">
    <defs>
        <clipPath id="nwuxhpj2ta">
            <path fill="none" stroke="#707070" d="M0 0H70V70H0z" transform="translate(240 1955)"/>
        </clipPath>
    </defs>
    <g clip-path="url(#nwuxhpj2ta)" transform="translate(-240 -1955)">
        <g>
            <g>
                <g>
                    <path d="M137.21 50.113a18.844 18.844 0 0 0-23.379 28.375 1.043 1.043 0 0 0 1.646-1.281 16.759 16.759 0 0 1 20.793-25.233 1.043 1.043 0 1 0 .94-1.861z" transform="translate(188.259 1964.906) translate(68.099 6.214) translate(-109.878 -48.082)"/>
                </g>
            </g>
            <g>
                <g>
                    <path d="M191.888 124.379a1.043 1.043 0 0 0-1.862.94 16.758 16.758 0 0 1-25.234 20.789 1.043 1.043 0 1 0-1.281 1.646 18.844 18.844 0 0 0 28.377-23.375z" transform="translate(188.259 1964.906) translate(74.979 16.001) translate(-163.109 -123.806)"/>
                </g>
            </g>
            <g>
                <g>
                    <path d="M342.045 84.531c-.258-.292-.53-.581-.807-.858s-.566-.548-.858-.807a1.043 1.043 0 0 0-1.38 1.563c.26.23.518.472.764.719s.489.5.719.764a1.043 1.043 0 0 0 1.563-1.381z" transform="translate(188.259 1964.906) translate(97.666 10.676) translate(-338.647 -82.605)"/>
                </g>
            </g>
            <g>
                <g>
                    <path d="M111.549 26.935a3.539 3.539 0 0 0 0-3.7l-1.372-2.25a1.468 1.468 0 0 1-.2-.991l.409-2.6a3.537 3.537 0 0 0-1.419-3.425l-2.126-1.547a1.468 1.468 0 0 1-.563-.841l-.619-2.559a3.538 3.538 0 0 0-2.617-2.617l-2.559-.619a1.467 1.467 0 0 1-.841-.563L98.1 3.1a3.537 3.537 0 0 0-3.424-1.419l-2.6.409a1.468 1.468 0 0 1-.991-.2L88.834.522a3.539 3.539 0 0 0-3.7 0l-2.25 1.372a1.468 1.468 0 0 1-.991.2l-2.6-.409A3.537 3.537 0 0 0 75.871 3.1l-1.546 2.127a1.468 1.468 0 0 1-.841.563l-2.559.619a3.538 3.538 0 0 0-2.617 2.617l-.619 2.559a1.467 1.467 0 0 1-.563.841L65 13.972a3.537 3.537 0 0 0-1.421 3.428l.409 2.6a1.468 1.468 0 0 1-.2.991l-1.372 2.25a3.539 3.539 0 0 0 0 3.7l1.372 2.25a1.468 1.468 0 0 1 .2.991l-.409 2.6A3.537 3.537 0 0 0 65 36.2l2.126 1.547a1.468 1.468 0 0 1 .563.841l.619 2.559a3.538 3.538 0 0 0 2.617 2.617l1.069.259c3.383.662 3.179 5.2 6.586 4.476s3.867-.853 5.621.583l.936.571a3.539 3.539 0 0 0 3.7 0l.97-.591c1.5-1.486 5.666-.569 5.666-.569s.473.139 1.579-.409c-.135.071.186-.294.3-.359 1.258-.685 1.4-2.954 4.664-3.711l1.028-.249a3.538 3.538 0 0 0 2.617-2.617l.619-2.559a1.467 1.467 0 0 1 .563-.841l2.127-1.547a3.537 3.537 0 0 0 1.419-3.424l-.409-2.6a1.468 1.468 0 0 1 .2-.991zm-1.781-1.086L108.4 28.1a3.557 3.557 0 0 0-.476 2.4l.409 2.6a1.46 1.46 0 0 1-.586 1.414l-2.127 1.547a3.556 3.556 0 0 0-1.363 2.037l-.619 2.559a1.461 1.461 0 0 1-1.08 1.08l-2.559.619a3.556 3.556 0 0 0-2.037 1.363l-1.547 2.126a1.46 1.46 0 0 1-1.415.586l-2.6-.409a3.556 3.556 0 0 0-2.4.478l-2.25 1.372a1.461 1.461 0 0 1-1.527 0L83.971 46.5a3.555 3.555 0 0 0-2.4-.476l-2.6.409a1.46 1.46 0 0 1-1.414-.586l-1.547-2.129a3.556 3.556 0 0 0-2.037-1.363l-2.559-.619a1.461 1.461 0 0 1-1.08-1.08l-.62-2.556a3.555 3.555 0 0 0-1.363-2.037l-2.126-1.547a1.46 1.46 0 0 1-.586-1.414l.409-2.6a3.556 3.556 0 0 0-.476-2.4L64.2 25.849a1.461 1.461 0 0 1 0-1.527l1.372-2.25a3.556 3.556 0 0 0 .476-2.4l-.409-2.6a1.46 1.46 0 0 1 .586-1.414l2.127-1.547a3.556 3.556 0 0 0 1.363-2.037l.619-2.559a1.461 1.461 0 0 1 1.08-1.08l2.559-.619a3.555 3.555 0 0 0 2.037-1.363l1.547-2.126a1.46 1.46 0 0 1 1.414-.586l2.6.409a3.555 3.555 0 0 0 2.4-.476l2.25-1.374a1.461 1.461 0 0 1 1.527 0L90 3.674a3.554 3.554 0 0 0 2.4.476l2.6-.409a1.461 1.461 0 0 1 1.414.586l1.547 2.127A3.556 3.556 0 0 0 100 7.817l2.559.619a1.461 1.461 0 0 1 1.08 1.08l.619 2.559a3.555 3.555 0 0 0 1.363 2.037l2.126 1.547a1.46 1.46 0 0 1 .586 1.414l-.409 2.6a3.556 3.556 0 0 0 .476 2.4l1.372 2.25a1.46 1.46 0 0 1-.004 1.526z" transform="translate(188.259 1964.906) translate(61.898) translate(-61.898)"/>
                </g>
            </g>
            <path fill="#7f5eff" d="M85.662 12.656l-3.408 6.167-7.354 1.593-.562 1.115 5.562 4.588-1.458 7.331.754.806 6.465-3.52 6.392 3.52 1.338-.806-1.791-7.331L96.825 21v-1.113l-7.734-.555z" transform="translate(188.259 1964.906) translate(1.323 1.346)"/>
            <g>
                <g>
                    <path d="M185.349 109.264a1.866 1.866 0 0 0-1.57-1.289l-6.275-.744-2.647-5.738a1.884 1.884 0 0 0-3.422 0l-2.647 5.738-6.275.744a1.884 1.884 0 0 0-1.058 3.254l4.639 4.29-1.231 6.2a1.891 1.891 0 0 0 1.846 2.255 1.886 1.886 0 0 0 .923-.243l5.514-3.086 5.514 3.086a1.884 1.884 0 0 0 2.769-2.011l-1.231-6.2 4.639-4.29a1.866 1.866 0 0 0 .512-1.966zm-7 5.121a1.043 1.043 0 0 0-.315.969l1.26 6.342-5.642-3.158a1.043 1.043 0 0 0-1.019 0l-5.642 3.158 1.26-6.342a1.042 1.042 0 0 0-.315-.969l-4.747-4.39 6.422-.761a1.043 1.043 0 0 0 .824-.6l2.708-5.872 2.708 5.872a1.043 1.043 0 0 0 .824.6l6.421.761z" transform="translate(188.259 1964.906) translate(74.687 12.976) translate(-160.849 -100.398)"/>
                </g>
            </g>
        </g>
    </g>
</svg>
