<?xml version="1.0" encoding="utf-8"?>
<!-- Generator: Adobe Illustrator 25.2.0, SVG Export Plug-In . SVG Version: 6.00 Build 0)  -->
<svg version="1.1" id="Layer_1" xmlns="http://www.w3.org/2000/svg" xmlns:xlink="http://www.w3.org/1999/xlink" x="0px" y="0px"
	 viewBox="0 0 4500 4500" style="enable-background:new 0 0 4500 4500;" xml:space="preserve">
<style type="text/css">
	.st0{fill:#000035;}
	.st1{fill:url(#SVGID_1_);}
	.st2{fill:#FFFFFF;}
	.st3{opacity:0.21;clip-path:url(#SVGID_3_);fill:#FFFFFF;}
	.st4{fill:#91B3FA;}
	.st5{fill:#7D97F4;}
	.st6{fill:url(#SVGID_4_);}
	.st7{fill:url(#SVGID_5_);}
	.st8{fill:url(#SVGID_6_);}
	.st9{fill:url(#SVGID_7_);}
	.st10{fill:url(#SVGID_8_);}
	.st11{fill:url(#SVGID_9_);}
	.st12{fill:url(#SVGID_10_);}
	.st13{fill:url(#SVGID_11_);}
	.st14{fill:#FBFF09;}
	.st15{fill:#FFFC5B;}
	.st16{fill:#F3FF03;}
	.st17{fill:url(#SVGID_12_);}
	.st18{fill:url(#SVGID_13_);}
	.st19{fill:#C9C90A;}
	.st20{fill:url(#SVGID_14_);}
	.st21{fill:url(#SVGID_15_);}
	.st22{fill:url(#SVGID_16_);}
	.st23{fill:#BDD0FB;}
	.st24{fill:url(#SVGID_17_);}
	.st25{fill:url(#SVGID_18_);}
	.st26{fill:url(#SVGID_19_);}
	.st27{fill:url(#SVGID_20_);}
	.st28{fill:url(#SVGID_21_);}
	.st29{fill:url(#SVGID_22_);}
	.st30{fill:url(#SVGID_23_);}
	.st31{fill:url(#SVGID_24_);}
	.st32{fill:url(#SVGID_25_);}
	.st33{fill:url(#SVGID_26_);}
	.st34{opacity:0.34;fill:url(#SVGID_27_);}
</style>
<g>
	<g>
		<path class="st0" d="M3110.8,3739.9H1458.5c-19.9,0-36-16.1-36-36V797.4c0-19.9,16.1-36,36-36h1652.3c19.9,0,36,16.1,36,36v2906.5
			C3146.7,3723.7,3130.6,3739.9,3110.8,3739.9z"/>
		<linearGradient id="SVGID_1_" gradientUnits="userSpaceOnUse" x1="1011.8926" y1="1071.3887" x2="3058.6199" y2="2969.0557">
			<stop  offset="0" style="stop-color:#4F52FF"/>
			<stop  offset="1" style="stop-color:#4042E2"/>
		</linearGradient>
		<path class="st1" d="M3031.8,3648.8H1537.3c-19.9,0-36-16.1-36-36V890c0-19.9,16.1-36,36-36h1494.5c19.9,0,36,16.1,36,36v2722.8
			C3067.8,3632.7,3051.7,3648.8,3031.8,3648.8z"/>
		<path class="st0" d="M2747.3,940.3h-915.3c-9.3,0-16.9-7.6-16.9-16.9v-67c0-3.5,2.9-6.4,6.4-6.4h936.4c3.5,0,6.4,2.9,6.4,6.4v67
			C2764.3,932.6,2756.6,940.3,2747.3,940.3z"/>
		<path class="st2" d="M2573.5,895.1h-545.6c-9.1,0-16.5-7.4-16.5-16.5v0c0-9.1,7.4-16.5,16.5-16.5h545.6c9.1,0,16.5,7.4,16.5,16.5
			v0C2590,887.7,2582.6,895.1,2573.5,895.1z"/>
	</g>
	<g>
		<defs>
			<path id="SVGID_2_" d="M3013.4,3586.6H1553.8c-19.9,0-36-16.1-36-36V967.3c0-19.9,16.1-36,36-36h1459.6c19.9,0,36,16.1,36,36
				v2583.3C3049.4,3570.5,3033.3,3586.6,3013.4,3586.6z"/>
		</defs>
		<clipPath id="SVGID_3_">
			<use xlink:href="#SVGID_2_"  style="overflow:visible;"/>
		</clipPath>
		<polygon class="st3" points="3456.9,1708 1318.7,1192 1362.3,1021.4 3500.5,1537.4 		"/>
		<polygon class="st3" points="3277.3,3307.8 1139.1,2791.8 1274.3,2262.6 3412.5,2778.6 		"/>
		<polygon class="st3" points="3393.9,2692.5 1255.7,2176.5 1290.9,2039.1 3429,2555.1 		"/>
		<polygon class="st3" points="3402,1998.6 1263.8,1482.7 1284.2,1402.7 3422.4,1918.6 		"/>
	</g>
</g>
<circle class="st0" cx="1451.7" cy="1303.4" r="593.4"/>
<circle class="st2" cx="1454.8" cy="1306.2" r="534.1"/>
<g>
	<path class="st4" d="M1232.4,974.4l-66.5-32.6c-6.1-3-13.3-2-18.3,2.6l-7.2,6.5l-11.7,10.5l-7.5,6.7c-5,4.5-6.8,11.6-4.5,17.9
		l25.5,69.5c3.9,10.6,12.6,18.6,23.6,20.9l44.9,9.8l291.9,324.1l16.8-15.1l11.7-10.5l15.9-14.3l-291.9-324.1l-4.7-46
		C1249.2,989.2,1242.5,979.3,1232.4,974.4z"/>
	<path class="st5" d="M1227.9,978.3l-60.3-29.7c-5.5-2.7-12.4-2.2-16.9,1.9l-6.5,5.9l-10.5,9.5l-6.7,6.1c-4.5,4.1-5.7,10.9-3.6,16.6
		l23.1,62.8c3.5,9.5,11.6,16.7,21.5,18.9l40.7,8.9l263.2,292.3l14.9-13.5l10.5-9.5l16.4-14.8l-263.2-292.3l-5.3-40.5
		C1244.1,990.7,1237,982.8,1227.9,978.3z"/>
	<g>
		<linearGradient id="SVGID_4_" gradientUnits="userSpaceOnUse" x1="1599.2162" y1="1441.8452" x2="1709.9983" y2="1873.5131">
			<stop  offset="0" style="stop-color:#4F52FF"/>
			<stop  offset="1" style="stop-color:#4042E2"/>
		</linearGradient>
		<path class="st6" d="M1741.2,1480l-207.5-185.2l-104.8,94.7l159.7,220.6c15.1,20.8,35.6,37.1,59.3,47l63.7,27.1
			c10.8,4.5,23.9,3.2,32.6-4.6l43.6-39.2c7.9-7.1,10.7-18.6,8.7-29l-10.7-53.4C1779.8,1528,1764,1500.4,1741.2,1480z"/>
		
			<linearGradient id="SVGID_5_" gradientUnits="userSpaceOnUse" x1="2141.895" y1="1716.9226" x2="2164.9612" y2="1222.6512" gradientTransform="matrix(0.7431 -0.6692 0.6692 0.7431 -1042.8087 1766.7104)">
			<stop  offset="0" style="stop-color:#4F52FF"/>
			<stop  offset="1" style="stop-color:#4042E2"/>
		</linearGradient>
		<path class="st7" d="M1544,1282.9c6.4,7.1,5.8,18-1.3,24.4l-105,94.5c-7.1,6.4-18,5.8-24.4-1.3l-1.3-1.4c-6.4-7.1-5.8-18,1.3-24.4
			l105-94.5c7.1-6.4,18-5.8,24.4,1.3L1544,1282.9z"/>
		<g>
			
				<linearGradient id="SVGID_6_" gradientUnits="userSpaceOnUse" x1="3422.7334" y1="-5022.7334" x2="3399.813" y2="-4906.2212" gradientTransform="matrix(0.7431 -0.6692 0.6692 0.7431 -1042.8087 1766.7104)">
				<stop  offset="0" style="stop-color:#4F52FF"/>
				<stop  offset="1" style="stop-color:#4042E2"/>
			</linearGradient>
			<path class="st8" d="M1700,1614.7c5.5,6.1,5,15.4-1.1,20.9l-0.2,0.2c-6.1,5.5-15.4,5-20.9-1.1L1480,1415.1
				c-5.5-6.1-5-15.4,1.1-20.9l0.2-0.2c6.1-5.5,15.4-5,20.9,1.1L1700,1614.7z"/>
			
				<linearGradient id="SVGID_7_" gradientUnits="userSpaceOnUse" x1="3489.8113" y1="-5009.5308" x2="3466.8909" y2="-4893.0186" gradientTransform="matrix(0.7431 -0.6692 0.6692 0.7431 -1042.8087 1766.7104)">
				<stop  offset="0" style="stop-color:#4F52FF"/>
				<stop  offset="1" style="stop-color:#4042E2"/>
			</linearGradient>
			<path class="st9" d="M1751.7,1568.1c5.5,6.1,5,15.4-1.1,20.9l-0.2,0.2c-6.1,5.5-15.4,5-20.9-1.1l-197.8-219.6
				c-5.5-6.1-5-15.4,1.1-20.9l0.2-0.2c6.1-5.5,15.4-5,20.9,1.1L1751.7,1568.1z"/>
		</g>
	</g>
</g>
<g>
	<linearGradient id="SVGID_8_" gradientUnits="userSpaceOnUse" x1="1355.3893" y1="1489.3647" x2="1454.7109" y2="1812.7972">
		<stop  offset="0" style="stop-color:#09005D"/>
		<stop  offset="1" style="stop-color:#1A0F91"/>
	</linearGradient>
	<path class="st10" d="M1091.1,1469.3l-14,13c-24,22.4-31.3,53.7-16.2,69.9l17.9,19.3c15.1,16.2,46.8,11.2,70.8-11.2l14-13
		c0.9-0.9,1.8-1.7,2.7-2.7l398.3-404.8l-39.1-42l-431.8,368.9C1093,1467.6,1092,1468.5,1091.1,1469.3z M1110.4,1487.8
		c18.1-16.9,40.9-21.8,50.9-11.1c10,10.7,3.5,33.1-14.6,50c-18.1,16.9-40.9,21.8-50.9,11.1
		C1085.7,1527.1,1092.3,1504.7,1110.4,1487.8z"/>
	<linearGradient id="SVGID_9_" gradientUnits="userSpaceOnUse" x1="1611.4343" y1="1271.9204" x2="1606.3409" y2="1419.6298">
		<stop  offset="0" style="stop-color:#09005D"/>
		<stop  offset="1" style="stop-color:#1A0F91"/>
	</linearGradient>
	<path class="st11" d="M1647.8,944.5l-81.2,75.7c-5.8,5.4-8.7,13.2-8,21l3.8,40.4c1.1,11.5,9.8,20.9,21.2,22.8l40,6.6
		c7.8,1.3,15.8-1.1,21.5-6.5l81.2-75.7c12.3-11.4,32.5-3.2,33,13.5c1.1,40.1-14.8,81-47.1,111.1c-58.4,54.5-141.1,46.4-193.4-9.8
		c-52.4-56.2-54.6-139.2,3.8-193.7c32.3-30.1,74.2-43.1,114.1-39.2C1653.3,912.3,1660.1,933.1,1647.8,944.5z"/>
	
		<linearGradient id="SVGID_10_" gradientUnits="userSpaceOnUse" x1="7876.9531" y1="-992.5415" x2="7800.5518" y2="-842.2856" gradientTransform="matrix(-0.6818 -0.7315 -0.7315 0.6818 8194.6309 2226.2449)">
		<stop  offset="0" style="stop-color:#09005D"/>
		<stop  offset="1" style="stop-color:#1A0F91"/>
	</linearGradient>
	<path class="st12" d="M1654.9,952.2l-81.2,75.7c-5.8,5.4-8.7,13.2-8,21l3.8,40.4c1.1,11.5,9.8,20.9,21.2,22.8l40,6.6
		c7.8,1.3,15.8-1.1,21.5-6.5l81.2-75.7c12.3-11.4,32.5-3.2,33,13.5c1.1,40.1-14.8,81-47.1,111.1c-58.4,54.5-141.1,46.4-193.4-9.8
		c-52.4-56.2-54.6-139.2,3.8-193.7c32.3-30.1,74.2-43.1,114.1-39.2C1660.4,920,1667.2,940.8,1654.9,952.2z"/>
	
		<linearGradient id="SVGID_11_" gradientUnits="userSpaceOnUse" x1="7445.3037" y1="-284.9628" x2="7368.9023" y2="-134.7068" gradientTransform="matrix(-0.6818 -0.7315 -0.9067 0.8451 8448.3984 1989.7369)">
		<stop  offset="0" style="stop-color:#09005D"/>
		<stop  offset="1" style="stop-color:#1A0F91"/>
	</linearGradient>
	<path class="st13" d="M1096.8,1475.4l-14,13c-24,22.4-31.3,53.7-16.2,69.9l17.9,19.3c15.1,16.2,46.8,11.2,70.8-11.2l14-13
		c0.9-0.9,1.8-1.7,2.7-2.7l398.3-404.8l-39.1-42l-431.8,368.9C1098.6,1473.7,1097.7,1474.6,1096.8,1475.4z M1116,1493.9
		c18.1-16.9,40.9-21.8,50.9-11.1c10,10.7,3.5,33.1-14.6,50c-18.1,16.9-40.9,21.8-50.9,11.1C1091.4,1533.2,1098,1510.8,1116,1493.9z"
		/>
</g>
<g>
	<path class="st14" d="M2404.1,1403.8c157.2,27.6,319.6,34.8,476.7,2.5c71.1-14.6,140.5-37.3,206.5-67.6
		c102.2-46.9,222.9-100.6,238.3-227.2c8.6-70.8-42.2-105.4-104.4-117.6c-21-4.1-42.3-6.8-63.2-0.8c-19.6,5.7-16.2,13.3-14.7,32
		c1.5,19.4,3,38.8,4.5,58.2c2.6,33.9-48,50-72.3,64.1c-57.4,33.3-118.1,60.8-181.5,80.6c-151.5,47.3-312.7,49.1-469.2,31
		c-51.7-6-92.8,42.6-78.6,92.6C2353.9,1378.8,2376.4,1399,2404.1,1403.8z"/>
	<path class="st14" d="M2532,1559.4l-323.3-227.3c-9.8-6.9-8.7-21.8,2-27.2l339.8-170.6c12.6-6.3,27.4,3.3,26.7,17.4
		c-40.9,141.6-45.5,272.9-20.2,395.5C2556.4,1559.7,2542.3,1566.6,2532,1559.4z"/>
</g>
<g>
	<path class="st15" d="M2227.7,3406.3c-147.2,61.5-304.1,104.4-464.4,107.5c-72.6,1.4-145.3-5.4-216.3-20.4
		c-110-23.2-239.6-49-282.5-169.1c-24-67.2,18-112.1,76-137.7c27.2-12,57-22.5,86.1-16.3c-9.1,27.1-18.6,80.6,2.9,103.1
		c15.3,16,65.6,24.2,86.9,30.9c63.3,19.9,128.6,33.3,194.8,38.7c158.2,12.8,315.8-21,464.5-73.1c49.1-17.2,99.9,21.1,97,73
		C2271.1,3370.8,2253.6,3395.5,2227.7,3406.3z"/>
	<path class="st15" d="M2127,3585.7l265.3-292.9c8.1-8.9,3.7-23.2-8-26.1l-369-91.6c-13.7-3.4-26,9.3-22.2,22.9
		c71.1,129.2,104.5,256.1,106.9,381.3C2103.4,3591.3,2118.6,3594.9,2127,3585.7z"/>
</g>
<g>
	<path class="st2" d="M2462.7,2290.5c-1,0-2-0.4-2.7-1.2c-3.1-3.5-6.3-7-9.5-10.4c-1.3-1.4-1.3-3.7,0.2-5c1.4-1.3,3.7-1.3,5,0.2
		c3.2,3.5,6.5,7,9.6,10.6c1.3,1.5,1.2,3.7-0.3,5C2464.4,2290.2,2463.6,2290.5,2462.7,2290.5z"/>
	<path class="st2" d="M2071.1,3161.2c-4.1,0-8.1,0-12.2-0.1c-2,0-3.5-1.7-3.5-3.6c0-1.9,1.6-3.5,3.5-3.5c0,0,0.1,0,0.1,0
		c9.5,0.2,19.1,0.2,28.7-0.1c1.8-0.2,3.6,1.5,3.7,3.4c0.1,2-1.5,3.6-3.4,3.7C2082.4,3161.1,2076.7,3161.2,2071.1,3161.2z
		 M2134.7,3157.3c-1.8,0-3.3-1.3-3.5-3.1c-0.2-1.9,1.1-3.7,3.1-4c9.4-1.2,19-2.6,28.4-4.3c1.9-0.3,3.8,0.9,4.1,2.9
		c0.3,1.9-0.9,3.8-2.9,4.1c-9.5,1.7-19.2,3.2-28.8,4.4C2135,3157.3,2134.9,3157.3,2134.7,3157.3z M2209.1,3142.5c-1.6,0-3-1-3.4-2.6
		c-0.5-1.9,0.6-3.8,2.5-4.4c9.2-2.5,18.4-5.3,27.5-8.4c1.9-0.6,3.9,0.4,4.5,2.2c0.6,1.9-0.4,3.9-2.2,4.5c-9.2,3.1-18.6,5.9-27.8,8.5
		C2209.7,3142.5,2209.4,3142.5,2209.1,3142.5z M2280.5,3117.2c-1.4,0-2.7-0.8-3.2-2.1c-0.8-1.8,0-3.9,1.8-4.7
		c8.8-3.8,17.5-7.9,26-12.2c1.8-0.9,3.9-0.2,4.8,1.6c0.9,1.7,0.2,3.9-1.6,4.8c-8.6,4.3-17.4,8.5-26.3,12.4
		C2281.5,3117.1,2281,3117.2,2280.5,3117.2z M2347.6,3082c-1.2,0-2.3-0.6-3-1.7c-1-1.7-0.5-3.9,1.1-4.9c8.1-5,16.2-10.3,23.9-15.8
		c1.6-1.1,3.8-0.7,4.9,0.9c1.1,1.6,0.7,3.8-0.9,4.9c-7.9,5.5-16.1,10.9-24.3,16C2348.9,3081.8,2348.3,3082,2347.6,3082z
		 M2408.9,3037.4c-1,0-2-0.4-2.7-1.3c-1.3-1.5-1.1-3.7,0.4-5c7.3-6.2,14.5-12.6,21.4-19.1c1.4-1.3,3.7-1.3,5,0.1
		c1.3,1.4,1.3,3.7-0.1,5c-7,6.6-14.3,13.1-21.7,19.4C2410.5,3037.2,2409.7,3037.4,2408.9,3037.4z M2463,2984.5
		c-0.8,0-1.7-0.3-2.3-0.9c-1.5-1.3-1.6-3.5-0.3-5c6.3-7.1,12.5-14.5,18.4-22c1.2-1.5,3.4-1.8,5-0.6c1.5,1.2,1.8,3.4,0.6,5
		c-6,7.6-12.2,15.1-18.6,22.3C2465,2984.1,2464,2984.5,2463,2984.5z M2508.9,2924.2c-0.7,0-1.3-0.2-1.9-0.6c-1.6-1.1-2.1-3.3-1-4.9
		c5.2-8,10.3-16.2,15-24.4c1-1.7,3.2-2.3,4.8-1.3c1.7,1,2.3,3.1,1.3,4.8c-4.8,8.4-10,16.7-15.2,24.8
		C2511.2,2923.6,2510.1,2924.2,2508.9,2924.2z M2545.7,2857.9c-0.5,0-1-0.1-1.5-0.3c-1.8-0.8-2.6-2.9-1.7-4.7
		c4-8.7,7.8-17.5,11.4-26.4c0.7-1.8,2.8-2.7,4.6-2c1.8,0.7,2.7,2.8,2,4.6c-3.6,8.9-7.4,17.9-11.5,26.7
		C2548.3,2857.2,2547,2857.9,2545.7,2857.9z M2572.5,2787.1c-0.3,0-0.7,0-1-0.1c-1.9-0.6-2.9-2.5-2.4-4.4c2.7-9.1,5.2-18.5,7.4-27.7
		c0.5-1.9,2.4-3.1,4.3-2.6c1.9,0.5,3.1,2.4,2.6,4.3c-2.2,9.4-4.8,18.8-7.6,28.1C2575.4,2786.1,2574,2787.1,2572.5,2787.1z
		 M2588.9,2713.1c-0.2,0-0.3,0-0.5,0c-1.9-0.3-3.3-2.1-3-4c1.4-9.4,2.5-19,3.4-28.5c0.2-2,1.9-3.4,3.9-3.2c2,0.2,3.4,1.9,3.2,3.9
		c-0.9,9.6-2,19.3-3.4,28.9C2592.1,2711.8,2590.6,2713.1,2588.9,2713.1z M2594.4,2637.4c-2,0-3.5-1.6-3.5-3.5
		c0-9.6-0.3-19.2-0.8-28.7c-0.1-2,1.4-3.6,3.3-3.7c1.9-0.1,3.6,1.4,3.7,3.3c0.5,9.6,0.8,19.4,0.8,29.1
		C2597.9,2635.9,2596.4,2637.4,2594.4,2637.4z M2588.9,2561.9c-1.7,0-3.2-1.3-3.5-3c-1.4-9.4-3.1-19-5-28.3
		c-0.4-1.9,0.8-3.8,2.8-4.2c1.9-0.4,3.8,0.8,4.2,2.8c1.9,9.4,3.6,19.1,5,28.7c0.3,1.9-1.1,3.7-3,4
		C2589.2,2561.8,2589,2561.9,2588.9,2561.9z M2572.4,2487.9c-1.5,0-2.9-1-3.4-2.5c-2.7-9.2-5.8-18.3-9-27.3
		c-0.7-1.8,0.3-3.9,2.1-4.5c1.8-0.7,3.9,0.3,4.5,2.1c3.3,9.1,6.3,18.3,9.1,27.6c0.6,1.9-0.5,3.9-2.4,4.4
		C2573.1,2487.8,2572.7,2487.9,2572.4,2487.9z M2545.5,2417c-1.3,0-2.6-0.8-3.2-2.1c-4-8.6-8.3-17.3-12.8-25.7
		c-0.9-1.7-0.3-3.9,1.5-4.8c1.7-0.9,3.9-0.3,4.8,1.5c4.5,8.5,8.9,17.3,13,26c0.8,1.8,0.1,3.9-1.7,4.7
		C2546.5,2416.9,2546,2417,2545.5,2417z M2508.7,2350.7c-1.2,0-2.3-0.6-3-1.6c-5.2-7.9-10.7-15.9-16.4-23.6c-1.2-1.6-0.8-3.8,0.8-5
		c1.6-1.2,3.8-0.8,5,0.8c5.7,7.8,11.3,15.8,16.6,23.9c1.1,1.6,0.6,3.8-1,4.9C2510,2350.6,2509.4,2350.7,2508.7,2350.7z"/>
	<path class="st2" d="M2011.9,3157.8c-0.1,0-0.3,0-0.4,0c-4.7-0.5-9.5-1.1-14.2-1.8c-1.9-0.3-3.3-2.1-3-4c0.3-1.9,2-3.3,4-3
		c4.6,0.7,9.3,1.3,14,1.8c1.9,0.2,3.3,2,3.1,3.9C2015.2,3156.5,2013.7,3157.8,2011.9,3157.8z"/>
</g>
<g>
	<path class="st2" d="M1659.8,2961.7c-1.1,0-2.1-0.5-2.8-1.4c-2.9-3.7-5.8-7.5-8.7-11.3c-1.2-1.6-0.8-3.8,0.7-5
		c1.6-1.2,3.8-0.8,5,0.7c2.8,3.8,5.7,7.5,8.6,11.2c1.2,1.5,0.9,3.8-0.6,5C1661.3,2961.5,1660.5,2961.7,1659.8,2961.7z"/>
	<path class="st2" d="M1625.2,2912.2c-1.2,0-2.4-0.6-3-1.7c-5-8.1-9.8-16.4-14.3-24.8c-0.9-1.7-0.3-3.9,1.4-4.8
		c1.7-0.9,3.9-0.3,4.8,1.4c4.5,8.3,9.2,16.5,14.1,24.5c1,1.7,0.5,3.9-1.2,4.9C1626.5,2912.1,1625.9,2912.2,1625.2,2912.2z
		 M1590.8,2846.1c-1.4,0-2.7-0.8-3.3-2.1c-0.8-1.9-1.6-3.8-2.5-5.8c-2.9-6.8-5.6-13.8-8.2-20.8c-0.7-1.8,0.2-3.9,2.1-4.6
		c1.9-0.7,3.9,0.3,4.6,2.1c2.6,6.9,5.3,13.8,8.1,20.5c0.8,1.9,1.6,3.8,2.4,5.7c0.8,1.8,0,3.9-1.8,4.7
		C1591.8,2846,1591.3,2846.1,1590.8,2846.1z M1566,2775.7c-1.6,0-3-1-3.4-2.6c-2.5-9.2-4.8-18.5-6.8-27.8c-0.4-1.9,0.8-3.8,2.7-4.2
		c1.9-0.4,3.8,0.8,4.2,2.7c2,9.1,4.3,18.4,6.7,27.4c0.5,1.9-0.6,3.8-2.5,4.4C1566.6,2775.7,1566.3,2775.7,1566,2775.7z
		 M1551.4,2702.5c-1.8,0-3.3-1.3-3.5-3.1c-1.2-9.4-2.1-19-2.8-28.5c-0.1-2,1.3-3.6,3.3-3.8c1.9-0.1,3.6,1.3,3.8,3.3
		c0.7,9.3,1.6,18.8,2.7,28.1c0.2,1.9-1.1,3.7-3.1,4C1551.7,2702.5,1551.6,2702.5,1551.4,2702.5z M1547.5,2628
		C1547.5,2628,1547.4,2628,1547.5,2628c-2,0-3.6-1.7-3.5-3.6c0.2-9.5,0.6-19.1,1.3-28.6c0.1-2,1.8-3.4,3.8-3.3
		c2,0.1,3.4,1.8,3.3,3.8c-0.7,9.4-1.1,18.9-1.3,28.2C1551,2626.5,1549.4,2628,1547.5,2628z M1554.2,2553.7c-0.2,0-0.4,0-0.6,0
		c-1.9-0.3-3.2-2.1-2.9-4.1c1.5-9.4,3.3-18.8,5.4-28.1c0.4-1.9,2.3-3.1,4.2-2.7c1.9,0.4,3.1,2.3,2.7,4.2c-2,9.2-3.8,18.5-5.3,27.7
		C1557.4,2552.5,1555.9,2553.7,1554.2,2553.7z M1571.5,2481.2c-0.4,0-0.7-0.1-1.1-0.2c-1.9-0.6-2.9-2.6-2.3-4.4
		c2.8-9.1,6-18.2,9.3-27.1c0.7-1.8,2.7-2.8,4.6-2.1c1.8,0.7,2.8,2.7,2.1,4.6c-3.3,8.8-6.4,17.8-9.2,26.7
		C1574.4,2480.2,1573,2481.2,1571.5,2481.2z M1598.8,2411.8c-0.5,0-1-0.1-1.5-0.3c-1.8-0.8-2.5-3-1.7-4.7c4.1-8.6,8.5-17.2,13-25.5
		c0.9-1.7,3.1-2.4,4.8-1.4c1.7,0.9,2.4,3.1,1.4,4.8c-4.5,8.2-8.8,16.6-12.9,25.1C1601.4,2411,1600.1,2411.8,1598.8,2411.8z
		 M1635.6,2346.9c-0.7,0-1.4-0.2-2-0.6c-1.6-1.1-2.1-3.3-1-4.9c5.3-7.9,10.8-15.8,16.5-23.4c1.2-1.6,3.4-1.9,5-0.7
		c1.6,1.2,1.9,3.4,0.7,5c-5.6,7.5-11.1,15.3-16.3,23C1637.9,2346.4,1636.8,2346.9,1635.6,2346.9z M1681.3,2288
		c-0.8,0-1.7-0.3-2.4-0.9c-1.5-1.3-1.6-3.5-0.3-5c6.3-7.1,12.9-14,19.7-20.8c1.4-1.4,3.6-1.4,5,0c1.4,1.4,1.4,3.6,0,5
		c-6.6,6.6-13.2,13.5-19.4,20.5C1683.2,2287.6,1682.3,2288,1681.3,2288z M1734.9,2236.2c-1,0-2-0.4-2.7-1.3c-1.3-1.5-1.1-3.7,0.4-5
		c7.3-6.1,14.8-12.1,22.4-17.7c1.6-1.2,3.8-0.9,5,0.7c1.2,1.6,0.9,3.8-0.7,5c-7.5,5.6-14.9,11.5-22.1,17.5
		C1736.5,2235.9,1735.7,2236.2,1734.9,2236.2z M1795.4,2192.6c-1.2,0-2.4-0.6-3-1.7c-1-1.7-0.5-3.8,1.2-4.9
		c8.1-5,16.4-9.8,24.8-14.4c1.7-0.9,3.9-0.3,4.8,1.4c0.9,1.7,0.3,3.9-1.4,4.8c-8.2,4.5-16.5,9.3-24.4,14.2
		C1796.6,2192.4,1796,2192.6,1795.4,2192.6z M1861.4,2158.1c-1.4,0-2.7-0.8-3.3-2.1c-0.8-1.8,0-3.9,1.8-4.7c2.3-1,4.6-2,6.8-2.9
		c6.5-2.7,13.1-5.4,19.7-7.8c1.8-0.7,3.9,0.2,4.6,2.1c0.7,1.8-0.2,3.9-2.1,4.6c-6.5,2.4-13,5-19.4,7.7c-2.3,1-4.5,1.9-6.8,2.9
		C1862.4,2158,1861.9,2158.1,1861.4,2158.1z M1931.7,2133.1c-1.6,0-3-1-3.4-2.6c-0.5-1.9,0.6-3.8,2.5-4.4c9.2-2.5,18.5-4.9,27.8-6.9
		c1.9-0.4,3.8,0.8,4.2,2.7c0.4,1.9-0.8,3.8-2.7,4.2c-9.1,2-18.4,4.3-27.4,6.8C1932.3,2133,1932,2133.1,1931.7,2133.1z
		 M2004.8,2118.3c-1.8,0-3.3-1.3-3.5-3.1c-0.2-1.9,1.1-3.7,3.1-4c9.4-1.2,19-2.2,28.5-2.8c2-0.2,3.7,1.3,3.8,3.3
		c0.1,2-1.3,3.7-3.3,3.8c-9.4,0.7-18.8,1.6-28.1,2.8C2005.1,2118.3,2005,2118.3,2004.8,2118.3z M2107.7,2115.5c-0.1,0-0.2,0-0.3,0
		c-9.4-0.7-18.8-1.1-28.2-1.2c-2,0-3.5-1.6-3.5-3.6c0-1.9,1.6-3.5,3.5-3.5c0,0,0,0,0.1,0c9.5,0.2,19.1,0.6,28.6,1.3
		c2,0.1,3.4,1.8,3.3,3.8C2111.1,2114.1,2109.6,2115.5,2107.7,2115.5z"/>
	<path class="st2" d="M2167.9,2123.3c-0.2,0-0.4,0-0.7-0.1c-4.6-0.9-9.2-1.7-13.9-2.4c-1.9-0.3-3.2-2.1-2.9-4.1
		c0.3-1.9,2.1-3.2,4.1-2.9c4.7,0.8,9.4,1.6,14.1,2.5c1.9,0.4,3.2,2.2,2.8,4.1C2171.1,2122.1,2169.6,2123.3,2167.9,2123.3z"/>
</g>
<path class="st16" d="M2464.9,2536.8l-32.8-85.6c-1-2.5-3.4-4.1-6.1-4l-76.4,2.6c-20.6-30.4-45.8-56.7-74.2-78.3l6.7-76.2
	c0.2-2.7-1.2-5.2-3.7-6.3l-83.7-37.4c-2.4-1.1-5.3-0.5-7.1,1.4l-52.2,55.9c-35.1-6.7-71.5-7.9-107.9-2.9l-49.1-58.5
	c-1.7-2.1-4.6-2.8-7.1-1.8l-85.6,32.8c-2.5,1-4.1,3.4-4,6.1l2.6,76.4c-30.4,20.6-56.7,45.8-78.3,74.2l-76.2-6.7
	c-2.7-0.2-5.2,1.3-6.3,3.7l-37.4,83.7c-1.1,2.4-0.5,5.3,1.4,7.1l55.9,52.2c-6.7,35.1-7.9,71.5-2.9,107.9l-58.5,49.1
	c-2.1,1.7-2.8,4.6-1.8,7.1l32.8,85.6c1,2.5,3.4,4.1,6.1,4l76.4-2.6c20.6,30.4,45.8,56.7,74.2,78.3l-6.7,76.2
	c-0.2,2.7,1.3,5.2,3.7,6.3l83.7,37.4c2.4,1.1,5.3,0.5,7.1-1.4l52.2-55.9c35.1,6.7,71.5,7.9,107.9,2.9l49.1,58.5
	c1.7,2.1,4.6,2.8,7.1,1.8l85.6-32.8c2.5-1,4.1-3.4,4-6.1l-2.6-76.4c30.4-20.6,56.7-45.8,78.3-74.2l76.2,6.7c2.7,0.2,5.2-1.3,6.3-3.7
	l37.4-83.7c1.1-2.4,0.5-5.3-1.4-7.1l-55.9-52.2c6.7-35.1,7.9-71.5,2.9-107.9l58.5-49.1C2465.1,2542.1,2465.8,2539.3,2464.9,2536.8z
	 M2143.4,2588c13.3,19,18.5,42,14.5,64.8c-4,22.8-16.6,42.7-35.6,56.1c-14.8,10.4-32,15.8-49.7,15.8c-5,0-10-0.4-15.1-1.3
	c-22.8-4-42.7-16.6-56.1-35.6c-13.3-19-18.5-42-14.5-64.8c4-22.8,16.6-42.7,35.6-56.1C2061.7,2539.5,2115.9,2548.9,2143.4,2588z
	 M2278.7,2732.1c-24.7,55.3-69.4,97.6-125.9,119.3c-26.6,10.2-53.9,15-80.8,15c-91.2,0-177.4-55.5-211.9-145.6
	c-10.2-26.6-15-53.9-15-80.8c0-91.2,55.5-177.3,145.6-211.8c3.1-1.2,6.3-2.3,9.4-3.4c10.8-3.6,21.7-6.4,32.8-8.3
	c1.5-0.3,2.9-0.5,4.4-0.7l1.6,10.5c-15.1,2.3-30,6.3-44.4,11.8c-111.2,42.6-167,167.7-124.4,278.9c42.6,111.2,167.7,167,278.9,124.4
	c53.9-20.6,96.5-61,120-113.7c12.6-28.1,18.9-58,18.9-87.9c0-26.1-4.8-52.2-14.4-77.3c-14-36.6-37.6-68.6-68.2-92.6l6.6-8.4
	c32.2,25.2,56.9,58.8,71.6,97.2c10.1,26.3,15.1,53.8,15.1,81.1C2298.5,2671.3,2291.9,2702.6,2278.7,2732.1z"/>
<path class="st16" d="M2571.6,1898.1l-8.3-21.7c-0.2-0.6-0.9-1-1.5-1l-19.3,0.7c-5.2-7.7-11.6-14.4-18.8-19.8l1.7-19.3
	c0.1-0.7-0.3-1.3-0.9-1.6l-21.2-9.5c-0.6-0.3-1.3-0.1-1.8,0.4l-13.2,14.1c-8.9-1.7-18.1-2-27.3-0.7l-12.4-14.8
	c-0.4-0.5-1.2-0.7-1.8-0.5l-21.7,8.3c-0.6,0.2-1,0.9-1,1.5l0.7,19.3c-7.7,5.2-14.4,11.6-19.8,18.8l-19.3-1.7
	c-0.7-0.1-1.3,0.3-1.6,0.9l-9.5,21.2c-0.3,0.6-0.1,1.3,0.4,1.8l14.1,13.2c-1.7,8.9-2,18.1-0.7,27.3l-14.8,12.4
	c-0.5,0.4-0.7,1.2-0.5,1.8l8.3,21.7c0.2,0.6,0.9,1,1.5,1l19.3-0.7c5.2,7.7,11.6,14.4,18.8,19.8l-1.7,19.3c-0.1,0.7,0.3,1.3,0.9,1.6
	l21.2,9.5c0.6,0.3,1.3,0.1,1.8-0.4l13.2-14.1c8.9,1.7,18.1,2,27.3,0.7l12.4,14.8c0.4,0.5,1.2,0.7,1.8,0.5l21.7-8.3
	c0.6-0.2,1-0.9,1-1.5l-0.7-19.3c7.7-5.2,14.4-11.6,19.8-18.8l19.3,1.7c0.7,0.1,1.3-0.3,1.6-0.9l9.5-21.2c0.3-0.6,0.1-1.3-0.4-1.8
	l-14.1-13.2c1.7-8.9,2-18.1,0.7-27.3l14.8-12.4C2571.7,1899.4,2571.9,1898.7,2571.6,1898.1z M2490.2,1911c3.4,4.8,4.7,10.6,3.7,16.4
	c-1,5.8-4.2,10.8-9,14.2c-3.7,2.6-8.1,4-12.6,4c-1.3,0-2.5-0.1-3.8-0.3c-5.8-1-10.8-4.2-14.2-9c-3.4-4.8-4.7-10.6-3.7-16.4
	c1-5.8,4.2-10.8,9-14.2C2469.6,1898.8,2483.3,1901.1,2490.2,1911z M2524.5,1947.5c-6.2,14-17.6,24.7-31.9,30.2
	c-6.7,2.6-13.6,3.8-20.5,3.8c-23.1,0-44.9-14-53.6-36.9c-2.6-6.7-3.8-13.6-3.8-20.5c0-23.1,14-44.9,36.8-53.6
	c0.8-0.3,1.6-0.6,2.4-0.9c2.7-0.9,5.5-1.6,8.3-2.1c0.4-0.1,0.7-0.1,1.1-0.2l0.4,2.7c-3.8,0.6-7.6,1.6-11.2,3
	c-28.2,10.8-42.3,42.5-31.5,70.6c10.8,28.2,42.5,42.3,70.6,31.5c13.6-5.2,24.4-15.4,30.4-28.8c3.2-7.1,4.8-14.7,4.8-22.3
	c0-6.6-1.2-13.2-3.6-19.6c-3.5-9.3-9.5-17.4-17.3-23.4l1.7-2.1c8.1,6.4,14.4,14.9,18.1,24.6c2.6,6.7,3.8,13.6,3.8,20.5
	C2529.5,1932.1,2527.8,1940,2524.5,1947.5z"/>
<g>
	<path class="st2" d="M2643.3,1777.8c-0.8,0-1.7-0.3-2.3-1c-2.6-3-5.3-5.9-8-8.8c-1.2-1.2-1.1-3.1,0.1-4.3c1.2-1.2,3.1-1.1,4.3,0.1
		c2.8,2.9,5.6,5.9,8.2,9c1.1,1.3,1,3.2-0.3,4.3C2644.7,1777.5,2644,1777.8,2643.3,1777.8z"/>
	<path class="st2" d="M2472.1,2194.4c-1.6,0-2.9-1.2-3-2.8c-0.1-1.7,1.1-3.1,2.8-3.2c7.7-0.6,15.5-1.5,23.1-2.8
		c1.7-0.3,3.2,0.8,3.5,2.5c0.3,1.6-0.8,3.2-2.5,3.5c-7.8,1.3-15.8,2.3-23.7,2.9C2472.3,2194.4,2472.2,2194.4,2472.1,2194.4z
		 M2532.7,2182.2c-1.3,0-2.4-0.8-2.9-2.1c-0.5-1.6,0.3-3.3,1.9-3.8c7.1-2.4,14.2-5.1,21.1-8.1l0.6-0.3c1.5-0.7,3.3,0,4,1.5
		c0.7,1.5,0,3.3-1.5,4l-0.7,0.3c-7.1,3.1-14.4,5.9-21.6,8.3C2533.3,2182.2,2533,2182.2,2532.7,2182.2z M2588.5,2155.8
		c-1,0-2-0.5-2.5-1.4c-0.9-1.4-0.5-3.3,0.9-4.2c6.5-4.1,13-8.6,19.1-13.4c1.3-1,3.2-0.8,4.2,0.5c1,1.3,0.8,3.2-0.5,4.2
		c-6.3,4.8-12.8,9.5-19.5,13.7C2589.7,2155.6,2589.1,2155.8,2588.5,2155.8z M2636.2,2116.5c-0.7,0-1.5-0.3-2.1-0.8
		c-1.2-1.1-1.3-3.1-0.1-4.3c5.3-5.6,10.4-11.6,15.2-17.6c1-1.3,2.9-1.5,4.2-0.5c1.3,1,1.5,2.9,0.5,4.2c-4.9,6.2-10.1,12.3-15.6,18.1
		C2637.8,2116.2,2637,2116.5,2636.2,2116.5z M2672.9,2066.8c-0.5,0-1-0.1-1.5-0.4c-1.5-0.8-2-2.7-1.2-4.1
		c3.8-6.7,7.3-13.7,10.5-20.8c0.7-1.5,2.5-2.2,4-1.5c1.5,0.7,2.2,2.5,1.5,4c-3.2,7.2-6.8,14.4-10.7,21.3
		C2675,2066.2,2673.9,2066.8,2672.9,2066.8z M2696.4,2009.7c-0.3,0-0.5,0-0.8-0.1c-1.6-0.4-2.5-2.1-2.1-3.7c2-7.5,3.8-15.1,5.1-22.7
		c0.3-1.6,1.9-2.7,3.5-2.4c1.6,0.3,2.7,1.9,2.4,3.5c-1.4,7.8-3.1,15.7-5.2,23.3C2698.9,2008.8,2697.7,2009.7,2696.4,2009.7z
		 M2705.3,1948.5C2705.2,1948.5,2705.2,1948.5,2705.3,1948.5c-1.7,0-3.1-1.4-3-3.1c0-1.8,0.1-3.5,0.1-5.3c0-6-0.2-12-0.7-18
		c-0.1-1.7,1.1-3.1,2.8-3.2c1.6-0.1,3.1,1.1,3.2,2.8c0.4,6.1,0.7,12.3,0.7,18.4c0,1.8,0,3.6-0.1,5.4
		C2708.2,1947.2,2706.9,1948.5,2705.3,1948.5z M2698.9,1887.1c-1.4,0-2.6-0.9-2.9-2.3c-1.7-7.6-3.9-15.1-6.3-22.4
		c-0.5-1.6,0.3-3.3,1.9-3.8c1.6-0.5,3.3,0.3,3.8,1.9c2.5,7.5,4.7,15.2,6.4,23c0.4,1.6-0.6,3.2-2.3,3.6
		C2699.4,1887,2699.2,1887.1,2698.9,1887.1z M2677.8,1829c-1.1,0-2.2-0.6-2.7-1.6c-3.5-6.9-7.4-13.7-11.5-20.3
		c-0.9-1.4-0.5-3.3,0.9-4.2c1.4-0.9,3.3-0.5,4.2,0.9c4.2,6.7,8.2,13.7,11.8,20.7c0.8,1.5,0.2,3.3-1.3,4.1
		C2678.8,1828.9,2678.3,1829,2677.8,1829z"/>
	<path class="st2" d="M2433.7,2194.2c-0.1,0-0.2,0-0.2,0c-4.1-0.3-8.1-0.8-12.1-1.3c-1.6-0.2-2.8-1.7-2.6-3.4
		c0.2-1.6,1.7-2.8,3.4-2.6c3.9,0.5,7.9,0.9,11.8,1.2c1.7,0.1,2.9,1.6,2.8,3.2C2436.6,2193,2435.3,2194.2,2433.7,2194.2z"/>
</g>
<g>
	<path class="st2" d="M2257.9,2101.7c-0.9,0-1.8-0.4-2.3-1.1c-2.6-3.2-5.1-6.4-7.4-9.7c-1-1.3-0.7-3.2,0.7-4.2
		c1.4-1,3.2-0.7,4.2,0.7c2.3,3.1,4.8,6.3,7.3,9.4c1,1.3,0.8,3.2-0.5,4.2C2259.3,2101.5,2258.6,2101.7,2257.9,2101.7z"/>
	<path class="st2" d="M2230.7,2060.2c-1.1,0-2.1-0.6-2.7-1.6c-2.8-5.4-5.5-11-7.9-16.6c-0.7-1.6-1.4-3.1-2-4.7
		c-0.6-1.5,0.1-3.3,1.6-3.9c1.5-0.6,3.3,0.1,3.9,1.6c0.6,1.5,1.3,3.1,2,4.6c2.4,5.4,5,10.9,7.7,16.2c0.8,1.5,0.2,3.3-1.3,4.1
		C2231.6,2060,2231.1,2060.2,2230.7,2060.2z M2209.1,2003.3c-1.4,0-2.6-0.9-2.9-2.3c-1.9-7.6-3.4-15.3-4.6-23
		c-0.2-1.6,0.9-3.2,2.5-3.4c1.7-0.2,3.2,0.9,3.4,2.5c1.1,7.5,2.6,15.1,4.5,22.5c0.4,1.6-0.6,3.3-2.2,3.6
		C2209.6,2003.3,2209.3,2003.3,2209.1,2003.3z M2201.8,1943C2201.8,1943,2201.8,1943,2201.8,1943c-1.7,0-3-1.4-3-3
		c0-7.8,0.4-15.7,1.1-23.5c0.2-1.7,1.6-2.9,3.3-2.7c1.7,0.2,2.9,1.6,2.7,3.3c-0.7,7.6-1.1,15.3-1.1,22.9
		C2204.8,1941.6,2203.5,1943,2201.8,1943z M2209.3,1882.6c-0.2,0-0.5,0-0.7-0.1c-1.6-0.4-2.6-2-2.2-3.7c1.9-7.6,4.1-15.1,6.7-22.5
		c0.5-1.6,2.3-2.4,3.8-1.9c1.6,0.5,2.4,2.3,1.9,3.8c-2.5,7.2-4.7,14.6-6.6,22C2211.9,1881.7,2210.6,1882.6,2209.3,1882.6z
		 M2231,1825.8c-0.5,0-1-0.1-1.4-0.3c-1.5-0.8-2-2.6-1.3-4.1c3.6-6.9,7.6-13.7,11.9-20.2c0.9-1.4,2.8-1.8,4.2-0.9
		c1.4,0.9,1.8,2.8,0.9,4.2c-4.1,6.4-8,13-11.6,19.8C2233.1,1825.3,2232,1825.8,2231,1825.8z M2265.6,1775.9c-0.7,0-1.4-0.3-2-0.8
		c-1.2-1.1-1.4-3-0.3-4.3c5.2-5.8,10.7-11.5,16.4-16.8c1.2-1.1,3.1-1.1,4.3,0.1c1.1,1.2,1.1,3.1-0.1,4.3c-5.6,5.2-10.9,10.7-16,16.4
		C2267.2,1775.5,2266.4,1775.9,2265.6,1775.9z M2311.2,1735.7c-1,0-1.9-0.5-2.5-1.3c-0.9-1.4-0.6-3.3,0.8-4.2
		c6.4-4.4,13.1-8.5,20-12.4c1.5-0.8,3.3-0.3,4.1,1.2c0.8,1.5,0.3,3.3-1.2,4.1c-6.7,3.7-13.2,7.8-19.5,12.1
		C2312.3,1735.5,2311.7,1735.7,2311.2,1735.7z M2365.1,1707.7c-1.2,0-2.4-0.7-2.8-2c-0.6-1.6,0.2-3.3,1.8-3.9
		c7.3-2.7,14.8-5.2,22.3-7.3c1.6-0.4,3.3,0.5,3.7,2.1c0.4,1.6-0.5,3.3-2.1,3.7c-7.3,2-14.7,4.4-21.8,7.1
		C2365.8,1707.6,2365.4,1707.7,2365.1,1707.7z M2424.1,1693.3c-1.5,0-2.8-1.1-3-2.7c-0.2-1.7,1-3.2,2.6-3.3
		c7.7-0.9,15.6-1.5,23.4-1.7c1.6,0,3,1.3,3.1,2.9c0,1.7-1.3,3-2.9,3.1c-7.6,0.2-15.3,0.7-22.9,1.6
		C2424.4,1693.3,2424.2,1693.3,2424.1,1693.3z"/>
	<path class="st2" d="M2497,1695.3c-0.2,0-0.3,0-0.5,0c-3.8-0.7-7.8-1.3-11.8-1.8c-1.7-0.2-2.8-1.7-2.6-3.4c0.2-1.7,1.7-2.8,3.4-2.6
		c4.1,0.5,8.1,1.1,12.1,1.8c1.6,0.3,2.7,1.9,2.4,3.5C2499.7,1694.3,2498.4,1695.3,2497,1695.3z"/>
</g>
<linearGradient id="SVGID_12_" gradientUnits="userSpaceOnUse" x1="8547.7305" y1="2705.3733" x2="8732.8779" y2="2705.3733" gradientTransform="matrix(-1 0 0 1 12059.0146 0)">
	<stop  offset="0" style="stop-color:#FEBBBA"/>
	<stop  offset="1" style="stop-color:#FF928E"/>
</linearGradient>
<path class="st17" d="M3444.6,2610c19,20.3,47,37.8,66.6,48.7c-29.4,36.3-69.2,72.7-121.8,108.3l-15.1,33.8l-48.3-57.9
	C3326.1,2742.9,3412.8,2699.8,3444.6,2610z"/>
<path class="st14" d="M3001.6,2289.8c15.6-19.5,29.2-40.4,40.6-62c15.9-30.1,74.9-55.3,79.2-89.3c107.7,18.7,216.5,24.7,294.8,41
	c22.5,4.7,43.6,14.1,58.6,31.5c59.5,68.9,190.2,257.6,36.4,447.7c-19.7-10.9-47.6-28.4-66.6-48.7c17-48,18.4-109.3-17.3-184.4
	c-1.2,6-2.7,11.9-4.6,17.7c-49.1,155.7-51.8,285.3-51.7,315.1c0,4.1-2.4,7.7-6.2,9.2c-64.7,25.9-189.2,10.5-231,4.3
	c-7.7-1.1-12.8-8.3-11.8-16c20.5-148.6-84.8-393.1-112.6-454.3C3007.7,2297.1,3004.9,2293.2,3001.6,2289.8z"/>
<linearGradient id="SVGID_13_" gradientUnits="userSpaceOnUse" x1="3305.8665" y1="1965.4596" x2="3246.655" y2="2187.0242">
	<stop  offset="0" style="stop-color:#FEBBBA"/>
	<stop  offset="1" style="stop-color:#FF928E"/>
</linearGradient>
<path class="st18" d="M3304.4,2036.6l12.5,127.4c0,0-73,25.2-125.1-11.5l37.9-119.4L3304.4,2036.6z"/>
<path class="st19" d="M3435.2,2410.4c21.6-62.2,17.1-134.3,15.6-151.2c-0.2-2-2-3.5-4-3.3l0,0c-1.9,0.2-3.4,1.9-3.2,3.9
	c1.4,16.4,5.9,87.3-15.3,148.2c-0.6,1.9,0.3,3.9,2.1,4.6l0,0C3432.4,2413.3,3434.5,2412.3,3435.2,2410.4z"/>
<g>
	<path class="st14" d="M2716.2,2295.8c123,61.6,222.9-64.9,288.4-116.5c86.5-68.2,153.8-35,153.8-35l-92.3,176.1
		c-164,198.5-289.1,112.5-368.1,59C2696.6,2345.3,2705.7,2316.8,2716.2,2295.8z"/>
	<path class="st14" d="M2617.7,2264.6L2617.7,2264.6c62.5,21.2,55.2,24.7,98.5,31.2c-10.4,21-19.5,49.5-18.2,83.5
		c-56.7-26.8-92.2-59-92.2-59c-16.9-8.1-11-34.6-5.2-51.5C2603.1,2261.6,2612.1,2259.4,2617.7,2264.6z"/>
</g>
<g>
	
		<linearGradient id="SVGID_14_" gradientUnits="userSpaceOnUse" x1="2892.7439" y1="5908.0054" x2="2836.6689" y2="5723.0566" gradientTransform="matrix(-0.746 -0.6659 -0.6659 0.746 9265.8857 -439.8122)">
		<stop  offset="0" style="stop-color:#FEBBBA"/>
		<stop  offset="1" style="stop-color:#FF928E"/>
	</linearGradient>
	<path class="st20" d="M3202.5,1923.7c0,0-54.2,102-47.2,143.2c6.9,41.2,74.1,38.2,132.7,4.8l41-110.1L3202.5,1923.7z"/>
	
		<linearGradient id="SVGID_15_" gradientUnits="userSpaceOnUse" x1="2836.9866" y1="5586.6655" x2="2883.8928" y2="5854.2051" gradientTransform="matrix(-0.746 -0.6659 -0.6659 0.746 9265.8857 -439.8122)">
		<stop  offset="0" style="stop-color:#09005D"/>
		<stop  offset="1" style="stop-color:#1A0F91"/>
	</linearGradient>
	<path class="st21" d="M3285.4,2017.6c-2.4-1.1-3.3-4-1.8-6.2c4.3-6.6,12.5-20.2,15.1-32c0,0,9.7-6.2-24.8-14.5
		c-34.5-8.3-86-21.1-96.8-50.5c-10.6-28.7,46-65.9,90.3-8.4c1.7,2.2-23.9-32.6-22.2-34.8c7.3-9.4,26.3-29,52.8-17.2
		c24.8,11.1,27.6,29.3,27.2,38.4c-0.1,2.7,2.3,4.8,5,4.3c12.5-2.4,42.6-4.4,56.6,26.4c11.6,25.4,4,39.8-2.8,46.8
		c-2.2,2.3-1.2,6,1.8,7c8.2,2.5,5.5-1.5,4.4,17.8c-1.5,26.7-17.9,35.3-26.4,34.1c-1.4-0.2-2.8,0.3-3.7,1.3
		c-7.3,8.1-40.1,42.2-75.5,46.4c-3.1,0.4-5.5-2.7-4.4-5.6l15.4-44.6c0.7-2.1-0.3-4.3-2.3-5.2L3285.4,2017.6z"/>
	
		<linearGradient id="SVGID_16_" gradientUnits="userSpaceOnUse" x1="2835.4224" y1="5907.1445" x2="2784.9702" y2="5740.7417" gradientTransform="matrix(-0.746 -0.6659 -0.6659 0.746 9265.8857 -439.8122)">
		<stop  offset="0" style="stop-color:#FEBBBA"/>
		<stop  offset="1" style="stop-color:#FF928E"/>
	</linearGradient>
	<path class="st22" d="M3279.3,2023.9c0,0,38.6-26.5,41.4-4.2c2.8,22.3-34.7,32.3-53.3,24L3279.3,2023.9z"/>
</g>
<g>
	<path class="st4" d="M3268.1,3223.7l25.3,34.4c43.5,59.1,111,83.3,150.8,54l47.4-34.8c39.8-29.3,36.9-101-6.5-160.1l-25.3-34.4
		c-1.7-2.3-3.4-4.5-5.2-6.7l-794.8-988.6l-103.2,75.9l706.6,1053.4C3264.8,3219.1,3266.4,3221.4,3268.1,3223.7z M3314.1,3185.7
		c-32.7-44.5-37.8-96.3-11.4-115.8c26.4-19.4,74.4,0.9,107.1,45.4c32.7,44.5,37.8,96.3,11.4,115.8
		C3394.8,3250.5,3346.8,3230.2,3314.1,3185.7z"/>
	<path class="st4" d="M2248,1852.7l146.9,199.8c10.5,14.2,26.9,22.8,44.6,23.2l90.5,2c25.8,0.6,48.8-16.3,56-41.2l25.1-87
		c4.9-17,1.6-35.2-8.8-49.5l-146.9-199.8c-22.2-30.1,1.3-73,38.6-69.6c89.1,8,175.8,53.9,234.2,133.4
		c105.7,143.7,66.3,325-71.9,426.6c-138.2,101.6-323,85.2-428.6-58.5c-58.5-79.5-76.4-175.9-57.5-263.4
		C2178,1832.2,2225.9,1822.5,2248,1852.7z"/>
	<path class="st23" d="M2266.9,1838.8l146.9,199.8c10.5,14.2,26.9,22.8,44.6,23.2l90.5,2c25.8,0.6,48.8-16.3,56-41.2l25.1-87
		c4.9-17,1.6-35.2-8.8-49.5l-146.9-199.8c-22.2-30.1,1.3-73,38.6-69.6c89.1,8,175.8,53.9,234.2,133.4
		c105.7,143.7,66.3,325-71.9,426.6c-138.2,101.6-323,85.2-428.6-58.5c-58.5-79.5-76.4-175.9-57.5-263.4
		C2196.8,1818.3,2244.7,1808.7,2266.9,1838.8z"/>
	<g>
		<path class="st23" d="M3283.1,3212.7l25.3,34.4c43.5,59.1,111,83.3,150.8,54l47.4-34.8c39.8-29.3,36.9-101-6.5-160.1l-25.3-34.4
			c-1.7-2.3-3.4-4.5-5.2-6.7l-794.8-988.6l-103.2,75.9l706.6,1053.4C3279.8,3208.1,3281.5,3210.4,3283.1,3212.7z M3329.1,3174.7
			c-32.7-44.5-37.8-96.3-11.4-115.8c26.4-19.4,74.4,0.9,107.1,45.4c32.7,44.5,37.8,96.3,11.4,115.8
			C3409.8,3239.5,3361.8,3219.2,3329.1,3174.7z"/>
	</g>
</g>
<linearGradient id="SVGID_17_" gradientUnits="userSpaceOnUse" x1="2592.6584" y1="2295.8481" x2="2675.7263" y2="2295.8481">
	<stop  offset="0" style="stop-color:#FEBBBA"/>
	<stop  offset="1" style="stop-color:#FF928E"/>
</linearGradient>
<path class="st24" d="M2595,2315.8l6.9,14.5c1.1,2.3,3.3,3.9,5.8,4.2c21.6,2.3,41.5-0.5,60.3-7.1c6.6-2.3,9.7-10.1,6.3-16.2
	c-7.8-14.2-17.2-28-28.6-41.1c-3.7-4.3-8.6-7.4-14-8.9l-15.2-4.2c-6.3-1.7-13.1,1.1-16.1,7c-6.9,13.6-9,29-7.1,46
	C2593.5,2311.9,2594.1,2313.9,2595,2315.8z"/>
<linearGradient id="SVGID_18_" gradientUnits="userSpaceOnUse" x1="8722.4346" y1="3657.9187" x2="8861.2656" y2="3657.9187" gradientTransform="matrix(-1 0 0 1 12059.0146 0)">
	<stop  offset="0" style="stop-color:#09005D"/>
	<stop  offset="1" style="stop-color:#1A0F91"/>
</linearGradient>
<path class="st25" d="M3197.8,3707.4c0-1,0.1-2.1,0.3-3.1c15.6-62,93.2-100.6,93.2-100.6l30.8,2.4c17.7,54.6,15.4,88.1,12.6,103.1
	c-0.1,0.4-0.2,0.8-0.3,1.2C3309,3712.6,3256.7,3714.1,3197.8,3707.4z"/>
<path class="st0" d="M3334.3,3710.3c-1.4,5-5,8.9-9.8,9.9c-36.1,7.6-93.4,1.5-117.5-1.7c-5.3-0.7-9.2-5.6-9.3-11.2
	C3256.7,3714.1,3309,3712.6,3334.3,3710.3z"/>
<linearGradient id="SVGID_19_" gradientUnits="userSpaceOnUse" x1="8952.7812" y1="3658.3831" x2="9145.1445" y2="3658.3831" gradientTransform="matrix(-1 0 0 1 12059.0146 0)">
	<stop  offset="0" style="stop-color:#09005D"/>
	<stop  offset="1" style="stop-color:#1A0F91"/>
</linearGradient>
<path class="st26" d="M2913.9,3698.5c0.2-0.4,0.4-0.9,0.7-1.3c15.9-21.5,56.2-64.2,136-82.8l38.3-1.2c0,0,17,28.7,17.4,81.9
	c-8.7,3.5-25.7,7.2-58.3,8.1C2997.4,3704.6,2937.4,3700.4,2913.9,3698.5z"/>
<linearGradient id="SVGID_20_" gradientUnits="userSpaceOnUse" x1="3397.0845" y1="2143.7185" x2="3137.3193" y2="3763.4238">
	<stop  offset="0" style="stop-color:#09005D"/>
	<stop  offset="1" style="stop-color:#1A0F91"/>
</linearGradient>
<path class="st27" d="M3135,2730.9c0,0-107.1,399.8-105.4,891.2c0,9,17.1,7.4,25.3,9.3c12.1,2.7,29.8,6,44.5,5.5
	c7.8-0.2,14.4-6.5,15.7-14.7c13.4-84.5,90.6-560.5,134.6-637.8c0,0,16.9,421.1,7.6,641.1c-0.2,5.5,15.6,13.1,20.6,13.7
	c7.7,1,20,1.7,35.7-0.1c6-0.7,22.2,7.1,23,0.7c9.6-71.5,53.3-509.8,51-816.4c-0.1-17.3-42.7-92.5-42.7-92.5H3135z"/>
<linearGradient id="SVGID_21_" gradientUnits="userSpaceOnUse" x1="8827.9336" y1="2819.6753" x2="8756.8125" y2="2946.2468" gradientTransform="matrix(-1 0 0 1 12059.0146 0)">
	<stop  offset="0" style="stop-color:#09005D"/>
	<stop  offset="1" style="stop-color:#1A0F91"/>
</linearGradient>
<path class="st28" d="M3253.1,2958.2c1.6,0,3.1-1.1,3.5-2.7c8-30.7,67.5-64.4,68.1-64.7c1.7-1,2.4-3.2,1.4-4.9
	c-1-1.7-3.2-2.4-4.9-1.4c-2.6,1.4-62.8,35.6-71.6,69.2c-0.5,1.9,0.7,3.9,2.6,4.4C3252.5,2958.1,3252.8,2958.2,3253.1,2958.2z"/>
<linearGradient id="SVGID_22_" gradientUnits="userSpaceOnUse" x1="3330.4827" y1="2132.8547" x2="3070.6501" y2="3752.9792">
	<stop  offset="0" style="stop-color:#09005D"/>
	<stop  offset="1" style="stop-color:#1A0F91"/>
</linearGradient>
<path class="st29" d="M3130.8,2380.3h149.6c8.9,0,30.4,6.1,32.4,14.8l55.4,145.8l11.8,95.3l7.5,187.1l-271.9-10.6l-18.4-271.8
	l25.3-153.6C3123.2,2383.3,3126.7,2380.3,3130.8,2380.3z"/>
<linearGradient id="SVGID_23_" gradientUnits="userSpaceOnUse" x1="3169.3267" y1="2106.3625" x2="2903.2788" y2="3765.2412">
	<stop  offset="0" style="stop-color:#09005D"/>
	<stop  offset="1" style="stop-color:#1A0F91"/>
</linearGradient>
<path class="st30" d="M3127.5,2409.3l-5.1-271c0-2.3,2-4.1,4.3-3.7l34.8,5.6c4,0.6,6.9,4.2,6.7,8.3l-5.6,260.5
	c0,2.1-1.8,3.8-3.9,3.8H3131C3129.1,2412.8,3127.5,2411.3,3127.5,2409.3z"/>
<linearGradient id="SVGID_24_" gradientUnits="userSpaceOnUse" x1="3350.1748" y1="2133.2827" x2="3064.4749" y2="3914.6973">
	<stop  offset="0" style="stop-color:#09005D"/>
	<stop  offset="1" style="stop-color:#1A0F91"/>
</linearGradient>
<path class="st31" d="M3277.7,2414.2c-3.5-0.8-5.6-4.2-4.9-7.7l52.8-235.5c1-3.8,4.7-6.3,8.6-5.9l35.3,3.4c5.1,0.5,8.4,5.7,6.7,10.5
	l-72.1,235.8c-0.9,2.8-3.8,4.5-6.6,3.9L3277.7,2414.2z"/>
<linearGradient id="SVGID_25_" gradientUnits="userSpaceOnUse" x1="3197.1687" y1="2256.0217" x2="3166.6084" y2="2342.6099">
	<stop  offset="0" style="stop-color:#4F52FF"/>
	<stop  offset="1" style="stop-color:#4042E2"/>
</linearGradient>
<circle class="st32" cx="3147.6" cy="2396.5" r="9.2"/>
<linearGradient id="SVGID_26_" gradientUnits="userSpaceOnUse" x1="3338.5112" y1="2257.9104" x2="3307.9507" y2="2344.4985">
	<stop  offset="0" style="stop-color:#4F52FF"/>
	<stop  offset="1" style="stop-color:#4042E2"/>
</linearGradient>
<circle class="st33" cx="3288.9" cy="2398.4" r="9.2"/>
<linearGradient id="SVGID_27_" gradientUnits="userSpaceOnUse" x1="3487.5413" y1="776.3887" x2="3386.3794" y2="1442.3732">
	<stop  offset="0" style="stop-color:#53D8FF"/>
	<stop  offset="1" style="stop-color:#3840F7"/>
</linearGradient>
<path class="st34" d="M3146.6,2464v153.7c0,4,3.1,7.2,7.1,7.3l130.5,4c4.1,0.1,7.5-3.2,7.5-7.3V2464c0-4-3.3-7.3-7.3-7.3H3154
	C3149.9,2456.7,3146.6,2460,3146.6,2464z"/>
</svg>
